<?xml version="1.0" standalone="no"?>
<!DOCTYPE svg PUBLIC "-//W3C//DTD SVG 1.1//EN" "http://www.w3.org/Graphics/SVG/1.1/DTD/svg11.dtd" >
<svg>
<metadata>
Created by FontForge 20090622 at Mon Jun 29 08:57:23 2020
 By deploy user
Copyright 2015 The Bellefair Project Authors (https://github.com/shinntype/bellefair)
</metadata>
<defs>
<font id="Bellefair-Regular" horiz-adv-x="464" >
  <font-face 
    font-family="Bellefair"
    font-weight="400"
    font-stretch="normal"
    units-per-em="1000"
    panose-1="0 0 5 0 0 0 0 0 0 0"
    ascent="800"
    descent="-200"
    x-height="364"
    cap-height="688"
    bbox="-226 -277 1148 869"
    underline-thickness="50"
    underline-position="-50"
    unicode-range="U+000D-U+FB4B"
  />
<missing-glyph horiz-adv-x="536" 
d="M456 727v-727h-376v727h376zM391 665h-247v-602h247v602z" />
    <glyph glyph-name="f_f" unicode="ff" horiz-adv-x="496" 
d="M531.5 681.5q-25.5 10.5 -51.5 10.5q-50 0 -73 -35.5t-23 -91.5v-201h104v-40h-104v-224q0 -56 13.5 -77t25.5 -23h-143q12 2 26 22.5t14 77.5v224h-176v-224q0 -56 13.5 -77t25.5 -23h-143q12 2 26 22.5t14 77.5v224h-56v40h56v139q0 70 23.5 123.5t66 83.5t97.5 30
q43 0 68 -9v-78q-18 18 -43.5 28.5t-51.5 10.5q-50 0 -73 -35.5t-23 -91.5v-201h176v139q0 70 23.5 123.5t66 83.5t97.5 30q43 0 68 -9v-78q-18 18 -43.5 28.5z" />
    <glyph glyph-name="f_f_i" unicode="ffi" horiz-adv-x="720" 
d="M531.5 681.5q-25.5 10.5 -51.5 10.5q-50 0 -73 -35.5t-23 -91.5v-201h104v-40h-104v-224q0 -56 13.5 -77t25.5 -23h-143q12 2 26 22.5t14 77.5v224h-176v-224q0 -56 13.5 -77t25.5 -23h-143q12 2 26 22.5t14 77.5v224h-56v40h56v139q0 70 23.5 123.5t66 83.5t97.5 30
q43 0 68 -9v-78q-18 18 -43.5 28.5t-51.5 10.5q-50 0 -73 -35.5t-23 -91.5v-201h176v139q0 70 23.5 123.5t66 83.5t97.5 30q43 0 68 -9v-78q-18 18 -43.5 28.5zM572.5 527.5q-12.5 14.5 -12.5 33.5t12.5 33.5t34.5 14.5t34.5 -14.5t12.5 -33.5t-12.5 -33.5t-34.5 -14.5
t-34.5 14.5zM562.5 308.5q-13.5 15.5 -30.5 15.5l108 48v-272q0 -44 9 -66t20 -29.5t11 -4.5h-144q0 -3 11 4.5t20 29.5t9 66v151q0 42 -13.5 57.5z" />
    <glyph glyph-name="f_f_l" unicode="ffl" horiz-adv-x="702" 
d="M384 324v-224q0 -54 12.5 -75.5t25.5 -24.5h-141q13 4 26 24.5t13 75.5v224h-176v-224q0 -54 12.5 -75.5t25.5 -24.5h-141q13 4 26 24.5t13 75.5v224h-56v40h56v139q0 70 23.5 123.5t66 83.5t97.5 30q43 0 68 -9v-78q-18 18 -43.5 28.5t-51.5 10.5q-50 0 -73 -35.5
t-23 -91.5v-201h176v139q0 73 25 126.5t66 82t88 28.5q40 0 79 -21l46 21v-640q0 -54 12.5 -75.5t25.5 -24.5h-140q12 4 25 24.5t13 75.5v224h-176zM560 364v289q-17 18 -40.5 28.5t-45.5 10.5q-39 0 -64.5 -31.5t-25.5 -95.5v-201h176z" />
    <glyph glyph-name="fi" unicode="fi" horiz-adv-x="480" 
d="M291.5 681.5q-25.5 10.5 -51.5 10.5q-50 0 -73 -35.5t-23 -91.5v-201h104v-40h-104v-224q0 -43 9 -65.5t20 -30t11 -4.5h-145q0 -3 11.5 4.5t20.5 30t9 65.5v224h-56v40h56v139q0 70 23.5 123.5t66 83.5t97.5 30q43 0 68 -9v-78q-18 18 -43.5 28.5zM322.5 308.5
q-13.5 15.5 -30.5 15.5l108 48v-272q0 -44 9 -66t20 -29.5t11 -4.5h-144q0 -3 11 4.5t20 29.5t9 66v151q0 42 -13.5 57.5zM332.5 507.5q-12.5 14.5 -12.5 33.5t12.5 33.5t34.5 14.5t34.5 -14.5t12.5 -33.5t-12.5 -33.5t-34.5 -14.5t-34.5 14.5z" />
    <glyph glyph-name="fl" unicode="fl" horiz-adv-x="480" 
d="M144 324v-224q0 -56 13.5 -77t25.5 -23h-143q12 2 26 22.5t14 77.5v224h-56v40h56v139q0 70 23.5 123.5t66 83.5t97.5 30q21 0 44 -5t41 -17l48 22v-640q0 -56 13.5 -77t25.5 -23h-142q12 2 25.5 22.5t13.5 77.5v224h-192zM336 364v288q-37 40 -96 40q-50 0 -73 -35.5
t-23 -91.5v-201h192z" />
    <glyph glyph-name=".notdef" horiz-adv-x="536" 
d="M456 727v-727h-376v727h376zM391 665h-247v-602h247v602z" />
    <glyph glyph-name="NULL" horiz-adv-x="0" 
 />
    <glyph glyph-name="NULL" horiz-adv-x="0" 
 />
    <glyph glyph-name="nonmarkingreturn" unicode="&#xd;" horiz-adv-x="256" 
 />
    <glyph glyph-name="space" unicode=" " horiz-adv-x="256" 
 />
    <glyph glyph-name="A" unicode="A" horiz-adv-x="688" 
d="M211 267l-64 -159q-15 -37 -15 -61q0 -33 30 -47h-143q10 0 29 20t44 79l261 621l259 -624q22 -54 42.5 -74t32.5 -22h-166q25 12 25 37q0 21 -16 60l-70 170h-249zM444 308l-109 267l-107 -267h216z" />
    <glyph glyph-name="Aacute" unicode="&#xc1;" horiz-adv-x="688" 
d="M211 267l-64 -159q-15 -37 -15 -61q0 -33 30 -47h-143q10 0 29 20t44 79l261 621l259 -624q22 -54 42.5 -74t32.5 -22h-166q25 12 25 37q0 21 -16 60l-70 170h-249zM444 308l-109 267l-107 -267h216zM385 858h118l-221 -126z" />
    <glyph glyph-name="Abreve" unicode="&#x102;" horiz-adv-x="688" 
d="M211 267l-64 -159q-15 -37 -15 -61q0 -33 30 -47h-143q10 0 29 20t44 79l261 621l259 -624q22 -54 42.5 -74t32.5 -22h-166q25 12 25 37q0 21 -16 60l-70 170h-249zM444 308l-109 267l-107 -267h216zM296 764.5q-24 24.5 -24 57.5q0 24 15 46q-3 -10 -3 -20
q0 -24 20 -37.5t50 -13.5t50 13.5t20 37.5q0 10 -3 20q15 -22 15 -46q0 -33 -24 -57.5t-58 -24.5t-58 24.5z" />
    <glyph glyph-name="Acircumflex" unicode="&#xc2;" horiz-adv-x="688" 
d="M211 267l-64 -159q-15 -37 -15 -61q0 -33 30 -47h-143q10 0 29 20t44 79l261 621l259 -624q22 -54 42.5 -74t32.5 -22h-166q25 12 25 37q0 21 -16 60l-70 170h-249zM444 308l-109 267l-107 -267h216zM352 868l131 -136l-131 59l-131 -59z" />
    <glyph glyph-name="Adieresis" unicode="&#xc4;" horiz-adv-x="688" 
d="M211 267l-64 -159q-15 -37 -15 -61q0 -33 30 -47h-143q10 0 29 20t44 79l261 621l259 -624q22 -54 42.5 -74t32.5 -22h-166q25 12 25 37q0 21 -16 60l-70 170h-249zM444 308l-109 267l-107 -267h216zM210.5 753q-10.5 12 -10.5 28t10.5 28t28.5 12t28.5 -12t10.5 -28
t-10.5 -28t-28.5 -12t-28.5 12zM438.5 753q-10.5 12 -10.5 28t10.5 28t28.5 12t28.5 -12t10.5 -28t-10.5 -28t-28.5 -12t-28.5 12z" />
    <glyph glyph-name="Agrave" unicode="&#xc0;" horiz-adv-x="688" 
d="M211 267l-64 -159q-15 -37 -15 -61q0 -33 30 -47h-143q10 0 29 20t44 79l261 621l259 -624q22 -54 42.5 -74t32.5 -22h-166q25 12 25 37q0 21 -16 60l-70 170h-249zM444 308l-109 267l-107 -267h216zM320 858l103 -126l-221 126h118z" />
    <glyph glyph-name="Amacron" unicode="&#x100;" horiz-adv-x="688" 
d="M211 267l-64 -159q-15 -37 -15 -61q0 -33 30 -47h-143q10 0 29 20t44 79l261 621l259 -624q22 -54 42.5 -74t32.5 -22h-166q25 12 25 37q0 21 -16 60l-70 170h-249zM444 308l-109 267l-107 -267h216zM231 815h244v-46h-244v46z" />
    <glyph glyph-name="Aogonek" unicode="&#x104;" horiz-adv-x="688" 
d="M211 267l-64 -159q-15 -37 -15 -61q0 -33 30 -47h-143q10 0 29 20t44 79l261 621l259 -624q22 -54 42.5 -74t32.5 -22h-166q25 12 25 37q0 21 -16 60l-70 170h-249zM444 308l-109 267l-107 -267h216zM584 -54.5q-17 -23.5 -17 -45.5q0 -18 12.5 -29.5t32.5 -11.5
q26 0 63 21q-16 -28 -39.5 -42.5t-48.5 -14.5q-30 0 -50.5 19t-20.5 52q0 56 73 106h48q-36 -31 -53 -54.5z" />
    <glyph glyph-name="Aring" unicode="&#xc5;" horiz-adv-x="688" 
d="M211 267l-64 -159q-15 -37 -15 -61q0 -33 30 -47h-143q10 0 29 20t44 79l261 621l259 -624q22 -54 42.5 -74t32.5 -22h-166q25 12 25 37q0 21 -16 60l-70 170h-249zM444 308l-109 267l-107 -267h216zM305.5 849q20.5 20 48.5 20q29 0 49 -20t20 -49t-20.5 -49.5
t-48.5 -20.5t-48.5 20.5t-20.5 49.5t20.5 49zM383.5 828q-12.5 12 -29.5 12t-29.5 -12t-12.5 -28t12.5 -28.5t29.5 -12.5t29.5 12.5t12.5 28.5t-12.5 28z" />
    <glyph glyph-name="Atilde" unicode="&#xc3;" horiz-adv-x="688" 
d="M211 267l-64 -159q-15 -37 -15 -61q0 -33 30 -47h-143q10 0 29 20t44 79l261 621l259 -624q22 -54 42.5 -74t32.5 -22h-166q25 12 25 37q0 21 -16 60l-70 170h-249zM444 308l-109 267l-107 -267h216zM246.5 821.5q18.5 16.5 47.5 16.5t71 -18q32 -13 49 -13q34 0 34 44
q0 11 -1 17q19 -17 19 -48q0 -29 -18.5 -45.5t-47.5 -16.5t-71 18q-32 13 -49 13q-34 0 -34 -44q0 -11 1 -17q-19 17 -19 48q0 29 18.5 45.5z" />
    <glyph glyph-name="AE" unicode="&#xc6;" horiz-adv-x="935" 
d="M854 588q-18 60 -108 60h-139v-284h172q20 0 34 6.5t21 13.5t8 9v-97q-1 2 -8 9t-20.5 13t-33.5 6h-173v-284h156q45 0 77.5 18.5t46.5 47.5l-18 -106h-377q0 -3 12 4.5t21.5 30t9.5 65.5v224h-219l-147 -224q-26 -41 -26 -66q0 -15 7.5 -22.5t15.5 -9.5t10 -2h-175
q45 4 102 90l341 512q16 25 16 49q0 25 -19 37h413v-100zM342 364h193v294z" />
    <glyph glyph-name="B" unicode="B" horiz-adv-x="592" 
d="M342.5 4q-33.5 -4 -92.5 -4h-165q13 3 28 22.5t15 75.5v495q0 52 -14 71.5t-28 23.5h164q64 0 97.5 -5.5t58.5 -16.5q44 -21 68 -59t24 -82q0 -67 -40.5 -115.5t-106.5 -62.5q45 -5 85.5 -26t66 -57t25.5 -82q0 -64 -34 -104.5t-92 -60.5q-26 -9 -59.5 -13zM331 640.5
q-23 7.5 -62 7.5h-69v-284h81q36 0 60 11t42 29q19 19 30 46t11 55q0 34 -12.5 64t-37.5 49q-20 15 -43 22.5zM348 317q-28 7 -76 7h-72v-284h95q72 0 112.5 34t40.5 108q0 69 -53 113q-19 15 -47 22z" />
    <glyph glyph-name="C" unicode="C" horiz-adv-x="704" 
d="M537 9q-61 -21 -123 -21q-93 0 -173 43t-128.5 124t-48.5 190q0 102 44.5 183t127 126.5t192.5 45.5q117 0 208 -51v-111q-31 55 -90 87.5t-126 32.5q-85 0 -147.5 -40t-95.5 -109.5t-33 -155.5q0 -97 37.5 -169t101.5 -110.5t143 -38.5q127 0 210 74v-48
q-38 -31 -99 -52z" />
    <glyph glyph-name="Cacute" unicode="&#x106;" horiz-adv-x="704" 
d="M537 9q-61 -21 -123 -21q-93 0 -173 43t-128.5 124t-48.5 190q0 102 44.5 183t127 126.5t192.5 45.5q117 0 208 -51v-111q-31 55 -90 87.5t-126 32.5q-85 0 -147.5 -40t-95.5 -109.5t-33 -155.5q0 -97 37.5 -169t101.5 -110.5t143 -38.5q127 0 210 74v-48
q-38 -31 -99 -52zM449 858h118l-221 -126z" />
    <glyph glyph-name="Ccaron" unicode="&#x10c;" horiz-adv-x="704" 
d="M537 9q-61 -21 -123 -21q-93 0 -173 43t-128.5 124t-48.5 190q0 102 44.5 183t127 126.5t192.5 45.5q117 0 208 -51v-111q-31 55 -90 87.5t-126 32.5q-85 0 -147.5 -40t-95.5 -109.5t-33 -155.5q0 -97 37.5 -169t101.5 -110.5t143 -38.5q127 0 210 74v-48
q-38 -31 -99 -52zM527 868l-131 -136l-131 136l131 -59z" />
    <glyph glyph-name="Ccedilla" unicode="&#xc7;" horiz-adv-x="704" 
d="M444.5 -163.5q-20.5 -19.5 -57.5 -19.5q-23 0 -43.5 10.5t-31.5 31.5q31 -11 53 -11q21 0 32.5 11.5t11.5 27.5q0 15 -11 26.5t-32 11.5h-9l28 64q-87 7 -160.5 51t-117 122.5t-43.5 182.5q0 102 44.5 183t127 127t192.5 46q117 0 208 -51v-111q-31 55 -90 87.5
t-126 32.5q-85 0 -147.5 -40t-95.5 -110t-33 -156q0 -97 37.5 -169t101.5 -110.5t143 -38.5q127 0 210 74v-48q-37 -30 -95.5 -51t-119.5 -22l-20 -44q31 -4 47.5 -21.5t16.5 -40.5q0 -26 -20.5 -45.5z" />
    <glyph glyph-name="Ccircumflex" unicode="&#x108;" horiz-adv-x="704" 
d="M537 9q-61 -21 -123 -21q-93 0 -173 43t-128.5 124t-48.5 190q0 102 44.5 183t127 126.5t192.5 45.5q117 0 208 -51v-111q-31 55 -90 87.5t-126 32.5q-85 0 -147.5 -40t-95.5 -109.5t-33 -155.5q0 -97 37.5 -169t101.5 -110.5t143 -38.5q127 0 210 74v-48
q-38 -31 -99 -52zM410 868l131 -136l-131 59l-131 -59z" />
    <glyph glyph-name="Cdotaccent" unicode="&#x10a;" horiz-adv-x="704" 
d="M537 9q-61 -21 -123 -21q-93 0 -173 43t-128.5 124t-48.5 190q0 102 44.5 183t127 126.5t192.5 45.5q117 0 208 -51v-111q-31 55 -90 87.5t-126 32.5q-85 0 -147.5 -40t-95.5 -109.5t-33 -155.5q0 -97 37.5 -169t101.5 -110.5t143 -38.5q127 0 210 74v-48
q-38 -31 -99 -52zM386.5 767.5q-12.5 14.5 -12.5 33.5t12.5 33.5t34.5 14.5t34.5 -14.5t12.5 -33.5t-12.5 -33.5t-34.5 -14.5t-34.5 14.5z" />
    <glyph glyph-name="D" unicode="D" horiz-adv-x="744" 
d="M282 0h-197q0 -3 12 5.5t21.5 31.5t9.5 67v492q0 39 -9.5 59.5t-21.5 27.5t-12 5h196q153 0 242 -50q79 -44 122 -119t43 -169q0 -102 -40.5 -176.5t-114.5 -117.5q-94 -56 -251 -56zM400 635q-50 13 -119 13h-81v-608h81q82 0 134.5 14t90.5 43q49 38 75.5 99.5
t26.5 143.5q0 87 -30.5 152.5t-83.5 100.5q-44 29 -94 42z" />
    <glyph glyph-name="Eth" unicode="&#xd0;" horiz-adv-x="744" 
d="M86 0q12 2 27 24t15 80v220h-66v40h66v232q0 50 -14 69t-28 23h195q153 0 242 -50q79 -44 122 -119t43 -169q0 -113 -50 -191.5t-137.5 -118.5t-199.5 -40h-215zM401.5 635q-48.5 13 -109.5 13h-92v-284h99v-40h-99v-284h117q135 0 213 78.5t78 221.5q0 87 -30.5 152.5
t-83.5 100.5q-44 29 -92.5 42z" />
    <glyph glyph-name="Dcaron" unicode="&#x10e;" horiz-adv-x="744" 
d="M282 0h-197q0 -3 12 5.5t21.5 31.5t9.5 67v492q0 39 -9.5 59.5t-21.5 27.5t-12 5h196q153 0 242 -50q79 -44 122 -119t43 -169q0 -102 -40.5 -176.5t-114.5 -117.5q-94 -56 -251 -56zM400 635q-50 13 -119 13h-81v-608h81q82 0 134.5 14t90.5 43q49 38 75.5 99.5
t26.5 143.5q0 87 -30.5 152.5t-83.5 100.5q-44 29 -94 42zM496 868l-131 -136l-131 136l131 -59z" />
    <glyph glyph-name="Dcroat" unicode="&#x110;" horiz-adv-x="744" 
d="M86 0q12 2 27 24t15 80v220h-66v40h66v232q0 50 -14 69t-28 23h195q153 0 242 -50q79 -44 122 -119t43 -169q0 -113 -50 -191.5t-137.5 -118.5t-199.5 -40h-215zM401.5 635q-48.5 13 -109.5 13h-92v-284h99v-40h-99v-284h117q135 0 213 78.5t78 221.5q0 87 -30.5 152.5
t-83.5 100.5q-44 29 -92.5 42z" />
    <glyph glyph-name="E" unicode="E" horiz-adv-x="528" 
d="M85 0q0 -3 12 4.5t21.5 30t9.5 65.5v491q0 41 -9.5 62.5t-21.5 29.5t-12 5h362v-100q-18 60 -108 60h-139v-284h172q20 0 34 6.5t21 13.5t8 9v-97q-1 2 -8 9t-20.5 13t-33.5 6h-173v-284h156q45 0 77.5 18.5t46.5 47.5l-18 -106h-377z" />
    <glyph glyph-name="Eacute" unicode="&#xc9;" horiz-adv-x="528" 
d="M85 0q0 -3 12 4.5t21.5 30t9.5 65.5v491q0 41 -9.5 62.5t-21.5 29.5t-12 5h362v-100q-18 60 -108 60h-139v-284h172q20 0 34 6.5t21 13.5t8 9v-97q-1 2 -8 9t-20.5 13t-33.5 6h-173v-284h156q45 0 77.5 18.5t46.5 47.5l-18 -106h-377zM335 858h118l-221 -126z" />
    <glyph glyph-name="Ebreve" unicode="&#x114;" horiz-adv-x="528" 
d="M85 0q0 -3 12 4.5t21.5 30t9.5 65.5v491q0 41 -9.5 62.5t-21.5 29.5t-12 5h362v-100q-18 60 -108 60h-139v-284h172q20 0 34 6.5t21 13.5t8 9v-97q-1 2 -8 9t-20.5 13t-33.5 6h-173v-284h156q45 0 77.5 18.5t46.5 47.5l-18 -106h-377zM227 764.5q-24 24.5 -24 57.5
q0 24 15 46q-3 -10 -3 -20q0 -24 20 -37.5t50 -13.5t50 13.5t20 37.5q0 10 -3 20q15 -22 15 -46q0 -33 -24 -57.5t-58 -24.5t-58 24.5z" />
    <glyph glyph-name="Ecaron" unicode="&#x11a;" horiz-adv-x="528" 
d="M85 0q0 -3 12 4.5t21.5 30t9.5 65.5v491q0 41 -9.5 62.5t-21.5 29.5t-12 5h362v-100q-18 60 -108 60h-139v-284h172q20 0 34 6.5t21 13.5t8 9v-97q-1 2 -8 9t-20.5 13t-33.5 6h-173v-284h156q45 0 77.5 18.5t46.5 47.5l-18 -106h-377zM417 868l-131 -136l-131 136
l131 -59z" />
    <glyph glyph-name="Ecircumflex" unicode="&#xca;" horiz-adv-x="528" 
d="M85 0q0 -3 12 4.5t21.5 30t9.5 65.5v491q0 41 -9.5 62.5t-21.5 29.5t-12 5h362v-100q-18 60 -108 60h-139v-284h172q20 0 34 6.5t21 13.5t8 9v-97q-1 2 -8 9t-20.5 13t-33.5 6h-173v-284h156q45 0 77.5 18.5t46.5 47.5l-18 -106h-377zM282 868l131 -136l-131 59l-131 -59
z" />
    <glyph glyph-name="Edieresis" unicode="&#xcb;" horiz-adv-x="528" 
d="M85 0q0 -3 12 4.5t21.5 30t9.5 65.5v491q0 41 -9.5 62.5t-21.5 29.5t-12 5h362v-100q-18 60 -108 60h-139v-284h172q20 0 34 6.5t21 13.5t8 9v-97q-1 2 -8 9t-20.5 13t-33.5 6h-173v-284h156q45 0 77.5 18.5t46.5 47.5l-18 -106h-377zM141.5 753q-10.5 12 -10.5 28
t10.5 28t28.5 12t28.5 -12t10.5 -28t-10.5 -28t-28.5 -12t-28.5 12zM369.5 753q-10.5 12 -10.5 28t10.5 28t28.5 12t28.5 -12t10.5 -28t-10.5 -28t-28.5 -12t-28.5 12z" />
    <glyph glyph-name="Edotaccent" unicode="&#x116;" horiz-adv-x="528" 
d="M85 0q0 -3 12 4.5t21.5 30t9.5 65.5v491q0 41 -9.5 62.5t-21.5 29.5t-12 5h362v-100q-18 60 -108 60h-139v-284h172q20 0 34 6.5t21 13.5t8 9v-97q-1 2 -8 9t-20.5 13t-33.5 6h-173v-284h156q45 0 77.5 18.5t46.5 47.5l-18 -106h-377zM248.5 767.5q-12.5 14.5 -12.5 33.5
t12.5 33.5t34.5 14.5t34.5 -14.5t12.5 -33.5t-12.5 -33.5t-34.5 -14.5t-34.5 14.5z" />
    <glyph glyph-name="Egrave" unicode="&#xc8;" horiz-adv-x="528" 
d="M85 0q0 -3 12 4.5t21.5 30t9.5 65.5v491q0 41 -9.5 62.5t-21.5 29.5t-12 5h362v-100q-18 60 -108 60h-139v-284h172q20 0 34 6.5t21 13.5t8 9v-97q-1 2 -8 9t-20.5 13t-33.5 6h-173v-284h156q45 0 77.5 18.5t46.5 47.5l-18 -106h-377zM220 858l103 -126l-221 126h118z
" />
    <glyph glyph-name="Emacron" unicode="&#x112;" horiz-adv-x="528" 
d="M85 0q0 -3 12 4.5t21.5 30t9.5 65.5v491q0 41 -9.5 62.5t-21.5 29.5t-12 5h362v-100q-18 60 -108 60h-139v-284h172q20 0 34 6.5t21 13.5t8 9v-97q-1 2 -8 9t-20.5 13t-33.5 6h-173v-284h156q45 0 77.5 18.5t46.5 47.5l-18 -106h-377zM152 815h244v-46h-244v46z" />
    <glyph glyph-name="Eogonek" unicode="&#x118;" horiz-adv-x="528" 
d="M85 0q0 -3 12 4.5t21.5 30t9.5 65.5v491q0 41 -9.5 62.5t-21.5 29.5t-12 5h362v-100q-18 60 -108 60h-139v-284h172q20 0 34 6.5t21 13.5t8 9v-97q-1 2 -8 9t-20.5 13t-33.5 6h-173v-284h156q45 0 77.5 18.5t46.5 47.5l-18 -106h-377zM379 -54.5q-17 -23.5 -17 -45.5
q0 -18 12.5 -29.5t32.5 -11.5q26 0 63 21q-16 -28 -39.5 -42.5t-48.5 -14.5q-30 0 -50.5 19t-20.5 52q0 56 73 106h48q-36 -31 -53 -54.5z" />
    <glyph glyph-name="F" unicode="F" horiz-adv-x="496" 
d="M200 648v-284h173q37 0 49.5 11t12.5 18v-98q0 3 -4.5 9.5t-18 13t-39.5 6.5h-173v-231q0 -39 10 -59.5t22 -28t12 -5.5h-159q0 -2 12 5t21.5 27.5t9.5 60.5v497q0 41 -9.5 62.5t-21.5 30t-12 5.5h362v-102q-5 24 -28 43t-65 19h-154z" />
    <glyph glyph-name="G" unicode="G" horiz-adv-x="752" 
d="M243 29q-81 40 -130 120t-49 195q0 102 46.5 183t131 127t194.5 46q70 0 126.5 -16t89.5 -35v-111q-31 54 -92.5 87t-125.5 33q-89 0 -154.5 -37.5t-100.5 -106.5t-35 -162q0 -101 40.5 -173t107.5 -108t146 -36q36 0 74.5 8.5t71.5 24.5v165q0 31 -10 48.5t-22 25
t-12 5.5h160q0 2 -12 -4t-22 -22.5t-10 -46.5v-182q-53 -33 -114.5 -50.5t-122.5 -17.5q-95 0 -176 40z" />
    <glyph glyph-name="Gbreve" unicode="&#x11e;" horiz-adv-x="752" 
d="M243 29q-81 40 -130 120t-49 195q0 102 46.5 183t131 127t194.5 46q70 0 126.5 -16t89.5 -35v-111q-31 54 -92.5 87t-125.5 33q-89 0 -154.5 -37.5t-100.5 -106.5t-35 -162q0 -101 40.5 -173t107.5 -108t146 -36q36 0 74.5 8.5t71.5 24.5v165q0 31 -10 48.5t-22 25
t-12 5.5h160q0 2 -12 -4t-22 -22.5t-10 -46.5v-182q-53 -33 -114.5 -50.5t-122.5 -17.5q-95 0 -176 40zM359 764.5q-24 24.5 -24 57.5q0 24 15 46q-3 -10 -3 -20q0 -24 20 -37.5t50 -13.5t50 13.5t20 37.5q0 10 -3 20q15 -22 15 -46q0 -33 -24 -57.5t-58 -24.5t-58 24.5z
" />
    <glyph glyph-name="Gcircumflex" unicode="&#x11c;" horiz-adv-x="752" 
d="M243 29q-81 40 -130 120t-49 195q0 102 46.5 183t131 127t194.5 46q70 0 126.5 -16t89.5 -35v-111q-31 54 -92.5 87t-125.5 33q-89 0 -154.5 -37.5t-100.5 -106.5t-35 -162q0 -101 40.5 -173t107.5 -108t146 -36q36 0 74.5 8.5t71.5 24.5v165q0 31 -10 48.5t-22 25
t-12 5.5h160q0 2 -12 -4t-22 -22.5t-10 -46.5v-182q-53 -33 -114.5 -50.5t-122.5 -17.5q-95 0 -176 40zM414 868l131 -136l-131 59l-131 -59z" />
    <glyph glyph-name="Gcommaaccent" unicode="&#x122;" horiz-adv-x="752" 
d="M243 29q-81 40 -130 120t-49 195q0 102 46.5 183t131 127t194.5 46q70 0 126.5 -16t89.5 -35v-111q-31 54 -92.5 87t-125.5 33q-89 0 -154.5 -37.5t-100.5 -106.5t-35 -162q0 -101 40.5 -173t107.5 -108t146 -36q36 0 74.5 8.5t71.5 24.5v165q0 31 -10 48.5t-22 25
t-12 5.5h160q0 2 -12 -4t-22 -22.5t-10 -46.5v-182q-53 -33 -114.5 -50.5t-122.5 -17.5q-95 0 -176 40zM393 -209q16 27 16 60h-6q-22 0 -33 11.5t-11 28.5q0 18 11.5 30.5t31.5 12.5q22 0 38 -18t16 -52q0 -42 -26.5 -74t-75.5 -34q23 8 39 35z" />
    <glyph glyph-name="Gdotaccent" unicode="&#x120;" horiz-adv-x="752" 
d="M243 29q-81 40 -130 120t-49 195q0 102 46.5 183t131 127t194.5 46q70 0 126.5 -16t89.5 -35v-111q-31 54 -92.5 87t-125.5 33q-89 0 -154.5 -37.5t-100.5 -106.5t-35 -162q0 -101 40.5 -173t107.5 -108t146 -36q36 0 74.5 8.5t71.5 24.5v165q0 31 -10 48.5t-22 25
t-12 5.5h160q0 2 -12 -4t-22 -22.5t-10 -46.5v-182q-53 -33 -114.5 -50.5t-122.5 -17.5q-95 0 -176 40zM364.5 767.5q-12.5 14.5 -12.5 33.5t12.5 33.5t34.5 14.5t34.5 -14.5t12.5 -33.5t-12.5 -33.5t-34.5 -14.5t-34.5 14.5z" />
    <glyph glyph-name="H" unicode="H" horiz-adv-x="760" 
d="M544 4.5q12 7.5 22 28t10 60.5v227h-376v-227q0 -40 10 -60.5t22 -27.5t12 -5h-159q0 -3 12 4.5t21.5 28t9.5 60.5v502q0 40 -9.5 60.5t-21.5 27.5t-12 5h159q0 2 -12 -5t-22 -27.5t-10 -60.5v-231h376v231q0 40 -10 60.5t-22 27.5t-12 5h159q0 3 -12 -4.5t-21.5 -28
t-9.5 -60.5v-502q0 -40 10 -60.5t22 -27.5t12 -5h-160q0 -3 12 4.5z" />
    <glyph glyph-name="Hbar" unicode="&#x126;" horiz-adv-x="760" 
d="M128 551v44q0 51 -14 70t-28 23h157q-13 -2 -28 -21.5t-15 -71.5v-44h376v44q0 51 -14.5 70t-28.5 23h157q-13 -2 -27.5 -21t-14.5 -72v-44h38v-44h-38v-414q0 -51 15 -71t28 -22h-158q13 2 28 21t15 72v227h-376v-227q0 -52 15 -71.5t28 -21.5h-157q13 3 27.5 21.5
t14.5 71.5v414h-38v44h38zM576 507h-376v-143h376v143z" />
    <glyph glyph-name="Hcircumflex" unicode="&#x124;" horiz-adv-x="760" 
d="M544 4.5q12 7.5 22 28t10 60.5v227h-376v-227q0 -40 10 -60.5t22 -27.5t12 -5h-159q0 -3 12 4.5t21.5 28t9.5 60.5v502q0 40 -9.5 60.5t-21.5 27.5t-12 5h159q0 2 -12 -5t-22 -27.5t-10 -60.5v-231h376v231q0 40 -10 60.5t-22 27.5t-12 5h159q0 3 -12 -4.5t-21.5 -28
t-9.5 -60.5v-502q0 -40 10 -60.5t22 -27.5t12 -5h-160q0 -3 12 4.5zM388 868l131 -136l-131 59l-131 -59z" />
    <glyph glyph-name="I" unicode="I" horiz-adv-x="312" 
d="M96 4.5q12 7.5 22 28t10 60.5v502q0 40 -9.5 60.5t-21.5 27.5t-12 5h159q0 2 -12 -5t-22 -27.5t-10 -60.5v-502q0 -40 10 -60.5t22 -27.5t12 -5h-160q0 -3 12 4.5z" />
    <glyph glyph-name="IJ" unicode="&#x132;" horiz-adv-x="624" 
d="M96 4.5q12 7.5 22 28t10 60.5v502q0 40 -9.5 60.5t-21.5 27.5t-12 5h159q0 2 -12 -5t-22 -27.5t-10 -60.5v-502q0 -40 10 -60.5t22 -27.5t12 -5h-160q0 -3 12 4.5zM512 31q0 -58 -25.5 -105t-68 -73t-90.5 -26q52 21 82 76.5t30 131.5v561q0 39 -10 59.5t-22 27.5t-12 5
h159q0 2 -12 -5t-21.5 -27.5t-9.5 -59.5v-565z" />
    <glyph glyph-name="Iacute" unicode="&#xcd;" horiz-adv-x="312" 
d="M96 4.5q12 7.5 22 28t10 60.5v502q0 40 -9.5 60.5t-21.5 27.5t-12 5h159q0 2 -12 -5t-22 -27.5t-10 -60.5v-502q0 -40 10 -60.5t22 -27.5t12 -5h-160q0 -3 12 4.5zM177 858h118l-221 -126z" />
    <glyph glyph-name="Ibreve" unicode="&#x12c;" horiz-adv-x="312" 
d="M96 4.5q12 7.5 22 28t10 60.5v502q0 40 -9.5 60.5t-21.5 27.5t-12 5h159q0 2 -12 -5t-22 -27.5t-10 -60.5v-502q0 -40 10 -60.5t22 -27.5t12 -5h-160q0 -3 12 4.5zM106 764.5q-24 24.5 -24 57.5q0 24 15 46q-3 -10 -3 -20q0 -24 20 -37.5t50 -13.5t50 13.5t20 37.5
q0 10 -3 20q15 -22 15 -46q0 -33 -24 -57.5t-58 -24.5t-58 24.5z" />
    <glyph glyph-name="Icircumflex" unicode="&#xce;" horiz-adv-x="312" 
d="M96 4.5q12 7.5 22 28t10 60.5v502q0 40 -9.5 60.5t-21.5 27.5t-12 5h159q0 2 -12 -5t-22 -27.5t-10 -60.5v-502q0 -40 10 -60.5t22 -27.5t12 -5h-160q0 -3 12 4.5zM163 868l131 -136l-131 59l-131 -59z" />
    <glyph glyph-name="Idieresis" unicode="&#xcf;" horiz-adv-x="312" 
d="M96 4.5q12 7.5 22 28t10 60.5v502q0 40 -9.5 60.5t-21.5 27.5t-12 5h159q0 2 -12 -5t-22 -27.5t-10 -60.5v-502q0 -40 10 -60.5t22 -27.5t12 -5h-160q0 -3 12 4.5zM21.5 753q-10.5 12 -10.5 28t10.5 28t28.5 12t28.5 -12t10.5 -28t-10.5 -28t-28.5 -12t-28.5 12z
M249.5 753q-10.5 12 -10.5 28t10.5 28t28.5 12t28.5 -12t10.5 -28t-10.5 -28t-28.5 -12t-28.5 12z" />
    <glyph glyph-name="Idotaccent" unicode="&#x130;" horiz-adv-x="312" 
d="M96 4.5q12 7.5 22 28t10 60.5v502q0 40 -9.5 60.5t-21.5 27.5t-12 5h159q0 2 -12 -5t-22 -27.5t-10 -60.5v-502q0 -40 10 -60.5t22 -27.5t12 -5h-160q0 -3 12 4.5zM129.5 767.5q-12.5 14.5 -12.5 33.5t12.5 33.5t34.5 14.5t34.5 -14.5t12.5 -33.5t-12.5 -33.5
t-34.5 -14.5t-34.5 14.5z" />
    <glyph glyph-name="Igrave" unicode="&#xcc;" horiz-adv-x="312" 
d="M96 4.5q12 7.5 22 28t10 60.5v502q0 40 -9.5 60.5t-21.5 27.5t-12 5h159q0 2 -12 -5t-22 -27.5t-10 -60.5v-502q0 -40 10 -60.5t22 -27.5t12 -5h-160q0 -3 12 4.5zM112 858l103 -126l-221 126h118z" />
    <glyph glyph-name="Imacron" unicode="&#x12a;" horiz-adv-x="312" 
d="M96 4.5q12 7.5 22 28t10 60.5v502q0 40 -9.5 60.5t-21.5 27.5t-12 5h159q0 2 -12 -5t-22 -27.5t-10 -60.5v-502q0 -40 10 -60.5t22 -27.5t12 -5h-160q0 -3 12 4.5zM42 815h244v-46h-244v46z" />
    <glyph glyph-name="Iogonek" unicode="&#x12e;" horiz-adv-x="312" 
d="M96 4.5q12 7.5 22 28t10 60.5v502q0 40 -9.5 60.5t-21.5 27.5t-12 5h159q0 2 -12 -5t-22 -27.5t-10 -60.5v-502q0 -40 10 -60.5t22 -27.5t12 -5h-160q0 -3 12 4.5zM161 -54.5q-17 -23.5 -17 -45.5q0 -18 12.5 -29.5t32.5 -11.5q26 0 63 21q-16 -28 -39.5 -42.5
t-48.5 -14.5q-30 0 -50.5 19t-20.5 52q0 56 73 106h48q-36 -31 -53 -54.5z" />
    <glyph glyph-name="Itilde" unicode="&#x128;" horiz-adv-x="312" 
d="M96 4.5q12 7.5 22 28t10 60.5v502q0 40 -9.5 60.5t-21.5 27.5t-12 5h159q0 2 -12 -5t-22 -27.5t-10 -60.5v-502q0 -40 10 -60.5t22 -27.5t12 -5h-160q0 -3 12 4.5zM61.5 822.5q18.5 16.5 47.5 16.5t71 -18q32 -13 49 -13q34 0 34 44q0 11 -1 17q19 -17 19 -48
q0 -29 -18.5 -45.5t-47.5 -16.5t-71 18q-32 13 -49 13q-34 0 -34 -44q0 -11 1 -17q-19 17 -19 48q0 29 18.5 45.5z" />
    <glyph glyph-name="J" unicode="J" horiz-adv-x="312" 
d="M200 31q0 -58 -25.5 -105t-68 -73t-90.5 -26q52 21 82 76.5t30 131.5v561q0 39 -10 59.5t-22 27.5t-12 5h159q0 2 -12 -5t-21.5 -27.5t-9.5 -59.5v-565z" />
    <glyph glyph-name="Jcircumflex" unicode="&#x134;" horiz-adv-x="312" 
d="M200 31q0 -58 -25.5 -105t-68 -73t-90.5 -26q52 21 82 76.5t30 131.5v561q0 39 -10 59.5t-22 27.5t-12 5h159q0 2 -12 -5t-21.5 -27.5t-9.5 -59.5v-565zM163 868l131 -136l-131 59l-131 -59z" />
    <glyph glyph-name="K" unicode="K" horiz-adv-x="664" 
d="M514 0l-314 350v-258q0 -50 14 -70t26 -22h-154q12 2 27 21.5t15 70.5v503q0 51 -14 70t-28 23h154q-12 -2 -26 -21.5t-14 -71.5v-242l237 236q57 57 57 78q0 18 -14 21h157q-16 -2 -50.5 -21.5t-88.5 -73.5l-224 -222l253 -275q46 -53 72.5 -72.5t37.5 -23.5h-123z" />
    <glyph glyph-name="Kcommaaccent" unicode="&#x136;" horiz-adv-x="664" 
d="M514 0l-314 350v-258q0 -50 14 -70t26 -22h-154q12 2 27 21.5t15 70.5v503q0 51 -14 70t-28 23h154q-12 -2 -26 -21.5t-14 -71.5v-242l237 236q57 57 57 78q0 18 -14 21h157q-16 -2 -50.5 -21.5t-88.5 -73.5l-224 -222l253 -275q46 -53 72.5 -72.5t37.5 -23.5h-123z
M324 -209q16 27 16 60h-6q-22 0 -33 11.5t-11 28.5q0 18 11.5 30.5t31.5 12.5q22 0 38 -18t16 -52q0 -42 -26.5 -74t-75.5 -34q23 8 39 35z" />
    <glyph glyph-name="L" unicode="L" horiz-adv-x="506" 
d="M118.5 655.5q-9.5 20.5 -21.5 27.5t-12 5h159q0 2 -12 -5t-22 -27.5t-10 -60.5v-555h164q45 0 77.5 18.5t46.5 47.5l-18 -106h-385q0 -3 12 4.5t21.5 30t9.5 65.5v495q0 40 -9.5 60.5z" />
    <glyph glyph-name="Lacute" unicode="&#x139;" horiz-adv-x="506" 
d="M118.5 655.5q-9.5 20.5 -21.5 27.5t-12 5h159q0 2 -12 -5t-22 -27.5t-10 -60.5v-555h164q45 0 77.5 18.5t46.5 47.5l-18 -106h-385q0 -3 12 4.5t21.5 30t9.5 65.5v495q0 40 -9.5 60.5zM274 858h118l-221 -126z" />
    <glyph glyph-name="Lcaron" unicode="&#x13d;" horiz-adv-x="506" 
d="M118.5 655.5q-9.5 20.5 -21.5 27.5t-12 5h159q0 2 -12 -5t-22 -27.5t-10 -60.5v-555h164q45 0 77.5 18.5t46.5 47.5l-18 -106h-385q0 -3 12 4.5t21.5 30t9.5 65.5v495q0 40 -9.5 60.5zM345 727h69l-101 -187z" />
    <glyph glyph-name="Lcommaaccent" unicode="&#x13b;" horiz-adv-x="506" 
d="M118.5 655.5q-9.5 20.5 -21.5 27.5t-12 5h159q0 2 -12 -5t-22 -27.5t-10 -60.5v-555h164q45 0 77.5 18.5t46.5 47.5l-18 -106h-385q0 -3 12 4.5t21.5 30t9.5 65.5v495q0 40 -9.5 60.5zM266 -209q16 27 16 60h-6q-22 0 -33 11.5t-11 28.5q0 18 11.5 30.5t31.5 12.5
q22 0 38 -18t16 -52q0 -42 -26.5 -74t-75.5 -34q23 8 39 35z" />
    <glyph glyph-name="Ldot" unicode="&#x13f;" horiz-adv-x="506" 
d="M118.5 655.5q-9.5 20.5 -21.5 27.5t-12 5h159q0 2 -12 -5t-22 -27.5t-10 -60.5v-555h164q45 0 77.5 18.5t46.5 47.5l-18 -106h-385q0 -3 12 4.5t21.5 30t9.5 65.5v495q0 40 -9.5 60.5zM366.5 289.5q-12.5 14.5 -12.5 33.5t12.5 33.5t34.5 14.5t34.5 -14.5t12.5 -33.5
t-12.5 -33.5t-34.5 -14.5t-34.5 14.5z" />
    <glyph glyph-name="Lslash" unicode="&#x141;" horiz-adv-x="506" 
d="M128 595q0 51 -14 70t-28 23h157q-13 -2 -28 -21.5t-15 -71.5v-218l146 115v-50l-146 -114v-288h164q45 0 77.5 18.5t46.5 47.5l-18 -106h-384q13 3 27.5 23t14.5 77v171l-68 -53v49l68 53v275z" />
    <glyph glyph-name="M" unicode="M" horiz-adv-x="888" 
d="M664 0q12 2 26 21.5t14 72.5v500l-262 -605l-266 604v-494q0 -54 17.5 -75.5t31.5 -23.5h-148q15 2 33 22.5t18 76.5v501q0 48 -17 66t-34 22h135l245 -559l241 559h121q-13 -2 -28 -21t-15 -70v-507q0 -50 15 -69t28 -21h-155z" />
    <glyph glyph-name="N" unicode="N" horiz-adv-x="800" 
d="M729 688q-14 -3 -27.5 -22.5t-13.5 -68.5v-625l-512 597v-479q0 -48 17 -67.5t33 -22.5h-141q14 3 28.5 22.5t14.5 68.5v500q0 34 -23 62t-58 35h124l469 -547v456q0 77 -52 91h141z" />
    <glyph glyph-name="Nacute" unicode="&#x143;" horiz-adv-x="800" 
d="M729 688q-14 -3 -27.5 -22.5t-13.5 -68.5v-625l-512 597v-479q0 -48 17 -67.5t33 -22.5h-141q14 3 28.5 22.5t14.5 68.5v500q0 34 -23 62t-58 35h124l469 -547v456q0 77 -52 91h141zM421 858h118l-221 -126z" />
    <glyph glyph-name="Ncaron" unicode="&#x147;" horiz-adv-x="800" 
d="M729 688q-14 -3 -27.5 -22.5t-13.5 -68.5v-625l-512 597v-479q0 -48 17 -67.5t33 -22.5h-141q14 3 28.5 22.5t14.5 68.5v500q0 34 -23 62t-58 35h124l469 -547v456q0 77 -52 91h141zM531 868l-131 -136l-131 136l131 -59z" />
    <glyph glyph-name="Ncommaaccent" unicode="&#x145;" horiz-adv-x="800" 
d="M729 688q-14 -3 -27.5 -22.5t-13.5 -68.5v-625l-512 597v-479q0 -48 17 -67.5t33 -22.5h-141q14 3 28.5 22.5t14.5 68.5v500q0 34 -23 62t-58 35h124l469 -547v456q0 77 -52 91h141zM393 -209q16 27 16 60h-6q-22 0 -33 11.5t-11 28.5q0 18 11.5 30.5t31.5 12.5
q22 0 38 -18t16 -52q0 -42 -26.5 -74t-75.5 -34q23 8 39 35z" />
    <glyph glyph-name="Eng" unicode="&#x14a;" horiz-adv-x="800" 
d="M730 688q-14 -3 -27.5 -22.5t-13.5 -68.5v-566q0 -98 -50.5 -151t-133.5 -53q126 55 126 161q0 49 -36 92l-419 489v-479q0 -48 17 -67.5t33 -22.5h-141q14 3 28.5 22.5t14.5 68.5v500q0 34 -23 62t-58 35h124l470 -547v456q0 77 -52 91h141z" />
    <glyph glyph-name="Ntilde" unicode="&#xd1;" horiz-adv-x="800" 
d="M729 688q-14 -3 -27.5 -22.5t-13.5 -68.5v-625l-512 597v-479q0 -48 17 -67.5t33 -22.5h-141q14 3 28.5 22.5t14.5 68.5v500q0 34 -23 62t-58 35h124l469 -547v456q0 77 -52 91h141zM306.5 821.5q18.5 16.5 47.5 16.5t71 -18q32 -13 49 -13q34 0 34 44q0 11 -1 17
q19 -17 19 -48q0 -29 -18.5 -45.5t-47.5 -16.5t-71 18q-32 13 -49 13q-34 0 -34 -44q0 -11 1 -17q-19 17 -19 48q0 29 18.5 45.5z" />
    <glyph glyph-name="O" unicode="O" horiz-adv-x="818" 
d="M109.5 525q45.5 83 128 129t190.5 46q90 0 168.5 -39.5t126 -118.5t47.5 -190q0 -106 -45.5 -189t-128 -129t-190.5 -46q-90 0 -168.5 39.5t-126 118.5t-47.5 190q0 106 45.5 189zM652.5 501.5q-37.5 73.5 -103 115t-147.5 41.5q-75 0 -133.5 -38t-91.5 -107.5
t-33 -161.5q0 -91 37.5 -164.5t103 -115t147.5 -41.5q75 0 133.5 38t91.5 107.5t33 161.5q0 91 -37.5 164.5z" />
    <glyph glyph-name="Oacute" unicode="&#xd3;" horiz-adv-x="818" 
d="M109.5 525q45.5 83 128 129t190.5 46q90 0 168.5 -39.5t126 -118.5t47.5 -190q0 -106 -45.5 -189t-128 -129t-190.5 -46q-90 0 -168.5 39.5t-126 118.5t-47.5 190q0 106 45.5 189zM652.5 501.5q-37.5 73.5 -103 115t-147.5 41.5q-75 0 -133.5 -38t-91.5 -107.5
t-33 -161.5q0 -91 37.5 -164.5t103 -115t147.5 -41.5q75 0 133.5 38t91.5 107.5t33 161.5q0 91 -37.5 164.5zM440 858h118l-221 -126z" />
    <glyph glyph-name="Obreve" unicode="&#x14e;" horiz-adv-x="818" 
d="M109.5 525q45.5 83 128 129t190.5 46q90 0 168.5 -39.5t126 -118.5t47.5 -190q0 -106 -45.5 -189t-128 -129t-190.5 -46q-90 0 -168.5 39.5t-126 118.5t-47.5 190q0 106 45.5 189zM652.5 501.5q-37.5 73.5 -103 115t-147.5 41.5q-75 0 -133.5 -38t-91.5 -107.5
t-33 -161.5q0 -91 37.5 -164.5t103 -115t147.5 -41.5q75 0 133.5 38t91.5 107.5t33 161.5q0 91 -37.5 164.5zM352 764.5q-24 24.5 -24 57.5q0 24 15 46q-3 -10 -3 -20q0 -24 20 -37.5t50 -13.5t50 13.5t20 37.5q0 10 -3 20q15 -22 15 -46q0 -33 -24 -57.5t-58 -24.5
t-58 24.5z" />
    <glyph glyph-name="Ocircumflex" unicode="&#xd4;" horiz-adv-x="818" 
d="M109.5 525q45.5 83 128 129t190.5 46q90 0 168.5 -39.5t126 -118.5t47.5 -190q0 -106 -45.5 -189t-128 -129t-190.5 -46q-90 0 -168.5 39.5t-126 118.5t-47.5 190q0 106 45.5 189zM652.5 501.5q-37.5 73.5 -103 115t-147.5 41.5q-75 0 -133.5 -38t-91.5 -107.5
t-33 -161.5q0 -91 37.5 -164.5t103 -115t147.5 -41.5q75 0 133.5 38t91.5 107.5t33 161.5q0 91 -37.5 164.5zM407 868l131 -136l-131 59l-131 -59z" />
    <glyph glyph-name="Odieresis" unicode="&#xd6;" horiz-adv-x="818" 
d="M109.5 525q45.5 83 128 129t190.5 46q90 0 168.5 -39.5t126 -118.5t47.5 -190q0 -106 -45.5 -189t-128 -129t-190.5 -46q-90 0 -168.5 39.5t-126 118.5t-47.5 190q0 106 45.5 189zM652.5 501.5q-37.5 73.5 -103 115t-147.5 41.5q-75 0 -133.5 -38t-91.5 -107.5
t-33 -161.5q0 -91 37.5 -164.5t103 -115t147.5 -41.5q75 0 133.5 38t91.5 107.5t33 161.5q0 91 -37.5 164.5zM266.5 753q-10.5 12 -10.5 28t10.5 28t28.5 12t28.5 -12t10.5 -28t-10.5 -28t-28.5 -12t-28.5 12zM494.5 753q-10.5 12 -10.5 28t10.5 28t28.5 12t28.5 -12
t10.5 -28t-10.5 -28t-28.5 -12t-28.5 12z" />
    <glyph glyph-name="Ograve" unicode="&#xd2;" horiz-adv-x="818" 
d="M109.5 525q45.5 83 128 129t190.5 46q90 0 168.5 -39.5t126 -118.5t47.5 -190q0 -106 -45.5 -189t-128 -129t-190.5 -46q-90 0 -168.5 39.5t-126 118.5t-47.5 190q0 106 45.5 189zM652.5 501.5q-37.5 73.5 -103 115t-147.5 41.5q-75 0 -133.5 -38t-91.5 -107.5
t-33 -161.5q0 -91 37.5 -164.5t103 -115t147.5 -41.5q75 0 133.5 38t91.5 107.5t33 161.5q0 91 -37.5 164.5zM365 858l103 -126l-221 126h118z" />
    <glyph glyph-name="Ohungarumlaut" unicode="&#x150;" horiz-adv-x="818" 
d="M109.5 525q45.5 83 128 129t190.5 46q90 0 168.5 -39.5t126 -118.5t47.5 -190q0 -106 -45.5 -189t-128 -129t-190.5 -46q-90 0 -168.5 39.5t-126 118.5t-47.5 190q0 106 45.5 189zM652.5 501.5q-37.5 73.5 -103 115t-147.5 41.5q-75 0 -133.5 -38t-91.5 -107.5
t-33 -161.5q0 -91 37.5 -164.5t103 -115t147.5 -41.5q75 0 133.5 38t91.5 107.5t33 161.5q0 91 -37.5 164.5zM392 858h118l-221 -126zM543 858h118l-221 -126z" />
    <glyph glyph-name="Omacron" unicode="&#x14c;" horiz-adv-x="818" 
d="M109.5 525q45.5 83 128 129t190.5 46q90 0 168.5 -39.5t126 -118.5t47.5 -190q0 -106 -45.5 -189t-128 -129t-190.5 -46q-90 0 -168.5 39.5t-126 118.5t-47.5 190q0 106 45.5 189zM652.5 501.5q-37.5 73.5 -103 115t-147.5 41.5q-75 0 -133.5 -38t-91.5 -107.5
t-33 -161.5q0 -91 37.5 -164.5t103 -115t147.5 -41.5q75 0 133.5 38t91.5 107.5t33 161.5q0 91 -37.5 164.5zM287 815h244v-46h-244v46z" />
    <glyph glyph-name="Oslash" unicode="&#xd8;" horiz-adv-x="818" 
d="M119 -12l-32 29l67 73q-43 44 -66.5 106t-23.5 140q0 106 45.5 189t128 129t190.5 46q61 0 118 -19t102 -55l68 74l31 -28l-68 -74q43 -45 67 -106.5t24 -139.5q0 -106 -45.5 -189t-128 -129t-190.5 -46q-61 0 -118 18.5t-102 54.5zM601 575q-39 40 -90 61.5t-109 21.5
q-75 0 -133.5 -38t-91.5 -107.5t-33 -161.5q0 -59 16 -111.5t46 -93.5zM674 448.5q-16 52.5 -46 93.5l-395 -430q39 -39 89.5 -60.5t109.5 -21.5q75 0 133.5 38t91.5 107.5t33 161.5q0 59 -16 111.5z" />
    <glyph glyph-name="Otilde" unicode="&#xd5;" horiz-adv-x="818" 
d="M109.5 525q45.5 83 128 129t190.5 46q90 0 168.5 -39.5t126 -118.5t47.5 -190q0 -106 -45.5 -189t-128 -129t-190.5 -46q-90 0 -168.5 39.5t-126 118.5t-47.5 190q0 106 45.5 189zM652.5 501.5q-37.5 73.5 -103 115t-147.5 41.5q-75 0 -133.5 -38t-91.5 -107.5
t-33 -161.5q0 -91 37.5 -164.5t103 -115t147.5 -41.5q75 0 133.5 38t91.5 107.5t33 161.5q0 91 -37.5 164.5zM316.5 821.5q18.5 16.5 47.5 16.5t71 -18q32 -13 49 -13q34 0 34 44q0 11 -1 17q19 -17 19 -48q0 -29 -18.5 -45.5t-47.5 -16.5t-71 18q-32 13 -49 13
q-34 0 -34 -44q0 -11 1 -17q-19 17 -19 48q0 29 18.5 45.5z" />
    <glyph glyph-name="OE" unicode="&#x152;" horiz-adv-x="931" 
d="M509 0q-48 -12 -103 -12q-90 0 -168.5 39.5t-126 118.5t-47.5 190q0 106 45.5 189t128 129t190.5 46q50 0 96 -12h326v-100q-18 60 -108 60h-139v-284h172q20 0 34 6.5t21 13.5t8 9v-97q-1 2 -8 9t-20.5 13t-33.5 6h-173v-284h156q45 0 77.5 18.5t46.5 47.5l-18 -106
h-356zM531 100v491q0 22 -3 37q-55 29 -126 29q-75 0 -133.5 -38t-91.5 -107t-33 -161q0 -91 37.5 -164.5t103 -115t147.5 -41.5q53 0 93 17q6 20 6 53z" />
    <glyph glyph-name="P" unicode="P" horiz-adv-x="548" 
d="M488.5 398.5q-27.5 -45.5 -78.5 -71.5t-120 -26q-42 0 -90 9v-218q0 -39 10 -59.5t22 -27.5t12 -5h-159q0 -2 12 5t21.5 27t9.5 60v501q0 40 -9.5 61t-21.5 28.5t-12 5.5h196q51 0 84 -6.5t58 -19.5q45 -23 69 -66.5t24 -93.5q0 -58 -27.5 -103.5zM395 604
q-44 44 -117 44h-78v-299q43 -8 90 -8q70 0 109.5 40.5t39.5 107.5q0 71 -44 115z" />
    <glyph glyph-name="Thorn" unicode="&#xde;" horiz-adv-x="548" 
d="M114 665q-14 19 -28 23h156q-13 -2 -27.5 -21t-14.5 -71v-43h81q51 0 84 -6.5t58 -19.5q45 -23 69 -66.5t24 -93.5q0 -65 -35 -114.5t-97 -71.5q-22 -8 -49.5 -11.5t-74.5 -3.5h-60v-74q0 -50 15 -70t28 -22h-157q13 3 27.5 21.5t14.5 70.5v504q0 50 -14 69zM200 513
v-307h60q42 0 65 4t40 12q36 17 55 51.5t19 80.5q0 71 -44 115t-117 44h-78z" />
    <glyph glyph-name="Q" unicode="Q" horiz-adv-x="834" 
d="M109.5 525q45.5 83 128 129t190.5 46q90 0 168.5 -39.5t126 -118.5t47.5 -190q0 -108 -46.5 -191.5t-130.5 -128.5q43 -43 98 -78.5t103 -56t72 -20.5h6q-17 -8 -44 -13t-53 -5q-53 0 -122.5 35t-142.5 106q-57 -12 -104 -12q-90 0 -168.5 39.5t-126 118.5t-47.5 190
q0 106 45.5 189zM652.5 501.5q-37.5 73.5 -103 115t-147.5 41.5q-75 0 -133.5 -38t-91.5 -107.5t-33 -161.5q0 -91 37.5 -164.5t103 -115t147.5 -41.5q75 0 133.5 38t91.5 107.5t33 161.5q0 91 -37.5 164.5z" />
    <glyph glyph-name="R" unicode="R" horiz-adv-x="620" 
d="M366 367.5q34 21.5 51.5 56t17.5 72.5q0 39 -16.5 73.5t-50.5 56.5t-83 22h-85v-556q0 -40 10 -60.5t22 -27t12 -4.5h-159q0 -2 12 5t21.5 27t9.5 60v500q0 41 -9.5 62.5t-21.5 29t-12 4.5h198q78 0 128.5 -25.5t73 -66t22.5 -88.5q0 -40 -19 -78.5t-54.5 -67
t-82.5 -39.5l-16 -3l176 -224q35 -39 58 -60t33.5 -28t12.5 -8h-117l-272 346h60q46 0 80 21.5z" />
    <glyph glyph-name="Racute" unicode="&#x154;" horiz-adv-x="620" 
d="M366 367.5q34 21.5 51.5 56t17.5 72.5q0 39 -16.5 73.5t-50.5 56.5t-83 22h-85v-556q0 -40 10 -60.5t22 -27t12 -4.5h-159q0 -2 12 5t21.5 27t9.5 60v500q0 41 -9.5 62.5t-21.5 29t-12 4.5h198q78 0 128.5 -25.5t73 -66t22.5 -88.5q0 -40 -19 -78.5t-54.5 -67
t-82.5 -39.5l-16 -3l176 -224q35 -39 58 -60t33.5 -28t12.5 -8h-117l-272 346h60q46 0 80 21.5zM341 858h118l-221 -126z" />
    <glyph glyph-name="Rcaron" unicode="&#x158;" horiz-adv-x="620" 
d="M366 367.5q34 21.5 51.5 56t17.5 72.5q0 39 -16.5 73.5t-50.5 56.5t-83 22h-85v-556q0 -40 10 -60.5t22 -27t12 -4.5h-159q0 -2 12 5t21.5 27t9.5 60v500q0 41 -9.5 62.5t-21.5 29t-12 4.5h198q78 0 128.5 -25.5t73 -66t22.5 -88.5q0 -40 -19 -78.5t-54.5 -67
t-82.5 -39.5l-16 -3l176 -224q35 -39 58 -60t33.5 -28t12.5 -8h-117l-272 346h60q46 0 80 21.5zM433 868l-131 -136l-131 136l131 -59z" />
    <glyph glyph-name="Rcommaaccent" unicode="&#x156;" horiz-adv-x="620" 
d="M366 367.5q34 21.5 51.5 56t17.5 72.5q0 39 -16.5 73.5t-50.5 56.5t-83 22h-85v-556q0 -40 10 -60.5t22 -27t12 -4.5h-159q0 -2 12 5t21.5 27t9.5 60v500q0 41 -9.5 62.5t-21.5 29t-12 4.5h198q78 0 128.5 -25.5t73 -66t22.5 -88.5q0 -40 -19 -78.5t-54.5 -67
t-82.5 -39.5l-16 -3l176 -224q35 -39 58 -60t33.5 -28t12.5 -8h-117l-272 346h60q46 0 80 21.5zM308 -209q16 27 16 60h-6q-22 0 -33 11.5t-11 28.5q0 18 11.5 30.5t31.5 12.5q22 0 38 -18t16 -52q0 -42 -26.5 -74t-75.5 -34q23 8 39 35z" />
    <glyph glyph-name="S" unicode="S" horiz-adv-x="528" 
d="M167 2.5q-48 14.5 -86 40.5v121q26 -67 79.5 -101.5t111.5 -34.5t97 38.5t39 95.5q0 38 -15.5 65t-49.5 50.5t-96 52.5q-87 40 -126.5 83.5t-39.5 105.5q0 53 25.5 94.5t69 64t95.5 22.5q45 0 88 -12.5t80 -35.5v-108q-24 55 -72.5 85.5t-98.5 30.5q-57 0 -92 -37
t-35 -88q0 -37 21 -63.5t51.5 -44.5t85.5 -44q56 -27 92 -50t60 -60t24 -90q0 -60 -28.5 -104t-76 -67.5t-103.5 -23.5q-52 0 -100 14.5z" />
    <glyph glyph-name="Sacute" unicode="&#x15a;" horiz-adv-x="528" 
d="M167 2.5q-48 14.5 -86 40.5v121q26 -67 79.5 -101.5t111.5 -34.5t97 38.5t39 95.5q0 38 -15.5 65t-49.5 50.5t-96 52.5q-87 40 -126.5 83.5t-39.5 105.5q0 53 25.5 94.5t69 64t95.5 22.5q45 0 88 -12.5t80 -35.5v-108q-24 55 -72.5 85.5t-98.5 30.5q-57 0 -92 -37
t-35 -88q0 -37 21 -63.5t51.5 -44.5t85.5 -44q56 -27 92 -50t60 -60t24 -90q0 -60 -28.5 -104t-76 -67.5t-103.5 -23.5q-52 0 -100 14.5zM285 858h118l-221 -126z" />
    <glyph glyph-name="Scaron" unicode="&#x160;" horiz-adv-x="528" 
d="M167 2.5q-48 14.5 -86 40.5v121q26 -67 79.5 -101.5t111.5 -34.5t97 38.5t39 95.5q0 38 -15.5 65t-49.5 50.5t-96 52.5q-87 40 -126.5 83.5t-39.5 105.5q0 53 25.5 94.5t69 64t95.5 22.5q45 0 88 -12.5t80 -35.5v-108q-24 55 -72.5 85.5t-98.5 30.5q-57 0 -92 -37
t-35 -88q0 -37 21 -63.5t51.5 -44.5t85.5 -44q56 -27 92 -50t60 -60t24 -90q0 -60 -28.5 -104t-76 -67.5t-103.5 -23.5q-52 0 -100 14.5zM397 868l-131 -136l-131 136l131 -59z" />
    <glyph glyph-name="Scedilla" unicode="&#x15e;" horiz-adv-x="528" 
d="M311.5 -163.5q-20.5 -19.5 -57.5 -19.5q-23 0 -43.5 10.5t-31.5 31.5q31 -11 53 -11q21 0 32.5 11.5t11.5 27.5q0 15 -11 26.5t-32 11.5h-9l27 63q-100 5 -170 55v121q26 -67 79.5 -101.5t111.5 -34.5t97 38.5t39 95.5q0 38 -15.5 65t-49.5 50.5t-96 52.5
q-87 40 -126.5 83.5t-39.5 105.5q0 53 25.5 94.5t69 64t95.5 22.5q45 0 88 -12.5t80 -35.5v-108q-24 55 -72.5 85.5t-98.5 30.5q-57 0 -92 -37t-35 -88q0 -37 21 -63.5t51.5 -44.5t85.5 -44q56 -27 92 -50t60 -60t24 -90q0 -56 -25 -98.5t-67.5 -66.5t-94.5 -29l-20 -45
q31 -4 47.5 -21.5t16.5 -40.5q0 -26 -20.5 -45.5z" />
    <glyph glyph-name="Scircumflex" unicode="&#x15c;" horiz-adv-x="528" 
d="M167 2.5q-48 14.5 -86 40.5v121q26 -67 79.5 -101.5t111.5 -34.5t97 38.5t39 95.5q0 38 -15.5 65t-49.5 50.5t-96 52.5q-87 40 -126.5 83.5t-39.5 105.5q0 53 25.5 94.5t69 64t95.5 22.5q45 0 88 -12.5t80 -35.5v-108q-24 55 -72.5 85.5t-98.5 30.5q-57 0 -92 -37
t-35 -88q0 -37 21 -63.5t51.5 -44.5t85.5 -44q56 -27 92 -50t60 -60t24 -90q0 -60 -28.5 -104t-76 -67.5t-103.5 -23.5q-52 0 -100 14.5zM269 868l131 -136l-131 59l-131 -59z" />
    <glyph glyph-name="Scommaaccent" unicode="&#x218;" horiz-adv-x="528" 
d="M167 2.5q-48 14.5 -86 40.5v121q26 -67 79.5 -101.5t111.5 -34.5t97 38.5t39 95.5q0 38 -15.5 65t-49.5 50.5t-96 52.5q-87 40 -126.5 83.5t-39.5 105.5q0 53 25.5 94.5t69 64t95.5 22.5q45 0 88 -12.5t80 -35.5v-108q-24 55 -72.5 85.5t-98.5 30.5q-57 0 -92 -37
t-35 -88q0 -37 21 -63.5t51.5 -44.5t85.5 -44q56 -27 92 -50t60 -60t24 -90q0 -60 -28.5 -104t-76 -67.5t-103.5 -23.5q-52 0 -100 14.5zM250 -209q16 27 16 60h-6q-22 0 -33 11.5t-11 28.5q0 18 11.5 30.5t31.5 12.5q22 0 38 -18t16 -52q0 -42 -26.5 -74t-75.5 -34
q23 8 39 35z" />
    <glyph glyph-name="uni1E9E" unicode="&#x1e9e;" horiz-adv-x="734" 
d="M164.5 547q36.5 68 102 104.5t148.5 36.5h224l-169 -301q45 -6 89.5 -28.5t74.5 -64.5t30 -101q0 -54 -27.5 -101t-77.5 -75.5t-114 -28.5q-46 0 -85.5 13t-61.5 30v78q23 -35 62 -58t80 -23q65 0 104.5 44.5t39.5 118.5q0 82 -46 124.5t-129 42.5h-28l158 290h-143
q-100 0 -148 -70t-48 -187v-298q0 -52 15 -71.5t28 -21.5h-158q13 2 28 21t15 72v296q0 90 36.5 158z" />
    <glyph glyph-name="T" unicode="T" horiz-adv-x="552" 
d="M75 631q-29 -17 -42 -43l14 100h474l14 -100q-13 26 -42 43t-73 17h-100v-555q0 -40 10 -61t22 -28t12 -4h-159q0 -3 12 4t21.5 27.5t9.5 61.5v555h-100q-44 0 -73 -17z" />
    <glyph glyph-name="Tbar" unicode="&#x166;" horiz-adv-x="552" 
d="M320 93q0 -52 15 -71.5t28 -21.5h-156q13 2 27 21t14 72v231h-86v40h86v284h-100q-44 0 -73 -17t-42 -43l14 100h474l14 -100q-13 26 -42 43t-73 17h-100v-284h86v-40h-86v-231z" />
    <glyph glyph-name="Tcaron" unicode="&#x164;" horiz-adv-x="552" 
d="M75 631q-29 -17 -42 -43l14 100h474l14 -100q-13 26 -42 43t-73 17h-100v-555q0 -40 10 -61t22 -28t12 -4h-159q0 -3 12 4t21.5 27.5t9.5 61.5v555h-100q-44 0 -73 -17zM405 868l-131 -136l-131 136l131 -59z" />
    <glyph glyph-name="uni0162" unicode="&#x162;" horiz-adv-x="552" 
d="M75 631q-29 -17 -42 -43l14 100h474l14 -100q-13 26 -42 43t-73 17h-100v-555q0 -40 10 -61t22 -28t12 -4h-159q0 -3 12 4t21.5 27.5t9.5 61.5v555h-100q-44 0 -73 -17zM332.5 -155.5q-20.5 -19.5 -57.5 -19.5q-23 0 -43.5 10.5t-31.5 31.5q31 -11 53 -11q21 0 32.5 11.5
t11.5 27.5q0 15 -11 26.5t-32 11.5h-9l29 67h37l-22 -48q31 -4 47.5 -21.5t16.5 -40.5q0 -26 -20.5 -45.5z" />
    <glyph glyph-name="uni021A" unicode="&#x21a;" horiz-adv-x="552" 
d="M75 631q-29 -17 -42 -43l14 100h474l14 -100q-13 26 -42 43t-73 17h-100v-555q0 -40 10 -61t22 -28t12 -4h-159q0 -3 12 4t21.5 27.5t9.5 61.5v555h-100q-44 0 -73 -17zM272 -209q16 27 16 60h-6q-22 0 -33 11.5t-11 28.5q0 18 11.5 30.5t31.5 12.5q22 0 38 -18t16 -52
q0 -42 -26.5 -74t-75.5 -34q23 8 39 35z" />
    <glyph glyph-name="U" unicode="U" horiz-adv-x="712" 
d="M618 239q0 -79 -30 -135.5t-84.5 -86t-126.5 -29.5q-119 0 -184 66t-65 183v358q0 40 -9.5 60.5t-21 27.5t-11.5 5h156q0 2 -11.5 -5t-21 -27t-9.5 -58v-361q0 -97 46.5 -150t136.5 -53q83 0 131 50.5t48 149.5v361q0 40 -10 60.5t-22 27.5t-12 5h144q0 2 -12 -5
t-22 -27.5t-10 -60.5v-356z" />
    <glyph glyph-name="Uacute" unicode="&#xda;" horiz-adv-x="712" 
d="M618 239q0 -79 -30 -135.5t-84.5 -86t-126.5 -29.5q-119 0 -184 66t-65 183v358q0 40 -9.5 60.5t-21 27.5t-11.5 5h156q0 2 -11.5 -5t-21 -27t-9.5 -58v-361q0 -97 46.5 -150t136.5 -53q83 0 131 50.5t48 149.5v361q0 40 -10 60.5t-22 27.5t-12 5h144q0 2 -12 -5
t-22 -27.5t-10 -60.5v-356zM427 858h118l-221 -126z" />
    <glyph glyph-name="Ubreve" unicode="&#x16c;" horiz-adv-x="712" 
d="M618 239q0 -79 -30 -135.5t-84.5 -86t-126.5 -29.5q-119 0 -184 66t-65 183v358q0 40 -9.5 60.5t-21 27.5t-11.5 5h156q0 2 -11.5 -5t-21 -27t-9.5 -58v-361q0 -97 46.5 -150t136.5 -53q83 0 131 50.5t48 149.5v361q0 40 -10 60.5t-22 27.5t-12 5h144q0 2 -12 -5
t-22 -27.5t-10 -60.5v-356zM319 764.5q-24 24.5 -24 57.5q0 24 15 46q-3 -10 -3 -20q0 -24 20 -37.5t50 -13.5t50 13.5t20 37.5q0 10 -3 20q15 -22 15 -46q0 -33 -24 -57.5t-58 -24.5t-58 24.5z" />
    <glyph glyph-name="Ucircumflex" unicode="&#xdb;" horiz-adv-x="712" 
d="M618 239q0 -79 -30 -135.5t-84.5 -86t-126.5 -29.5q-119 0 -184 66t-65 183v358q0 40 -9.5 60.5t-21 27.5t-11.5 5h156q0 2 -11.5 -5t-21 -27t-9.5 -58v-361q0 -97 46.5 -150t136.5 -53q83 0 131 50.5t48 149.5v361q0 40 -10 60.5t-22 27.5t-12 5h144q0 2 -12 -5
t-22 -27.5t-10 -60.5v-356zM378 868l131 -136l-131 59l-131 -59z" />
    <glyph glyph-name="Udieresis" unicode="&#xdc;" horiz-adv-x="712" 
d="M618 239q0 -79 -30 -135.5t-84.5 -86t-126.5 -29.5q-119 0 -184 66t-65 183v358q0 40 -9.5 60.5t-21 27.5t-11.5 5h156q0 2 -11.5 -5t-21 -27t-9.5 -58v-361q0 -97 46.5 -150t136.5 -53q83 0 131 50.5t48 149.5v361q0 40 -10 60.5t-22 27.5t-12 5h144q0 2 -12 -5
t-22 -27.5t-10 -60.5v-356zM234.5 753q-10.5 12 -10.5 28t10.5 28t28.5 12t28.5 -12t10.5 -28t-10.5 -28t-28.5 -12t-28.5 12zM462.5 753q-10.5 12 -10.5 28t10.5 28t28.5 12t28.5 -12t10.5 -28t-10.5 -28t-28.5 -12t-28.5 12z" />
    <glyph glyph-name="Ugrave" unicode="&#xd9;" horiz-adv-x="712" 
d="M618 239q0 -79 -30 -135.5t-84.5 -86t-126.5 -29.5q-119 0 -184 66t-65 183v358q0 40 -9.5 60.5t-21 27.5t-11.5 5h156q0 2 -11.5 -5t-21 -27t-9.5 -58v-361q0 -97 46.5 -150t136.5 -53q83 0 131 50.5t48 149.5v361q0 40 -10 60.5t-22 27.5t-12 5h144q0 2 -12 -5
t-22 -27.5t-10 -60.5v-356zM312 858l103 -126l-221 126h118z" />
    <glyph glyph-name="Uhungarumlaut" unicode="&#x170;" horiz-adv-x="712" 
d="M618 239q0 -79 -30 -135.5t-84.5 -86t-126.5 -29.5q-119 0 -184 66t-65 183v358q0 40 -9.5 60.5t-21 27.5t-11.5 5h156q0 2 -11.5 -5t-21 -27t-9.5 -58v-361q0 -97 46.5 -150t136.5 -53q83 0 131 50.5t48 149.5v361q0 40 -10 60.5t-22 27.5t-12 5h144q0 2 -12 -5
t-22 -27.5t-10 -60.5v-356zM362 858h118l-221 -126zM513 858h118l-221 -126z" />
    <glyph glyph-name="Umacron" unicode="&#x16a;" horiz-adv-x="712" 
d="M618 239q0 -79 -30 -135.5t-84.5 -86t-126.5 -29.5q-119 0 -184 66t-65 183v358q0 40 -9.5 60.5t-21 27.5t-11.5 5h156q0 2 -11.5 -5t-21 -27t-9.5 -58v-361q0 -97 46.5 -150t136.5 -53q83 0 131 50.5t48 149.5v361q0 40 -10 60.5t-22 27.5t-12 5h144q0 2 -12 -5
t-22 -27.5t-10 -60.5v-356zM254 815h244v-46h-244v46z" />
    <glyph glyph-name="Uogonek" unicode="&#x172;" horiz-adv-x="712" 
d="M661 688q-13 -2 -28 -21.5t-15 -71.5v-356q0 -102 -50.5 -166.5t-136.5 -79.5q-32 -28 -46.5 -50t-14.5 -43q0 -18 12.5 -29.5t32.5 -11.5q26 0 63 21q-16 -28 -39.5 -42.5t-48.5 -14.5q-30 0 -50.5 19t-20.5 52q0 50 56 94q-118 1 -182.5 66.5t-64.5 182.5v358
q0 52 -13.5 70.5t-27.5 22.5h154q-12 -2 -26.5 -21t-14.5 -69v-361q0 -97 46.5 -150t136.5 -53q83 0 131 50.5t48 149.5v361q0 52 -14.5 70.5t-28.5 22.5h142z" />
    <glyph glyph-name="Uring" unicode="&#x16e;" horiz-adv-x="712" 
d="M618 239q0 -79 -30 -135.5t-84.5 -86t-126.5 -29.5q-119 0 -184 66t-65 183v358q0 40 -9.5 60.5t-21 27.5t-11.5 5h156q0 2 -11.5 -5t-21 -27t-9.5 -58v-361q0 -97 46.5 -150t136.5 -53q83 0 131 50.5t48 149.5v361q0 40 -10 60.5t-22 27.5t-12 5h144q0 2 -12 -5
t-22 -27.5t-10 -60.5v-356zM330.5 848q20.5 20 48.5 20q29 0 49 -20t20 -49t-20.5 -49.5t-48.5 -20.5t-48.5 20.5t-20.5 49.5t20.5 49zM408.5 827q-12.5 12 -29.5 12t-29.5 -12t-12.5 -28t12.5 -28.5t29.5 -12.5t29.5 12.5t12.5 28.5t-12.5 28z" />
    <glyph glyph-name="Utilde" unicode="&#x168;" horiz-adv-x="712" 
d="M618 239q0 -79 -30 -135.5t-84.5 -86t-126.5 -29.5q-119 0 -184 66t-65 183v358q0 40 -9.5 60.5t-21 27.5t-11.5 5h156q0 2 -11.5 -5t-21 -27t-9.5 -58v-361q0 -97 46.5 -150t136.5 -53q83 0 131 50.5t48 149.5v361q0 40 -10 60.5t-22 27.5t-12 5h144q0 2 -12 -5
t-22 -27.5t-10 -60.5v-356zM280.5 822.5q18.5 16.5 47.5 16.5t71 -18q32 -13 49 -13q34 0 34 44q0 11 -1 17q19 -17 19 -48q0 -29 -18.5 -45.5t-47.5 -16.5t-71 18q-32 13 -49 13q-34 0 -34 -44q0 -11 1 -17q-19 17 -19 48q0 29 18.5 45.5z" />
    <glyph glyph-name="V" unicode="V" horiz-adv-x="628" 
d="M523 669.5q-11 14.5 -34 18.5h168q-13 -2 -35 -23t-46 -78l-253 -611l-257 614q-22 53 -43.5 73.5t-35.5 24.5h167q-27 -7 -27 -35q0 -15 7 -32t8 -20l194 -475l188 462q10 23 10 47q0 20 -11 34.5z" />
    <glyph glyph-name="W" unicode="W" horiz-adv-x="960" 
d="M850 644q0 41 -36 44h155q-15 -3 -38.5 -23t-43.5 -78l-216 -611l-193 554l-199 -554l-197 614q-26 84 -76 98h166q-28 -5 -28 -33q0 -14 12 -50l11 -35l126 -417l203 554l193 -550l149 431q12 36 12 56z" />
    <glyph glyph-name="Wacute" unicode="&#x1e82;" horiz-adv-x="960" 
d="M850 644q0 41 -36 44h155q-15 -3 -38.5 -23t-43.5 -78l-216 -611l-193 554l-199 -554l-197 614q-26 84 -76 98h166q-28 -5 -28 -33q0 -14 12 -50l11 -35l126 -417l203 554l193 -550l149 431q12 36 12 56zM565 858h118l-221 -126z" />
    <glyph glyph-name="Wcircumflex" unicode="&#x174;" horiz-adv-x="960" 
d="M850 644q0 41 -36 44h155q-15 -3 -38.5 -23t-43.5 -78l-216 -611l-193 554l-199 -554l-197 614q-26 84 -76 98h166q-28 -5 -28 -33q0 -14 12 -50l11 -35l126 -417l203 554l193 -550l149 431q12 36 12 56zM495 868l131 -136l-131 59l-131 -59z" />
    <glyph glyph-name="Wdieresis" unicode="&#x1e84;" horiz-adv-x="960" 
d="M850 644q0 41 -36 44h155q-15 -3 -38.5 -23t-43.5 -78l-216 -611l-193 554l-199 -554l-197 614q-26 84 -76 98h166q-28 -5 -28 -33q0 -14 12 -50l11 -35l126 -417l203 554l193 -550l149 431q12 36 12 56zM351.5 753q-10.5 12 -10.5 28t10.5 28t28.5 12t28.5 -12t10.5 -28
t-10.5 -28t-28.5 -12t-28.5 12zM579.5 753q-10.5 12 -10.5 28t10.5 28t28.5 12t28.5 -12t10.5 -28t-10.5 -28t-28.5 -12t-28.5 12z" />
    <glyph glyph-name="Wgrave" unicode="&#x1e80;" horiz-adv-x="960" 
d="M850 644q0 41 -36 44h155q-15 -3 -38.5 -23t-43.5 -78l-216 -611l-193 554l-199 -554l-197 614q-26 84 -76 98h166q-28 -5 -28 -33q0 -14 12 -50l11 -35l126 -417l203 554l193 -550l149 431q12 36 12 56zM430 858l103 -126l-221 126h118z" />
    <glyph glyph-name="X" unicode="X" horiz-adv-x="716" 
d="M531 18q0 18 -15 40.5l-17 25.5l-140 216l-157 -210q-15 -20 -23.5 -35.5t-8.5 -28.5q0 -22 32 -26h-150q0 -2 12 5t34.5 28.5t54.5 64.5l182 241l-161 249q-28 43 -50 65t-36 29.5t-14 5.5h167q-19 -4 -19 -19t22 -49l139 -216l145 192q31 41 31 66q0 23 -30 26h149
q0 1 -12.5 -4.5t-32 -23t-44.5 -51.5l-182 -243l161 -250q32 -50 57 -75.5t40 -34t15 -6.5h-167q18 3 18 18z" />
    <glyph glyph-name="Y" unicode="Y" horiz-adv-x="560" 
d="M582 688q-10 -2 -32 -22t-53 -74l-173 -297v-202q0 -51 14 -71t26 -22h-152q12 2 26 21.5t14 71.5v203l-171 297q-30 52 -52 71.5t-35 23.5h168q-25 -5 -25 -32q0 -9 6 -21.5t19 -35.5l145 -255l145 251q17 28 17 57q0 19 -11.5 26.5t-22.5 9.5h147z" />
    <glyph glyph-name="Yacute" unicode="&#xdd;" horiz-adv-x="560" 
d="M582 688q-10 -2 -32 -22t-53 -74l-173 -297v-202q0 -51 14 -71t26 -22h-152q12 2 26 21.5t14 71.5v203l-171 297q-30 52 -52 71.5t-35 23.5h168q-25 -5 -25 -32q0 -9 6 -21.5t19 -35.5l145 -255l145 251q17 28 17 57q0 19 -11.5 26.5t-22.5 9.5h147zM317 858h118
l-221 -126z" />
    <glyph glyph-name="Ycircumflex" unicode="&#x176;" horiz-adv-x="560" 
d="M582 688q-10 -2 -32 -22t-53 -74l-173 -297v-202q0 -51 14 -71t26 -22h-152q12 2 26 21.5t14 71.5v203l-171 297q-30 52 -52 71.5t-35 23.5h168q-25 -5 -25 -32q0 -9 6 -21.5t19 -35.5l145 -255l145 251q17 28 17 57q0 19 -11.5 26.5t-22.5 9.5h147zM298 867l131 -136
l-131 59l-131 -59z" />
    <glyph glyph-name="Ydieresis" unicode="&#x178;" horiz-adv-x="560" 
d="M582 688q-10 -2 -32 -22t-53 -74l-173 -297v-202q0 -51 14 -71t26 -22h-152q12 2 26 21.5t14 71.5v203l-171 297q-30 52 -52 71.5t-35 23.5h168q-25 -5 -25 -32q0 -9 6 -21.5t19 -35.5l145 -255l145 251q17 28 17 57q0 19 -11.5 26.5t-22.5 9.5h147zM153.5 753
q-10.5 12 -10.5 28t10.5 28t28.5 12t28.5 -12t10.5 -28t-10.5 -28t-28.5 -12t-28.5 12zM381.5 753q-10.5 12 -10.5 28t10.5 28t28.5 12t28.5 -12t10.5 -28t-10.5 -28t-28.5 -12t-28.5 12z" />
    <glyph glyph-name="Z" unicode="Z" horiz-adv-x="652" 
d="M80 588v100h508l-416 -648h308q45 0 77.5 18.5t46.5 47.5l-18 -106h-528l417 648h-287q-90 0 -108 -60z" />
    <glyph glyph-name="Zacute" unicode="&#x179;" horiz-adv-x="652" 
d="M80 588v100h508l-416 -648h308q45 0 77.5 18.5t46.5 47.5l-18 -106h-528l417 648h-287q-90 0 -108 -60zM367 858h118l-221 -126z" />
    <glyph glyph-name="Zcaron" unicode="&#x17d;" horiz-adv-x="652" 
d="M80 588v100h508l-416 -648h308q45 0 77.5 18.5t46.5 47.5l-18 -106h-528l417 648h-287q-90 0 -108 -60zM449 868l-131 -136l-131 136l131 -59z" />
    <glyph glyph-name="Zdotaccent" unicode="&#x17b;" horiz-adv-x="652" 
d="M80 588v100h508l-416 -648h308q45 0 77.5 18.5t46.5 47.5l-18 -106h-528l417 648h-287q-90 0 -108 -60zM298.5 767.5q-12.5 14.5 -12.5 33.5t12.5 33.5t34.5 14.5t34.5 -14.5t12.5 -33.5t-12.5 -33.5t-34.5 -14.5t-34.5 14.5z" />
    <glyph glyph-name="a" unicode="a" horiz-adv-x="400" 
d="M287 5q-22 16 -25 37q-18 -26 -47.5 -40t-58.5 -14q-46 0 -77 26.5t-31 69.5q0 111 208 111v11q0 55 -16 81q-22 37 -72 37q-39 0 -64.5 -23t-25.5 -60q-6 10 -9.5 18t-3.5 22q0 36 34 63.5t89 27.5q78 0 111 -52q11 -16 16 -40t5 -63v-119q0 -31 17.5 -48t49.5 -17h13
l-59 -45q-32 1 -54 17zM148 145q-28 -20 -28 -54q0 -28 15 -44t40 -16q19 0 36 9t29 25q16 21 16 57v43q-80 0 -108 -20z" />
    <glyph glyph-name="aacute" unicode="&#xe1;" horiz-adv-x="400" 
d="M287 5q-22 16 -25 37q-18 -26 -47.5 -40t-58.5 -14q-46 0 -77 26.5t-31 69.5q0 111 208 111v11q0 55 -16 81q-22 37 -72 37q-39 0 -64.5 -23t-25.5 -60q-6 10 -9.5 18t-3.5 22q0 36 34 63.5t89 27.5q78 0 111 -52q11 -16 16 -40t5 -63v-119q0 -31 17.5 -48t49.5 -17h13
l-59 -45q-32 1 -54 17zM148 145q-28 -20 -28 -54q0 -28 15 -44t40 -16q19 0 36 9t29 25q16 21 16 57v43q-80 0 -108 -20zM214 637h89l-162 -190z" />
    <glyph glyph-name="abreve" unicode="&#x103;" horiz-adv-x="400" 
d="M287 5q-22 16 -25 37q-18 -26 -47.5 -40t-58.5 -14q-46 0 -77 26.5t-31 69.5q0 111 208 111v11q0 55 -16 81q-22 37 -72 37q-39 0 -64.5 -23t-25.5 -60q-6 10 -9.5 18t-3.5 22q0 36 34 63.5t89 27.5q78 0 111 -52q11 -16 16 -40t5 -63v-119q0 -31 17.5 -48t49.5 -17h13
l-59 -45q-32 1 -54 17zM148 145q-28 -20 -28 -54q0 -28 15 -44t40 -16q19 0 36 9t29 25q16 21 16 57v43q-80 0 -108 -20zM123 594.5q4 16.5 11 25.5q-4 -12 -4 -22q0 -25 21.5 -42.5t49.5 -17.5t49.5 17.5t21.5 42.5q0 10 -4 22q7 -9 11 -25.5t4 -29.5q0 -32 -23 -58
t-59 -26t-59 26t-23 58q0 13 4 29.5z" />
    <glyph glyph-name="acircumflex" unicode="&#xe2;" horiz-adv-x="400" 
d="M287 5q-22 16 -25 37q-18 -26 -47.5 -40t-58.5 -14q-46 0 -77 26.5t-31 69.5q0 111 208 111v11q0 55 -16 81q-22 37 -72 37q-39 0 -64.5 -23t-25.5 -60q-6 10 -9.5 18t-3.5 22q0 36 34 63.5t89 27.5q78 0 111 -52q11 -16 16 -40t5 -63v-119q0 -31 17.5 -48t49.5 -17h13
l-59 -45q-32 1 -54 17zM148 145q-28 -20 -28 -54q0 -28 15 -44t40 -16q19 0 36 9t29 25q16 21 16 57v43q-80 0 -108 -20zM199 647l111 -190l-111 96l-111 -96z" />
    <glyph glyph-name="adieresis" unicode="&#xe4;" horiz-adv-x="400" 
d="M287 5q-22 16 -25 37q-18 -26 -47.5 -40t-58.5 -14q-46 0 -77 26.5t-31 69.5q0 111 208 111v11q0 55 -16 81q-22 37 -72 37q-39 0 -64.5 -23t-25.5 -60q-6 10 -9.5 18t-3.5 22q0 36 34 63.5t89 27.5q78 0 111 -52q11 -16 16 -40t5 -63v-119q0 -31 17.5 -48t49.5 -17h13
l-59 -45q-32 1 -54 17zM148 145q-28 -20 -28 -54q0 -28 15 -44t40 -16q19 0 36 9t29 25q16 21 16 57v43q-80 0 -108 -20zM92.5 500q-10.5 12 -10.5 28t10.5 28t28.5 12t28.5 -12t10.5 -28t-10.5 -28t-28.5 -12t-28.5 12zM248.5 500q-10.5 12 -10.5 28t10.5 28t28.5 12
t28.5 -12t10.5 -28t-10.5 -28t-28.5 -12t-28.5 12z" />
    <glyph glyph-name="agrave" unicode="&#xe0;" horiz-adv-x="400" 
d="M287 5q-22 16 -25 37q-18 -26 -47.5 -40t-58.5 -14q-46 0 -77 26.5t-31 69.5q0 111 208 111v11q0 55 -16 81q-22 37 -72 37q-39 0 -64.5 -23t-25.5 -60q-6 10 -9.5 18t-3.5 22q0 36 34 63.5t89 27.5q78 0 111 -52q11 -16 16 -40t5 -63v-119q0 -31 17.5 -48t49.5 -17h13
l-59 -45q-32 1 -54 17zM148 145q-28 -20 -28 -54q0 -28 15 -44t40 -16q19 0 36 9t29 25q16 21 16 57v43q-80 0 -108 -20zM187 637l73 -190l-162 190h89z" />
    <glyph glyph-name="amacron" unicode="&#x101;" horiz-adv-x="400" 
d="M287 5q-22 16 -25 37q-18 -26 -47.5 -40t-58.5 -14q-46 0 -77 26.5t-31 69.5q0 111 208 111v11q0 55 -16 81q-22 37 -72 37q-39 0 -64.5 -23t-25.5 -60q-6 10 -9.5 18t-3.5 22q0 36 34 63.5t89 27.5q78 0 111 -52q11 -16 16 -40t5 -63v-119q0 -31 17.5 -48t49.5 -17h13
l-59 -45q-32 1 -54 17zM148 145q-28 -20 -28 -54q0 -28 15 -44t40 -16q19 0 36 9t29 25q16 21 16 57v43q-80 0 -108 -20zM78 560h244v-46h-244v46z" />
    <glyph glyph-name="aogonek" unicode="&#x105;" horiz-adv-x="400" 
d="M303 -129.5q13 -11.5 35 -11.5q30 0 62 21q-16 -28 -40 -42.5t-50 -14.5q-30 0 -50.5 19t-20.5 52q0 30 18.5 56t47.5 46q-19 7 -30 19.5t-13 26.5q-18 -26 -47.5 -40t-58.5 -14q-44 0 -76 26.5t-32 69.5q0 111 208 111q0 33 -2.5 52.5t-11.5 35.5q-10 20 -30.5 30.5
t-44.5 10.5q-40 0 -63.5 -23.5t-25.5 -56.5q-4 5 -8 17.5t-4 22.5q0 22 14.5 42t42.5 33t68 13q59 0 94 -34t35 -95v-145q0 -31 17.5 -48t49.5 -17h13q-110 -71 -110 -131q0 -20 13 -31.5zM148 144.5q-28 -20.5 -28 -54.5q0 -27 15 -43t41 -16q31 0 55.5 23t24.5 62v49
q-80 0 -108 -20.5z" />
    <glyph glyph-name="aring" unicode="&#xe5;" horiz-adv-x="400" 
d="M287 5q-22 16 -25 37q-18 -26 -47.5 -40t-58.5 -14q-46 0 -77 26.5t-31 69.5q0 111 208 111v11q0 55 -16 81q-22 37 -72 37q-39 0 -64.5 -23t-25.5 -60q-6 10 -9.5 18t-3.5 22q0 36 34 63.5t89 27.5q78 0 111 -52q11 -16 16 -40t5 -63v-119q0 -31 17.5 -48t49.5 -17h13
l-59 -45q-32 1 -54 17zM148 145q-28 -20 -28 -54q0 -28 15 -44t40 -16q19 0 36 9t29 25q16 21 16 57v43q-80 0 -108 -20zM143.5 577q20.5 20 48.5 20q29 0 49 -20t20 -49t-20.5 -49.5t-48.5 -20.5t-48.5 20.5t-20.5 49.5t20.5 49zM221.5 556q-12.5 12 -29.5 12t-29.5 -12
t-12.5 -28t12.5 -28.5t29.5 -12.5t29.5 12.5t12.5 28.5t-12.5 28z" />
    <glyph glyph-name="atilde" unicode="&#xe3;" horiz-adv-x="400" 
d="M287 5q-22 16 -25 37q-18 -26 -47.5 -40t-58.5 -14q-46 0 -77 26.5t-31 69.5q0 111 208 111v11q0 55 -16 81q-22 37 -72 37q-39 0 -64.5 -23t-25.5 -60q-6 10 -9.5 18t-3.5 22q0 36 34 63.5t89 27.5q78 0 111 -52q11 -16 16 -40t5 -63v-119q0 -31 17.5 -48t49.5 -17h13
l-59 -45q-32 1 -54 17zM148 145q-28 -20 -28 -54q0 -28 15 -44t40 -16q19 0 36 9t29 25q16 21 16 57v43q-80 0 -108 -20zM94.5 560.5q18.5 16.5 47.5 16.5t71 -18q32 -13 49 -13q34 0 34 44q0 11 -1 17q19 -17 19 -48q0 -29 -18.5 -45.5t-47.5 -16.5t-71 18q-32 13 -49 13
q-34 0 -34 -44q0 -11 1 -17q-19 17 -19 48q0 29 18.5 45.5z" />
    <glyph glyph-name="ae" unicode="&#xe6;" horiz-adv-x="600" 
d="M364 82.5q38 -35.5 87 -35.5q31 0 60 15.5t49 45.5q-11 -59 -48 -89.5t-85 -30.5q-43 0 -83.5 23t-61.5 63q-11 -38 -43 -62t-79 -24q-52 0 -82 27t-30 68q0 33 20 58t75 40q48 12 114 23q0 119 -85 119q-47 0 -70.5 -24.5t-23.5 -58.5q-4 5 -7.5 16.5t-3.5 21.5
q0 42 32.5 68t84.5 26q45 0 75.5 -19.5t42.5 -50.5q18 35 49 52.5t67 17.5q56 0 96.5 -40.5t44.5 -116.5q-128 -16 -240 -33q7 -64 45 -99.5zM483 237q-1 49 -22 75t-54 26q-36 0 -62 -33t-27 -91zM164 153q-48 -16 -48 -67q0 -25 15.5 -40t41.5 -15q33 0 53 18
q16 14 23.5 34t7.5 55v35q-67 -11 -93 -20z" />
    <glyph glyph-name="b" unicode="b" 
d="M66.5 672.5q-13.5 15.5 -30.5 15.5h-6l114 52v-433q12 20 43.5 42.5t82.5 22.5q44 0 79 -22t55 -61t20 -87q0 -61 -25 -108t-65 -75q-45 -31 -102 -31q-40 0 -85 17q-21 8 -32 8q-17 0 -35 -20v622q0 42 -13.5 57.5zM151 70q7 -20 24 -30q25 -16 64 -16q48 0 80.5 40.5
t32.5 107.5q0 63 -29.5 109.5t-85.5 46.5q-21 0 -43 -11.5t-36 -31.5t-14 -45v-118q0 -32 7 -52z" />
    <glyph glyph-name="c" unicode="c" horiz-adv-x="400" 
d="M122.5 14q-40.5 26 -61.5 69t-21 91q0 50 21.5 95.5t62.5 74t97 28.5q67 0 97 -29t42 -61l-66 -32q-6 36 -29.5 61t-57.5 25q-49 0 -76 -38t-27 -93q0 -39 17.5 -75.5t50 -59.5t76.5 -23q36 0 68.5 16.5t51.5 44.5q-11 -56 -52 -88t-99 -32q-54 0 -94.5 26z" />
    <glyph glyph-name="cacute" unicode="&#x107;" horiz-adv-x="400" 
d="M122.5 14q-40.5 26 -61.5 69t-21 91q0 50 21.5 95.5t62.5 74t97 28.5q67 0 97 -29t42 -61l-66 -32q-6 36 -29.5 61t-57.5 25q-49 0 -76 -38t-27 -93q0 -39 17.5 -75.5t50 -59.5t76.5 -23q36 0 68.5 16.5t51.5 44.5q-11 -56 -52 -88t-99 -32q-54 0 -94.5 26zM255 637h89
l-162 -190z" />
    <glyph glyph-name="ccaron" unicode="&#x10d;" horiz-adv-x="400" 
d="M122.5 14q-40.5 26 -61.5 69t-21 91q0 50 21.5 95.5t62.5 74t97 28.5q67 0 97 -29t42 -61l-66 -32q-6 36 -29.5 61t-57.5 25q-49 0 -76 -38t-27 -93q0 -39 17.5 -75.5t50 -59.5t76.5 -23q36 0 68.5 16.5t51.5 44.5q-11 -56 -52 -88t-99 -32q-54 0 -94.5 26zM322 647
l-111 -190l-111 190l111 -96z" />
    <glyph glyph-name="ccedilla" unicode="&#xe7;" horiz-adv-x="400" 
d="M247.5 -163.5q-20.5 -19.5 -57.5 -19.5q-23 0 -43.5 10.5t-31.5 31.5q31 -11 53 -11q21 0 32.5 11.5t11.5 27.5q0 15 -11 26.5t-32 11.5h-9l28 65q-68 10 -108 63t-40 121q0 50 21.5 95.5t62.5 74t97 28.5q67 0 97 -29t42 -61l-66 -32q-6 36 -29.5 61t-57.5 25
q-49 0 -76 -38t-27 -93q0 -39 17.5 -75.5t50 -59.5t76.5 -23q36 0 68.5 16.5t51.5 44.5q-11 -55 -49.5 -86.5t-94.5 -33.5l-20 -44q31 -4 47.5 -21.5t16.5 -40.5q0 -26 -20.5 -45.5z" />
    <glyph glyph-name="ccircumflex" unicode="&#x109;" horiz-adv-x="400" 
d="M122.5 14q-40.5 26 -61.5 69t-21 91q0 50 21.5 95.5t62.5 74t97 28.5q67 0 97 -29t42 -61l-66 -32q-6 36 -29.5 61t-57.5 25q-49 0 -76 -38t-27 -93q0 -39 17.5 -75.5t50 -59.5t76.5 -23q36 0 68.5 16.5t51.5 44.5q-11 -56 -52 -88t-99 -32q-54 0 -94.5 26zM209 647
l111 -190l-111 96l-111 -96z" />
    <glyph glyph-name="cdotaccent" unicode="&#x10b;" horiz-adv-x="400" 
d="M122.5 14q-40.5 26 -61.5 69t-21 91q0 50 21.5 95.5t62.5 74t97 28.5q67 0 97 -29t42 -61l-66 -32q-6 36 -29.5 61t-57.5 25q-49 0 -76 -38t-27 -93q0 -39 17.5 -75.5t50 -59.5t76.5 -23q36 0 68.5 16.5t51.5 44.5q-11 -56 -52 -88t-99 -32q-54 0 -94.5 26zM173.5 507.5
q-12.5 14.5 -12.5 33.5t12.5 33.5t34.5 14.5t34.5 -14.5t12.5 -33.5t-12.5 -33.5t-34.5 -14.5t-34.5 14.5z" />
    <glyph glyph-name="d" unicode="d" 
d="M320 615q0 42 -13.5 57.5t-30.5 15.5h-6l114 52v-627q0 -42 13.5 -57.5t30.5 -15.5h6l-114 -52v65q-12 -20 -43.5 -42.5t-82.5 -22.5q-44 0 -79 22t-55 61t-20 87q0 61 25 108t65 75q45 31 98 31q35 0 58 -9.5t34 -17.5v270zM141.5 78.5q29.5 -46.5 85.5 -46.5
q21 0 43 11.5t36 31.5t14 45v118q0 32 -7.5 52t-23.5 30q-25 16 -61 16q-50 0 -83 -40.5t-33 -107.5q0 -63 29.5 -109.5z" />
    <glyph glyph-name="eth" unicode="&#xf0;" 
d="M129.5 13.5q-42.5 24.5 -66 66t-23.5 91.5q0 54 24.5 99.5t68.5 72t100 26.5q30 0 60 -18t48 -52l5 3q-11 88 -57.5 173.5t-99.5 133.5l-68 -34l-15 28l56 28q-42 33 -82 54l96 16q28 -12 51 -34l72 36l16 -30l-65 -30q77 -71 122.5 -175.5t45.5 -219.5q0 -125 -52 -192
t-141 -67q-53 0 -95.5 24.5zM140 294.5q-28 -38.5 -28 -94.5q0 -42 15.5 -83t44.5 -67t67 -26q50 0 77 43.5t27 101.5q0 66 -32.5 115t-89.5 49q-53 0 -81 -38.5z" />
    <glyph glyph-name="dcaron" unicode="&#x10f;" 
d="M320 615q0 42 -13.5 57.5t-30.5 15.5h-6l114 52v-627q0 -42 13.5 -57.5t30.5 -15.5h6l-114 -52v65q-12 -20 -43.5 -42.5t-82.5 -22.5q-44 0 -79 22t-55 61t-20 87q0 61 25 108t65 75q45 31 98 31q35 0 58 -9.5t34 -17.5v270zM141.5 78.5q29.5 -46.5 85.5 -46.5
q21 0 43 11.5t36 31.5t14 45v118q0 32 -7.5 52t-23.5 30q-25 16 -61 16q-50 0 -83 -40.5t-33 -107.5q0 -63 29.5 -109.5zM479 700h69l-101 -187z" />
    <glyph glyph-name="dcroat" unicode="&#x111;" 
d="M384 113q0 -42 13.5 -57.5t30.5 -15.5h6l-114 -52v65q-12 -20 -43.5 -42.5t-82.5 -22.5q-44 0 -79 22t-55 61t-20 87q0 61 25 108t65 75q45 31 98 31q35 0 58 -9.5t34 -17.5v228h-119v46h119q-1 39 -14.5 54t-29.5 15h-6l114 52v-121h61v-46h-61v-460zM141.5 78.5
q29.5 -46.5 85.5 -46.5q21 0 43 11.5t36 31.5t14 45v118q0 32 -7.5 52t-23.5 30q-25 16 -61 16q-50 0 -83 -40.5t-33 -107.5q0 -63 29.5 -109.5z" />
    <glyph glyph-name="e" unicode="e" horiz-adv-x="400" 
d="M120 14.5q-39 26.5 -59.5 69t-20.5 90.5q0 62 24.5 107t63.5 68t81 23q60 0 103.5 -43.5t47.5 -120.5h-260q0 -48 18 -84.5t48.5 -56t66.5 -19.5q94 0 127 60q-9 -54 -49 -87t-98 -33q-54 0 -93 26.5zM135 311.5q-28 -27.5 -34 -71.5h182q0 46 -24.5 72.5t-56.5 26.5
q-39 0 -67 -27.5z" />
    <glyph glyph-name="eacute" unicode="&#xe9;" horiz-adv-x="400" 
d="M120 14.5q-39 26.5 -59.5 69t-20.5 90.5q0 62 24.5 107t63.5 68t81 23q60 0 103.5 -43.5t47.5 -120.5h-260q0 -48 18 -84.5t48.5 -56t66.5 -19.5q94 0 127 60q-9 -54 -49 -87t-98 -33q-54 0 -93 26.5zM135 311.5q-28 -27.5 -34 -71.5h182q0 46 -24.5 72.5t-56.5 26.5
q-39 0 -67 -27.5zM244 637h89l-162 -190z" />
    <glyph glyph-name="ebreve" unicode="&#x115;" horiz-adv-x="400" 
d="M120 14.5q-39 26.5 -59.5 69t-20.5 90.5q0 62 24.5 107t63.5 68t81 23q60 0 103.5 -43.5t47.5 -120.5h-260q0 -48 18 -84.5t48.5 -56t66.5 -19.5q94 0 127 60q-9 -54 -49 -87t-98 -33q-54 0 -93 26.5zM135 311.5q-28 -27.5 -34 -71.5h182q0 46 -24.5 72.5t-56.5 26.5
q-39 0 -67 -27.5zM123 594.5q4 16.5 11 25.5q-4 -12 -4 -22q0 -25 21.5 -42.5t49.5 -17.5t49.5 17.5t21.5 42.5q0 10 -4 22q7 -9 11 -25.5t4 -29.5q0 -32 -23 -58t-59 -26t-59 26t-23 58q0 13 4 29.5z" />
    <glyph glyph-name="ecaron" unicode="&#x11b;" horiz-adv-x="400" 
d="M120 14.5q-39 26.5 -59.5 69t-20.5 90.5q0 62 24.5 107t63.5 68t81 23q60 0 103.5 -43.5t47.5 -120.5h-260q0 -48 18 -84.5t48.5 -56t66.5 -19.5q94 0 127 60q-9 -54 -49 -87t-98 -33q-54 0 -93 26.5zM135 311.5q-28 -27.5 -34 -71.5h182q0 46 -24.5 72.5t-56.5 26.5
q-39 0 -67 -27.5zM316 647l-111 -190l-111 190l111 -96z" />
    <glyph glyph-name="ecircumflex" unicode="&#xea;" horiz-adv-x="400" 
d="M120 14.5q-39 26.5 -59.5 69t-20.5 90.5q0 62 24.5 107t63.5 68t81 23q60 0 103.5 -43.5t47.5 -120.5h-260q0 -48 18 -84.5t48.5 -56t66.5 -19.5q94 0 127 60q-9 -54 -49 -87t-98 -33q-54 0 -93 26.5zM135 311.5q-28 -27.5 -34 -71.5h182q0 46 -24.5 72.5t-56.5 26.5
q-39 0 -67 -27.5zM199 647l111 -190l-111 96l-111 -96z" />
    <glyph glyph-name="edieresis" unicode="&#xeb;" horiz-adv-x="400" 
d="M120 14.5q-39 26.5 -59.5 69t-20.5 90.5q0 62 24.5 107t63.5 68t81 23q60 0 103.5 -43.5t47.5 -120.5h-260q0 -48 18 -84.5t48.5 -56t66.5 -19.5q94 0 127 60q-9 -54 -49 -87t-98 -33q-54 0 -93 26.5zM135 311.5q-28 -27.5 -34 -71.5h182q0 46 -24.5 72.5t-56.5 26.5
q-39 0 -67 -27.5zM92.5 500q-10.5 12 -10.5 28t10.5 28t28.5 12t28.5 -12t10.5 -28t-10.5 -28t-28.5 -12t-28.5 12zM248.5 500q-10.5 12 -10.5 28t10.5 28t28.5 12t28.5 -12t10.5 -28t-10.5 -28t-28.5 -12t-28.5 12z" />
    <glyph glyph-name="edotaccent" unicode="&#x117;" horiz-adv-x="400" 
d="M120 14.5q-39 26.5 -59.5 69t-20.5 90.5q0 62 24.5 107t63.5 68t81 23q60 0 103.5 -43.5t47.5 -120.5h-260q0 -48 18 -84.5t48.5 -56t66.5 -19.5q94 0 127 60q-9 -54 -49 -87t-98 -33q-54 0 -93 26.5zM135 311.5q-28 -27.5 -34 -71.5h182q0 46 -24.5 72.5t-56.5 26.5
q-39 0 -67 -27.5zM163.5 507.5q-12.5 14.5 -12.5 33.5t12.5 33.5t34.5 14.5t34.5 -14.5t12.5 -33.5t-12.5 -33.5t-34.5 -14.5t-34.5 14.5z" />
    <glyph glyph-name="egrave" unicode="&#xe8;" horiz-adv-x="400" 
d="M120 14.5q-39 26.5 -59.5 69t-20.5 90.5q0 62 24.5 107t63.5 68t81 23q60 0 103.5 -43.5t47.5 -120.5h-260q0 -48 18 -84.5t48.5 -56t66.5 -19.5q94 0 127 60q-9 -54 -49 -87t-98 -33q-54 0 -93 26.5zM135 311.5q-28 -27.5 -34 -71.5h182q0 46 -24.5 72.5t-56.5 26.5
q-39 0 -67 -27.5zM177 637l73 -190l-162 190h89z" />
    <glyph glyph-name="emacron" unicode="&#x113;" horiz-adv-x="400" 
d="M120 14.5q-39 26.5 -59.5 69t-20.5 90.5q0 62 24.5 107t63.5 68t81 23q60 0 103.5 -43.5t47.5 -120.5h-260q0 -48 18 -84.5t48.5 -56t66.5 -19.5q94 0 127 60q-9 -54 -49 -87t-98 -33q-54 0 -93 26.5zM135 311.5q-28 -27.5 -34 -71.5h182q0 46 -24.5 72.5t-56.5 26.5
q-39 0 -67 -27.5zM78 560h244v-46h-244v46z" />
    <glyph glyph-name="eogonek" unicode="&#x119;" horiz-adv-x="400" 
d="M234.5 -59q-14.5 -20 -14.5 -41q0 -18 12.5 -29.5t32.5 -11.5q26 0 63 21q-16 -28 -39.5 -42.5t-48.5 -14.5q-30 0 -50.5 19t-20.5 52q0 50 65 96q-14 -2 -21 -2q-54 0 -93 26.5t-59.5 69t-20.5 90.5q0 62 24.5 107t63.5 68t81 23q60 0 103.5 -43.5t47.5 -120.5h-260
q0 -48 18 -84.5t48.5 -56t66.5 -19.5q94 0 127 60q-5 -26 -18.5 -49.5t-47.5 -55.5l-16 -15q-29 -27 -43.5 -47zM135 312.5q-28 -26.5 -34 -70.5h182q0 46 -24.5 71.5t-56.5 25.5q-39 0 -67 -26.5z" />
    <glyph glyph-name="f" unicode="f" horiz-adv-x="256" 
d="M291.5 681.5q-25.5 10.5 -51.5 10.5q-50 0 -73 -35.5t-23 -91.5v-201h104v-40h-104v-224q0 -43 9 -65.5t20 -30t11 -4.5h-145q0 -3 11.5 4.5t20.5 30t9 65.5v224h-56v40h56v139q0 70 23.5 123.5t66 83.5t97.5 30q43 0 68 -9v-78q-18 18 -43.5 28.5z" />
    <glyph glyph-name="g" unicode="g" horiz-adv-x="416" 
d="M399 364v-40h-83q36 -44 36 -90q0 -39 -19 -72.5t-54.5 -53.5t-82.5 -20q-24 0 -48 4q-36 -20 -36 -45q0 -10 5 -19t15 -13q14 -6 36 -8.5t46 -3.5t34 -1q78 -3 111 -30t33 -65q0 -40 -25.5 -73.5t-73.5 -53t-111 -19.5q-46 0 -80 13t-52 34t-18 45q0 32 27.5 59.5
t68.5 41.5q-33 2 -52.5 22t-19.5 43q0 25 17 43.5t49 39.5q-36 16 -55 50t-19 72q0 37 18.5 71t55 55.5t86.5 21.5q26 0 54 -8h137zM136 309.5q-24 -26.5 -24 -67.5q0 -51 26.5 -83.5t64.5 -32.5q40 0 62.5 26.5t22.5 70.5q0 50 -26.5 81.5t-64.5 31.5q-37 0 -61 -26.5z
M180 -58q-37 0 -60.5 -23t-23.5 -51q0 -27 30.5 -46.5t81.5 -19.5q61 0 94.5 23t33.5 57q0 30 -32 45t-103 15h-21z" />
    <glyph glyph-name="gbreve" unicode="&#x11f;" horiz-adv-x="416" 
d="M399 364v-40h-83q36 -44 36 -90q0 -39 -19 -72.5t-54.5 -53.5t-82.5 -20q-24 0 -48 4q-36 -20 -36 -45q0 -10 5 -19t15 -13q14 -6 36 -8.5t46 -3.5t34 -1q78 -3 111 -30t33 -65q0 -40 -25.5 -73.5t-73.5 -53t-111 -19.5q-46 0 -80 13t-52 34t-18 45q0 32 27.5 59.5
t68.5 41.5q-33 2 -52.5 22t-19.5 43q0 25 17 43.5t49 39.5q-36 16 -55 50t-19 72q0 37 18.5 71t55 55.5t86.5 21.5q26 0 54 -8h137zM136 309.5q-24 -26.5 -24 -67.5q0 -51 26.5 -83.5t64.5 -32.5q40 0 62.5 26.5t22.5 70.5q0 50 -26.5 81.5t-64.5 31.5q-37 0 -61 -26.5z
M180 -58q-37 0 -60.5 -23t-23.5 -51q0 -27 30.5 -46.5t81.5 -19.5q61 0 94.5 23t33.5 57q0 30 -32 45t-103 15h-21zM121 594.5q4 16.5 11 25.5q-4 -12 -4 -22q0 -25 21.5 -42.5t49.5 -17.5t49.5 17.5t21.5 42.5q0 10 -4 22q7 -9 11 -25.5t4 -29.5q0 -32 -23 -58t-59 -26
t-59 26t-23 58q0 13 4 29.5z" />
    <glyph glyph-name="gcircumflex" unicode="&#x11d;" horiz-adv-x="416" 
d="M399 364v-40h-83q36 -44 36 -90q0 -39 -19 -72.5t-54.5 -53.5t-82.5 -20q-24 0 -48 4q-36 -20 -36 -45q0 -10 5 -19t15 -13q14 -6 36 -8.5t46 -3.5t34 -1q78 -3 111 -30t33 -65q0 -40 -25.5 -73.5t-73.5 -53t-111 -19.5q-46 0 -80 13t-52 34t-18 45q0 32 27.5 59.5
t68.5 41.5q-33 2 -52.5 22t-19.5 43q0 25 17 43.5t49 39.5q-36 16 -55 50t-19 72q0 37 18.5 71t55 55.5t86.5 21.5q26 0 54 -8h137zM136 309.5q-24 -26.5 -24 -67.5q0 -51 26.5 -83.5t64.5 -32.5q40 0 62.5 26.5t22.5 70.5q0 50 -26.5 81.5t-64.5 31.5q-37 0 -61 -26.5z
M180 -58q-37 0 -60.5 -23t-23.5 -51q0 -27 30.5 -46.5t81.5 -19.5q61 0 94.5 23t33.5 57q0 30 -32 45t-103 15h-21zM207 647l111 -190l-111 96l-111 -96z" />
    <glyph glyph-name="gcommaaccent" unicode="&#x123;" horiz-adv-x="416" 
d="M399 364v-40h-83q36 -44 36 -90q0 -39 -19 -72.5t-54.5 -53.5t-82.5 -20q-24 0 -48 4q-36 -20 -36 -45q0 -10 5 -19t15 -13q14 -6 36 -8.5t46 -3.5t34 -1q78 -3 111 -30t33 -65q0 -40 -25.5 -73.5t-73.5 -53t-111 -19.5q-46 0 -80 13t-52 34t-18 45q0 32 27.5 59.5
t68.5 41.5q-33 2 -52.5 22t-19.5 43q0 25 17 43.5t49 39.5q-36 16 -55 50t-19 72q0 37 18.5 71t55 55.5t86.5 21.5q26 0 54 -8h137zM136 309.5q-24 -26.5 -24 -67.5q0 -51 26.5 -83.5t64.5 -32.5q40 0 62.5 26.5t22.5 70.5q0 50 -26.5 81.5t-64.5 31.5q-37 0 -61 -26.5z
M180 -58q-37 0 -60.5 -23t-23.5 -51q0 -27 30.5 -46.5t81.5 -19.5q61 0 94.5 23t33.5 57q0 30 -32 45t-103 15h-21zM206.5 600.5q-13.5 -23.5 -13.5 -51.5h5q19 0 28.5 -10.5t9.5 -24.5q0 -15 -10 -26.5t-27 -11.5q-19 0 -33 16t-14 45q0 37 22.5 65t65.5 30
q-20 -8 -33.5 -31.5z" />
    <glyph glyph-name="gdotaccent" unicode="&#x121;" horiz-adv-x="416" 
d="M399 364v-40h-83q36 -44 36 -90q0 -39 -19 -72.5t-54.5 -53.5t-82.5 -20q-24 0 -48 4q-36 -20 -36 -45q0 -10 5 -19t15 -13q14 -6 36 -8.5t46 -3.5t34 -1q78 -3 111 -30t33 -65q0 -40 -25.5 -73.5t-73.5 -53t-111 -19.5q-46 0 -80 13t-52 34t-18 45q0 32 27.5 59.5
t68.5 41.5q-33 2 -52.5 22t-19.5 43q0 25 17 43.5t49 39.5q-36 16 -55 50t-19 72q0 37 18.5 71t55 55.5t86.5 21.5q26 0 54 -8h137zM136 309.5q-24 -26.5 -24 -67.5q0 -51 26.5 -83.5t64.5 -32.5q40 0 62.5 26.5t22.5 70.5q0 50 -26.5 81.5t-64.5 31.5q-37 0 -61 -26.5z
M180 -58q-37 0 -60.5 -23t-23.5 -51q0 -27 30.5 -46.5t81.5 -19.5q61 0 94.5 23t33.5 57q0 30 -32 45t-103 15h-21zM163.5 507.5q-12.5 14.5 -12.5 33.5t12.5 33.5t34.5 14.5t34.5 -14.5t12.5 -33.5t-12.5 -33.5t-34.5 -14.5t-34.5 14.5z" />
    <glyph glyph-name="h" unicode="h" 
d="M198 355.5q32 16.5 67 16.5q54 0 86.5 -34.5t32.5 -99.5v-139q0 -42 9 -64t20 -30t11 -5h-144q0 -3 11 4.5t20 29.5t9 66v114q0 34 -9 54t-24 33q-23 19 -55 19q-36 0 -62 -23.5t-26 -65.5v-131q0 -43 9 -65t20.5 -30t11.5 -5h-144q0 -3 11 4.5t19.5 30t8.5 65.5v515
q0 42 -13.5 57.5t-30.5 15.5h-6l114 52v-427q22 26 54 42.5z" />
    <glyph glyph-name="hbar" unicode="&#x127;" 
d="M144 313q22 26 54 42.5t67 16.5q54 0 86.5 -34.5t32.5 -99.5v-139q0 -54 13.5 -75.5t25.5 -23.5h-142q12 2 25.5 22.5t13.5 77.5v114q0 34 -9 54t-24 33q-23 19 -55 19q-36 0 -62 -23.5t-26 -65.5v-131q0 -56 14 -77t26 -23h-142q12 2 25 22.5t13 77.5v473h-55v46h55
q-1 39 -14.5 54t-29.5 15h-6l114 52v-121h125v-46h-125v-260z" />
    <glyph glyph-name="hcircumflex" unicode="&#x125;" 
d="M198 355.5q32 16.5 67 16.5q54 0 86.5 -34.5t32.5 -99.5v-139q0 -42 9 -64t20 -30t11 -5h-144q0 -3 11 4.5t20 29.5t9 66v114q0 34 -9 54t-24 33q-23 19 -55 19q-36 0 -62 -23.5t-26 -65.5v-131q0 -43 9 -65t20.5 -30t11.5 -5h-144q0 -3 11 4.5t19.5 30t8.5 65.5v515
q0 42 -13.5 57.5t-30.5 15.5h-6l114 52v-427q22 26 54 42.5zM248 868l131 -136l-131 59l-131 -59z" />
    <glyph glyph-name="i" unicode="i" horiz-adv-x="224" 
d="M66.5 308.5q-13.5 15.5 -30.5 15.5l108 48v-272q0 -44 9 -66t20 -29.5t11 -4.5h-144q0 -3 11 4.5t20 29.5t9 66v151q0 42 -13.5 57.5zM76.5 507.5q-12.5 14.5 -12.5 33.5t12.5 33.5t34.5 14.5t34.5 -14.5t12.5 -33.5t-12.5 -33.5t-34.5 -14.5t-34.5 14.5z" />
    <glyph glyph-name="dotlessi" unicode="&#x131;" horiz-adv-x="224" 
d="M66.5 308.5q-13.5 15.5 -30.5 15.5l108 48v-272q0 -44 9 -66t20 -29.5t11 -4.5h-144q0 -3 11 4.5t20 29.5t9 66v151q0 42 -13.5 57.5z" />
    <glyph glyph-name="iacute" unicode="&#xed;" horiz-adv-x="224" 
d="M66.5 308.5q-13.5 15.5 -30.5 15.5l108 48v-272q0 -44 9 -66t20 -29.5t11 -4.5h-144q0 -3 11 4.5t20 29.5t9 66v151q0 42 -13.5 57.5zM131 637h89l-162 -190z" />
    <glyph glyph-name="ibreve" unicode="&#x12d;" horiz-adv-x="224" 
d="M66.5 308.5q-13.5 15.5 -30.5 15.5l108 48v-272q0 -44 9 -66t20 -29.5t11 -4.5h-144q0 -3 11 4.5t20 29.5t9 66v151q0 42 -13.5 57.5zM32 594.5q4 16.5 11 25.5q-4 -12 -4 -22q0 -25 21.5 -42.5t49.5 -17.5t49.5 17.5t21.5 42.5q0 10 -4 22q7 -9 11 -25.5t4 -29.5
q0 -32 -23 -58t-59 -26t-59 26t-23 58q0 13 4 29.5z" />
    <glyph glyph-name="icircumflex" unicode="&#xee;" horiz-adv-x="224" 
d="M66.5 308.5q-13.5 15.5 -30.5 15.5l108 48v-272q0 -44 9 -66t20 -29.5t11 -4.5h-144q0 -3 11 4.5t20 29.5t9 66v151q0 42 -13.5 57.5zM112 647l111 -190l-111 96l-111 -96z" />
    <glyph glyph-name="idieresis" unicode="&#xef;" horiz-adv-x="224" 
d="M66.5 308.5q-13.5 15.5 -30.5 15.5l108 48v-272q0 -44 9 -66t20 -29.5t11 -4.5h-144q0 -3 11 4.5t20 29.5t9 66v151q0 42 -13.5 57.5zM5.5 500q-10.5 12 -10.5 28t10.5 28t28.5 12t28.5 -12t10.5 -28t-10.5 -28t-28.5 -12t-28.5 12zM161.5 500q-10.5 12 -10.5 28t10.5 28
t28.5 12t28.5 -12t10.5 -28t-10.5 -28t-28.5 -12t-28.5 12z" />
    <glyph glyph-name="igrave" unicode="&#xec;" horiz-adv-x="224" 
d="M66.5 308.5q-13.5 15.5 -30.5 15.5l108 48v-272q0 -44 9 -66t20 -29.5t11 -4.5h-144q0 -3 11 4.5t20 29.5t9 66v151q0 42 -13.5 57.5zM104 637l73 -190l-162 190h89z" />
    <glyph glyph-name="ij" unicode="&#x133;" horiz-adv-x="448" 
d="M66.5 308.5q-13.5 15.5 -30.5 15.5l108 48v-272q0 -44 9 -66t20 -29.5t11 -4.5h-144q0 -3 11 4.5t20 29.5t9 66v151q0 42 -13.5 57.5zM300.5 507.5q-12.5 14.5 -12.5 33.5t12.5 33.5t34.5 14.5t34.5 -14.5t12.5 -33.5t-12.5 -33.5t-34.5 -14.5t-34.5 14.5zM290.5 308.5
q-13.5 15.5 -30.5 15.5l108 48v-466q0 -67 -28.5 -105t-74.5 -38q-28 0 -61 15q51 6 73 27q15 14 21 37.5t6 62.5v346q0 42 -13.5 57.5zM76.5 507.5q-12.5 14.5 -12.5 33.5t12.5 33.5t34.5 14.5t34.5 -14.5t12.5 -33.5t-12.5 -33.5t-34.5 -14.5t-34.5 14.5z" />
    <glyph glyph-name="imacron" unicode="&#x12b;" horiz-adv-x="224" 
d="M66.5 308.5q-13.5 15.5 -30.5 15.5l108 48v-272q0 -44 9 -66t20 -29.5t11 -4.5h-144q0 -3 11 4.5t20 29.5t9 66v151q0 42 -13.5 57.5zM-12 560h244v-46h-244v46z" />
    <glyph glyph-name="iogonek" unicode="&#x12f;" horiz-adv-x="224" 
d="M103 -54.5q-17 -23.5 -17 -45.5q0 -18 12.5 -29.5t32.5 -11.5q26 0 63 21q-16 -28 -39.5 -42.5t-48.5 -14.5q-30 0 -50.5 19t-20.5 52q0 56 73 106h48q-36 -31 -53 -54.5zM66.5 308.5q-13.5 15.5 -30.5 15.5l108 48v-272q0 -44 9 -66t20 -29.5t11 -4.5h-144q0 -3 11 4.5
t20 29.5t9 66v151q0 42 -13.5 57.5zM76.5 507.5q-12.5 14.5 -12.5 33.5t12.5 33.5t34.5 14.5t34.5 -14.5t12.5 -33.5t-12.5 -33.5t-34.5 -14.5t-34.5 14.5z" />
    <glyph glyph-name="itilde" unicode="&#x129;" horiz-adv-x="224" 
d="M66.5 308.5q-13.5 15.5 -30.5 15.5l108 48v-272q0 -44 9 -66t20 -29.5t11 -4.5h-144q0 -3 11 4.5t20 29.5t9 66v151q0 42 -13.5 57.5zM9.5 560.5q18.5 16.5 47.5 16.5t71 -18q32 -13 49 -13q34 0 34 44q0 11 -1 17q19 -17 19 -48q0 -29 -18.5 -45.5t-47.5 -16.5t-71 18
q-32 13 -49 13q-34 0 -34 -44q0 -11 1 -17q-19 17 -19 48q0 29 18.5 45.5z" />
    <glyph glyph-name="j" unicode="j" horiz-adv-x="224" 
d="M76.5 507.5q-12.5 14.5 -12.5 33.5t12.5 33.5t34.5 14.5t34.5 -14.5t12.5 -33.5t-12.5 -33.5t-34.5 -14.5t-34.5 14.5zM66.5 308.5q-13.5 15.5 -30.5 15.5l108 48v-466q0 -67 -28.5 -105t-74.5 -38q-28 0 -61 15q51 6 73 27q15 14 21 37.5t6 62.5v346q0 42 -13.5 57.5z
" />
    <glyph glyph-name="uni0237" unicode="&#x237;" horiz-adv-x="224" 
d="M66.5 308.5q-13.5 15.5 -30.5 15.5l108 48v-466q0 -67 -28.5 -105t-74.5 -38q-28 0 -61 15q51 6 73 27q15 14 21 37.5t6 62.5v346q0 42 -13.5 57.5z" />
    <glyph glyph-name="jcircumflex" unicode="&#x135;" horiz-adv-x="224" 
d="M66.5 308.5q-13.5 15.5 -30.5 15.5l108 48v-466q0 -67 -28.5 -105t-74.5 -38q-28 0 -61 15q51 6 73 27q15 14 21 37.5t6 62.5v346q0 42 -13.5 57.5zM111 647l111 -190l-111 96l-111 -96z" />
    <glyph glyph-name="k" unicode="k" horiz-adv-x="432" 
d="M66.5 672.5q-13.5 15.5 -30.5 15.5h-6l114 52v-544l100 85q22 19 37 37t15 26t-5 12.5t-10 6t-7 1.5h144q-3 -1 -17 -9t-43 -29t-70 -55l-74 -61l119 -123q39 -40 62.5 -55.5t34.5 -15.5h4q-15 -10 -36 -16t-36 -6q-19 0 -37.5 14.5t-46.5 44.5l-15 15l-119 125v-93
q0 -44 9.5 -66t21 -29.5t11.5 -4.5h-144q0 -3 10.5 4.5t19 30t8.5 65.5v515q0 42 -13.5 57.5z" />
    <glyph glyph-name="kcommaaccent" unicode="&#x137;" horiz-adv-x="432" 
d="M66.5 672.5q-13.5 15.5 -30.5 15.5h-6l114 52v-544l100 85q22 19 37 37t15 26t-5 12.5t-10 6t-7 1.5h144q-3 -1 -17 -9t-43 -29t-70 -55l-74 -61l119 -123q39 -40 62.5 -55.5t34.5 -15.5h4q-15 -10 -36 -16t-36 -6q-19 0 -37.5 14.5t-46.5 44.5l-15 15l-119 125v-93
q0 -44 9.5 -66t21 -29.5t11.5 -4.5h-144q0 -3 10.5 4.5t19 30t8.5 65.5v515q0 42 -13.5 57.5zM224 -209q16 27 16 60h-6q-22 0 -33 11.5t-11 28.5q0 18 11.5 30.5t31.5 12.5q22 0 38 -18t16 -52q0 -42 -26.5 -74t-75.5 -34q23 8 39 35z" />
    <glyph glyph-name="kgreenlandic" unicode="&#x138;" horiz-adv-x="432" 
d="M66.5 308.5q-13.5 15.5 -30.5 15.5l108 48v-176l100 85q22 19 37 37t15 26t-5 12.5t-10 6t-7 1.5h144q-3 -1 -17 -9t-43 -29t-70 -55l-74 -61l119 -123q39 -40 62.5 -55.5t34.5 -15.5h4q-15 -10 -36 -16t-36 -6q-19 0 -37.5 14.5t-46.5 44.5l-15 15l-119 125v-93
q0 -44 9.5 -66t21 -29.5t11.5 -4.5h-144q0 -3 10.5 4.5t19 30t8.5 65.5v151q0 42 -13.5 57.5z" />
    <glyph glyph-name="l" unicode="l" horiz-adv-x="224" 
d="M66.5 672.5q-13.5 15.5 -30.5 15.5h-6l114 52v-640q0 -44 9 -66t20 -29.5t11 -4.5h-144q0 -3 11 4.5t20 30t9 65.5v515q0 42 -13.5 57.5z" />
    <glyph glyph-name="lacute" unicode="&#x13a;" horiz-adv-x="224" 
d="M66.5 672.5q-13.5 15.5 -30.5 15.5h-6l114 52v-640q0 -44 9 -66t20 -29.5t11 -4.5h-144q0 -3 11 4.5t20 30t9 65.5v515q0 42 -13.5 57.5zM128 858h118l-221 -126z" />
    <glyph glyph-name="lcaron" unicode="&#x13e;" horiz-adv-x="224" 
d="M66.5 672.5q-13.5 15.5 -30.5 15.5h-6l114 52v-640q0 -44 9 -66t20 -29.5t11 -4.5h-144q0 -3 11 4.5t20 30t9 65.5v515q0 42 -13.5 57.5zM239 700h69l-101 -187z" />
    <glyph glyph-name="lcommaaccent" unicode="&#x13c;" horiz-adv-x="224" 
d="M66.5 672.5q-13.5 15.5 -30.5 15.5h-6l114 52v-640q0 -44 9 -66t20 -29.5t11 -4.5h-144q0 -3 11 4.5t20 30t9 65.5v515q0 42 -13.5 57.5zM97 -209q16 27 16 60h-6q-22 0 -33 11.5t-11 28.5q0 18 11.5 30.5t31.5 12.5q22 0 38 -18t16 -52q0 -42 -26.5 -74t-75.5 -34
q23 8 39 35z" />
    <glyph glyph-name="ldot" unicode="&#x140;" horiz-adv-x="224" 
d="M66.5 672.5q-13.5 15.5 -30.5 15.5h-6l114 52v-640q0 -44 9 -66t20 -29.5t11 -4.5h-144q0 -3 11 4.5t20 30t9 65.5v515q0 42 -13.5 57.5zM245.5 289.5q-12.5 14.5 -12.5 33.5t12.5 33.5t34.5 14.5t34.5 -14.5t12.5 -33.5t-12.5 -33.5t-34.5 -14.5t-34.5 14.5z" />
    <glyph glyph-name="lslash" unicode="&#x142;" horiz-adv-x="224" 
d="M7 246v50l73 56v263q0 42 -13.5 57.5t-30.5 15.5h-6l114 52v-338l69 54v-50l-69 -54v-252q0 -56 13.5 -77t25.5 -23h-142q12 2 25.5 22.5t13.5 77.5v202z" />
    <glyph glyph-name="m" unicode="m" horiz-adv-x="704" 
d="M144 304q25 31 56 49.5t65 18.5q37 0 65.5 -17.5t41.5 -50.5q27 34 61.5 51t71.5 17q54 0 86.5 -34.5t32.5 -99.5v-139q0 -55 14 -76t25 -23h-142q12 2 25.5 23t13.5 77v114q0 34 -9 54t-24 33q-23 19 -55 19q-35 0 -61.5 -23.5t-26.5 -65.5v-131q0 -56 13.5 -77
t25.5 -23h-142q12 2 25.5 23t13.5 77v114q0 34 -9 54t-24 33q-23 19 -55 19q-36 0 -62 -23.5t-26 -65.5v-131q0 -57 14 -77.5t26 -22.5h-142q12 2 25 23t13 77v151q0 42 -13.5 57.5t-30.5 15.5l108 48v-68z" />
    <glyph glyph-name="n" unicode="n" 
d="M198.5 353.5q31.5 18.5 66.5 18.5q54 0 86.5 -34.5t32.5 -99.5v-139q0 -42 9 -64t20 -30t11 -5h-144q0 -3 11 4.5t20 29.5t9 66v114q0 34 -9 54t-24 33q-23 19 -55 19q-36 0 -62 -23.5t-26 -65.5v-131q0 -43 9 -65t20.5 -30t11.5 -5h-144q0 -3 11 4.5t19.5 30t8.5 65.5
v151q0 42 -13.5 57.5t-30.5 15.5l108 48v-68q23 31 54.5 49.5z" />
    <glyph glyph-name="nacute" unicode="&#x144;" 
d="M198.5 353.5q31.5 18.5 66.5 18.5q54 0 86.5 -34.5t32.5 -99.5v-139q0 -42 9 -64t20 -30t11 -5h-144q0 -3 11 4.5t20 29.5t9 66v114q0 34 -9 54t-24 33q-23 19 -55 19q-36 0 -62 -23.5t-26 -65.5v-131q0 -43 9 -65t20.5 -30t11.5 -5h-144q0 -3 11 4.5t19.5 30t8.5 65.5
v151q0 42 -13.5 57.5t-30.5 15.5l108 48v-68q23 31 54.5 49.5zM246 637h89l-162 -190z" />
    <glyph glyph-name="napostrophe" unicode="&#x149;" 
d="M198.5 353.5q31.5 18.5 66.5 18.5q54 0 86.5 -34.5t32.5 -99.5v-139q0 -42 9 -64t20 -30t11 -5h-144q0 -3 11 4.5t20 29.5t9 66v114q0 34 -9 54t-24 33q-23 19 -55 19q-36 0 -62 -23.5t-26 -65.5v-131q0 -43 9 -65t20.5 -30t11.5 -5h-144q0 -3 11 4.5t19.5 30t8.5 65.5
v151q0 42 -13.5 57.5t-30.5 15.5l108 48v-68q23 31 54.5 49.5zM39 531q16 27 16 60h-6q-22 0 -33 11.5t-11 28.5q0 18 11.5 30.5t31.5 12.5q22 0 38 -18t16 -52q0 -42 -26.5 -74t-75.5 -34q23 8 39 35z" />
    <glyph glyph-name="ncaron" unicode="&#x148;" 
d="M198.5 353.5q31.5 18.5 66.5 18.5q54 0 86.5 -34.5t32.5 -99.5v-139q0 -42 9 -64t20 -30t11 -5h-144q0 -3 11 4.5t20 29.5t9 66v114q0 34 -9 54t-24 33q-23 19 -55 19q-36 0 -62 -23.5t-26 -65.5v-131q0 -43 9 -65t20.5 -30t11.5 -5h-144q0 -3 11 4.5t19.5 30t8.5 65.5
v151q0 42 -13.5 57.5t-30.5 15.5l108 48v-68q23 31 54.5 49.5zM344 647l-111 -190l-111 190l111 -96z" />
    <glyph glyph-name="ncommaaccent" unicode="&#x146;" 
d="M198.5 353.5q31.5 18.5 66.5 18.5q54 0 86.5 -34.5t32.5 -99.5v-139q0 -42 9 -64t20 -30t11 -5h-144q0 -3 11 4.5t20 29.5t9 66v114q0 34 -9 54t-24 33q-23 19 -55 19q-36 0 -62 -23.5t-26 -65.5v-131q0 -43 9 -65t20.5 -30t11.5 -5h-144q0 -3 11 4.5t19.5 30t8.5 65.5
v151q0 42 -13.5 57.5t-30.5 15.5l108 48v-68q23 31 54.5 49.5zM220 -209q16 27 16 60h-6q-22 0 -33 11.5t-11 28.5q0 18 11.5 30.5t31.5 12.5q22 0 38 -18t16 -52q0 -42 -26.5 -74t-75.5 -34q23 8 39 35z" />
    <glyph glyph-name="eng" unicode="&#x14b;" 
d="M198.5 353.5q31.5 18.5 66.5 18.5q54 0 86.5 -34.5t32.5 -99.5v-332q0 -67 -28.5 -105t-74.5 -38q-28 0 -61 15l18 3q49 10 65.5 37t16.5 87v309q0 34 -9 54t-24 33q-23 19 -55 19q-36 0 -62 -23.5t-26 -65.5v-131q0 -56 14 -77t26 -23h-142q12 2 25 22.5t13 77.5v151
q0 42 -13.5 57.5t-30.5 15.5l108 48v-68q23 31 54.5 49.5z" />
    <glyph glyph-name="ntilde" unicode="&#xf1;" 
d="M198.5 353.5q31.5 18.5 66.5 18.5q54 0 86.5 -34.5t32.5 -99.5v-139q0 -42 9 -64t20 -30t11 -5h-144q0 -3 11 4.5t20 29.5t9 66v114q0 34 -9 54t-24 33q-23 19 -55 19q-36 0 -62 -23.5t-26 -65.5v-131q0 -43 9 -65t20.5 -30t11.5 -5h-144q0 -3 11 4.5t19.5 30t8.5 65.5
v151q0 42 -13.5 57.5t-30.5 15.5l108 48v-68q23 31 54.5 49.5zM126.5 560.5q18.5 16.5 47.5 16.5t71 -18q32 -13 49 -13q34 0 34 44q0 11 -1 17q19 -17 19 -48q0 -29 -18.5 -45.5t-47.5 -16.5t-71 18q-32 13 -49 13q-34 0 -34 -44q0 -11 1 -17q-19 17 -19 48q0 29 18.5 45.5
z" />
    <glyph glyph-name="o" unicode="o" 
d="M65.5 269.5q25.5 46.5 70.5 74.5t100 28q53 0 96 -24.5t67.5 -66.5t24.5 -92q0 -52 -25.5 -98.5t-70.5 -74.5t-100 -28q-53 0 -96 24.5t-67.5 66.5t-24.5 92q0 52 25.5 98.5zM336 243q-16 41 -45 67t-67 26q-53 0 -82.5 -40t-29.5 -96q0 -42 16 -83t45 -67t67 -26
q53 0 82.5 40t29.5 96q0 42 -16 83z" />
    <glyph glyph-name="oacute" unicode="&#xf3;" 
d="M65.5 269.5q25.5 46.5 70.5 74.5t100 28q53 0 96 -24.5t67.5 -66.5t24.5 -92q0 -52 -25.5 -98.5t-70.5 -74.5t-100 -28q-53 0 -96 24.5t-67.5 66.5t-24.5 92q0 52 25.5 98.5zM336 243q-16 41 -45 67t-67 26q-53 0 -82.5 -40t-29.5 -96q0 -42 16 -83t45 -67t67 -26
q53 0 82.5 40t29.5 96q0 42 -16 83zM266 637h89l-162 -190z" />
    <glyph glyph-name="obreve" unicode="&#x14f;" 
d="M65.5 269.5q25.5 46.5 70.5 74.5t100 28q53 0 96 -24.5t67.5 -66.5t24.5 -92q0 -52 -25.5 -98.5t-70.5 -74.5t-100 -28q-53 0 -96 24.5t-67.5 66.5t-24.5 92q0 52 25.5 98.5zM336 243q-16 41 -45 67t-67 26q-53 0 -82.5 -40t-29.5 -96q0 -42 16 -83t45 -67t67 -26
q53 0 82.5 40t29.5 96q0 42 -16 83zM155 594.5q4 16.5 11 25.5q-4 -12 -4 -22q0 -25 21.5 -42.5t49.5 -17.5t49.5 17.5t21.5 42.5q0 10 -4 22q7 -9 11 -25.5t4 -29.5q0 -32 -23 -58t-59 -26t-59 26t-23 58q0 13 4 29.5z" />
    <glyph glyph-name="ocircumflex" unicode="&#xf4;" 
d="M65.5 269.5q25.5 46.5 70.5 74.5t100 28q53 0 96 -24.5t67.5 -66.5t24.5 -92q0 -52 -25.5 -98.5t-70.5 -74.5t-100 -28q-53 0 -96 24.5t-67.5 66.5t-24.5 92q0 52 25.5 98.5zM336 243q-16 41 -45 67t-67 26q-53 0 -82.5 -40t-29.5 -96q0 -42 16 -83t45 -67t67 -26
q53 0 82.5 40t29.5 96q0 42 -16 83zM232 647l111 -190l-111 96l-111 -96z" />
    <glyph glyph-name="odieresis" unicode="&#xf6;" 
d="M65.5 269.5q25.5 46.5 70.5 74.5t100 28q53 0 96 -24.5t67.5 -66.5t24.5 -92q0 -52 -25.5 -98.5t-70.5 -74.5t-100 -28q-53 0 -96 24.5t-67.5 66.5t-24.5 92q0 52 25.5 98.5zM336 243q-16 41 -45 67t-67 26q-53 0 -82.5 -40t-29.5 -96q0 -42 16 -83t45 -67t67 -26
q53 0 82.5 40t29.5 96q0 42 -16 83zM125.5 500q-10.5 12 -10.5 28t10.5 28t28.5 12t28.5 -12t10.5 -28t-10.5 -28t-28.5 -12t-28.5 12zM281.5 500q-10.5 12 -10.5 28t10.5 28t28.5 12t28.5 -12t10.5 -28t-10.5 -28t-28.5 -12t-28.5 12z" />
    <glyph glyph-name="ograve" unicode="&#xf2;" 
d="M65.5 269.5q25.5 46.5 70.5 74.5t100 28q53 0 96 -24.5t67.5 -66.5t24.5 -92q0 -52 -25.5 -98.5t-70.5 -74.5t-100 -28q-53 0 -96 24.5t-67.5 66.5t-24.5 92q0 52 25.5 98.5zM336 243q-16 41 -45 67t-67 26q-53 0 -82.5 -40t-29.5 -96q0 -42 16 -83t45 -67t67 -26
q53 0 82.5 40t29.5 96q0 42 -16 83zM209 637l73 -190l-162 190h89z" />
    <glyph glyph-name="ohungarumlaut" unicode="&#x151;" 
d="M65.5 269.5q25.5 46.5 70.5 74.5t100 28q53 0 96 -24.5t67.5 -66.5t24.5 -92q0 -52 -25.5 -98.5t-70.5 -74.5t-100 -28q-53 0 -96 24.5t-67.5 66.5t-24.5 92q0 52 25.5 98.5zM336 243q-16 41 -45 67t-67 26q-53 0 -82.5 -40t-29.5 -96q0 -42 16 -83t45 -67t67 -26
q53 0 82.5 40t29.5 96q0 42 -16 83zM205 607h88l-161 -160zM327 607h89l-163 -160z" />
    <glyph glyph-name="omacron" unicode="&#x14d;" 
d="M65.5 269.5q25.5 46.5 70.5 74.5t100 28q53 0 96 -24.5t67.5 -66.5t24.5 -92q0 -52 -25.5 -98.5t-70.5 -74.5t-100 -28q-53 0 -96 24.5t-67.5 66.5t-24.5 92q0 52 25.5 98.5zM336 243q-16 41 -45 67t-67 26q-53 0 -82.5 -40t-29.5 -96q0 -42 16 -83t45 -67t67 -26
q53 0 82.5 40t29.5 96q0 42 -16 83zM110 560h244v-46h-244v46z" />
    <glyph glyph-name="oslash" unicode="&#xf8;" 
d="M80 -12l-27 24l33 36q-46 52 -46 123q0 52 25.5 98.5t70.5 74.5t100 28q65 0 115 -37l34 37l26 -23l-34 -37q47 -52 47 -123q0 -52 -25.5 -98.5t-70.5 -74.5t-100 -28q-66 0 -115 36zM309 290q-34 46 -85 46q-53 0 -82.5 -40t-29.5 -96q0 -53 23 -99zM329 259l-175 -190
q37 -45 86 -45q53 0 82.5 40t29.5 96q0 53 -23 99z" />
    <glyph glyph-name="otilde" unicode="&#xf5;" 
d="M65.5 269.5q25.5 46.5 70.5 74.5t100 28q53 0 96 -24.5t67.5 -66.5t24.5 -92q0 -52 -25.5 -98.5t-70.5 -74.5t-100 -28q-53 0 -96 24.5t-67.5 66.5t-24.5 92q0 52 25.5 98.5zM336 243q-16 41 -45 67t-67 26q-53 0 -82.5 -40t-29.5 -96q0 -42 16 -83t45 -67t67 -26
q53 0 82.5 40t29.5 96q0 42 -16 83zM126.5 560.5q18.5 16.5 47.5 16.5t71 -18q32 -13 49 -13q34 0 34 44q0 11 -1 17q19 -17 19 -48q0 -29 -18.5 -45.5t-47.5 -16.5t-71 18q-32 13 -49 13q-34 0 -34 -44q0 -11 1 -17q-19 17 -19 48q0 29 18.5 45.5z" />
    <glyph glyph-name="oe" unicode="&#x153;" horiz-adv-x="715" 
d="M443 9.5q-37 21.5 -59 57.5q-27 -36 -68 -57.5t-88 -21.5q-53 0 -96 24.5t-67.5 66.5t-24.5 92q0 52 25.5 98.5t70.5 74.5t100 28q47 0 87 -20t66 -55q24 36 60.5 55.5t74.5 19.5q60 0 103.5 -43.5t47.5 -120.5h-260q0 -48 18 -84.5t48.5 -56t66.5 -19.5q94 0 127 60
q-9 -54 -49 -87t-98 -33q-48 0 -85 21.5zM450 311.5q-28 -27.5 -34 -71.5h182q0 46 -24.5 72.5t-56.5 26.5q-39 0 -67 -27.5zM336 243q-16 41 -45 67t-67 26q-53 0 -82.5 -40t-29.5 -96q0 -42 16 -83t45 -67t67 -26q53 0 82.5 40t29.5 96q0 42 -16 83z" />
    <glyph glyph-name="p" unicode="p" 
d="M153 -198q9 -22 20 -29.5t11 -4.5h-144q0 -3 11 4.5t20 30t9 65.5v383q0 42 -13.5 57.5t-30.5 15.5l108 48v-65q12 20 43.5 42.5t82.5 22.5q44 0 79 -22t55 -61t20 -87q0 -61 -25 -108t-65 -75q-45 -31 -98 -31q-35 0 -58 9.5t-34 17.5v-147q0 -44 9 -66zM322.5 281.5
q-29.5 46.5 -85.5 46.5q-21 0 -43 -11.5t-36 -31.5t-14 -45v-118q0 -32 7.5 -52t23.5 -30q25 -16 61 -16q50 0 83 40.5t33 107.5q0 63 -29.5 109.5z" />
    <glyph glyph-name="thorn" unicode="&#xfe;" 
d="M66.5 672.5q-13.5 15.5 -30.5 15.5h-6l114 52v-433q12 20 43.5 42.5t82.5 22.5q44 0 79 -22t55 -61t20 -87q0 -61 -25 -108t-65 -75q-45 -31 -98 -31q-35 0 -58 9.5t-34 17.5v-147q0 -44 9 -66t20 -29.5t11 -4.5h-144q0 -3 11 4.5t20 30t9 65.5v747q0 42 -13.5 57.5z
M322.5 281.5q-29.5 46.5 -85.5 46.5q-21 0 -43 -11.5t-36 -31.5t-14 -45v-118q0 -32 7.5 -52t23.5 -30q25 -16 61 -16q50 0 83 40.5t33 107.5q0 63 -29.5 109.5z" />
    <glyph glyph-name="q" unicode="q" 
d="M276.5 10.5q-31.5 -22.5 -82.5 -22.5q-44 0 -79 22t-55 61t-20 87q0 61 25 108t65 75q45 31 102 31q40 0 85 -17q21 -8 32 -8q17 0 35 20v-499q0 -44 9 -66t20 -29.5t11 -4.5h-144q0 -3 11 4.5t20 30t9 65.5v185q-12 -20 -43.5 -42.5zM313 290q-7 20 -24 30
q-25 16 -64 16q-48 0 -80.5 -40.5t-32.5 -107.5q0 -63 29.5 -109.5t85.5 -46.5q21 0 43 11.5t36 31.5t14 45v118q0 32 -7 52z" />
    <glyph glyph-name="r" unicode="r" horiz-adv-x="320" 
d="M193.5 342.5q34.5 29.5 69.5 29.5q22 0 33 -6v-82q-22 27 -62 27q-42 0 -66 -36.5t-24 -93.5v-81q0 -56 13 -77t25 -23h-141q12 2 25.5 22.5t13.5 77.5v151q0 42 -13.5 57.5t-30.5 15.5l108 48v-91q15 32 49.5 61.5z" />
    <glyph glyph-name="racute" unicode="&#x155;" horiz-adv-x="320" 
d="M193.5 342.5q34.5 29.5 69.5 29.5q22 0 33 -6v-82q-22 27 -62 27q-42 0 -66 -36.5t-24 -93.5v-81q0 -56 13 -77t25 -23h-141q12 2 25.5 22.5t13.5 77.5v151q0 42 -13.5 57.5t-30.5 15.5l108 48v-91q15 32 49.5 61.5zM179 637h89l-162 -190z" />
    <glyph glyph-name="rcaron" unicode="&#x159;" horiz-adv-x="320" 
d="M193.5 342.5q34.5 29.5 69.5 29.5q22 0 33 -6v-82q-22 27 -62 27q-42 0 -66 -36.5t-24 -93.5v-81q0 -56 13 -77t25 -23h-141q12 2 25.5 22.5t13.5 77.5v151q0 42 -13.5 57.5t-30.5 15.5l108 48v-91q15 32 49.5 61.5zM273 647l-111 -190l-111 190l111 -96z" />
    <glyph glyph-name="rcommaaccent" unicode="&#x157;" horiz-adv-x="320" 
d="M193.5 342.5q34.5 29.5 69.5 29.5q22 0 33 -6v-82q-22 27 -62 27q-42 0 -66 -36.5t-24 -93.5v-81q0 -56 13 -77t25 -23h-141q12 2 25.5 22.5t13.5 77.5v151q0 42 -13.5 57.5t-30.5 15.5l108 48v-91q15 32 49.5 61.5zM133 -209q16 27 16 60h-6q-22 0 -33 11.5t-11 28.5
q0 18 11.5 30.5t31.5 12.5q22 0 38 -18t16 -52q0 -42 -26.5 -74t-75.5 -34q23 8 39 35z" />
    <glyph glyph-name="s" unicode="s" horiz-adv-x="344" 
d="M109 -2q-32 10 -53 26v88q19 -47 51.5 -67.5t70.5 -20.5q31 0 50.5 17t19.5 37q0 22 -20 37t-61 34q-53 25 -82 49t-29 65q0 45 34 77t89 32q38 0 66 -9t42 -20l-16 -75q-12 34 -40 51t-59 17q-27 0 -44.5 -16t-17.5 -36q0 -27 21.5 -43t65.5 -35q52 -22 79.5 -44.5
t27.5 -63.5q0 -29 -16 -54t-46.5 -40.5t-70.5 -15.5q-30 0 -62 10z" />
    <glyph glyph-name="sacute" unicode="&#x15b;" horiz-adv-x="344" 
d="M109 -2q-32 10 -53 26v88q19 -47 51.5 -67.5t70.5 -20.5q31 0 50.5 17t19.5 37q0 22 -20 37t-61 34q-53 25 -82 49t-29 65q0 45 34 77t89 32q38 0 66 -9t42 -20l-16 -75q-12 34 -40 51t-59 17q-27 0 -44.5 -16t-17.5 -36q0 -27 21.5 -43t65.5 -35q52 -22 79.5 -44.5
t27.5 -63.5q0 -29 -16 -54t-46.5 -40.5t-70.5 -15.5q-30 0 -62 10zM200 637h89l-162 -190z" />
    <glyph glyph-name="scaron" unicode="&#x161;" horiz-adv-x="344" 
d="M109 -2q-32 10 -53 26v88q19 -47 51.5 -67.5t70.5 -20.5q31 0 50.5 17t19.5 37q0 22 -20 37t-61 34q-53 25 -82 49t-29 65q0 45 34 77t89 32q38 0 66 -9t42 -20l-16 -75q-12 34 -40 51t-59 17q-27 0 -44.5 -16t-17.5 -36q0 -27 21.5 -43t65.5 -35q52 -22 79.5 -44.5
t27.5 -63.5q0 -29 -16 -54t-46.5 -40.5t-70.5 -15.5q-30 0 -62 10zM288 647l-111 -190l-111 190l111 -96z" />
    <glyph glyph-name="scedilla" unicode="&#x15f;" horiz-adv-x="344" 
d="M223.5 -163.5q-20.5 -19.5 -57.5 -19.5q-23 0 -43.5 10.5t-31.5 31.5q31 -11 53 -11q21 0 32.5 11.5t11.5 27.5q0 15 -11 26.5t-32 11.5h-9l27 63q-29 2 -58.5 11.5t-48.5 24.5v88q19 -47 51.5 -67.5t70.5 -20.5q31 0 50.5 17t19.5 37q0 22 -20 37t-61 34q-53 25 -82 49
t-29 65q0 45 34 77t89 32q38 0 66 -9t42 -20l-16 -75q-12 34 -40 51t-59 17q-27 0 -44.5 -16t-17.5 -36q0 -27 21.5 -43t65.5 -35q52 -22 79.5 -44.5t27.5 -63.5q0 -38 -27.5 -68.5t-75.5 -38.5l-21 -47q31 -4 47.5 -21.5t16.5 -40.5q0 -26 -20.5 -45.5z" />
    <glyph glyph-name="scircumflex" unicode="&#x15d;" horiz-adv-x="344" 
d="M109 -2q-32 10 -53 26v88q19 -47 51.5 -67.5t70.5 -20.5q31 0 50.5 17t19.5 37q0 22 -20 37t-61 34q-53 25 -82 49t-29 65q0 45 34 77t89 32q38 0 66 -9t42 -20l-16 -75q-12 34 -40 51t-59 17q-27 0 -44.5 -16t-17.5 -36q0 -27 21.5 -43t65.5 -35q52 -22 79.5 -44.5
t27.5 -63.5q0 -29 -16 -54t-46.5 -40.5t-70.5 -15.5q-30 0 -62 10zM175 647l111 -190l-111 96l-111 -96z" />
    <glyph glyph-name="scommaaccent" unicode="&#x219;" horiz-adv-x="344" 
d="M109 -2q-32 10 -53 26v88q19 -47 51.5 -67.5t70.5 -20.5q31 0 50.5 17t19.5 37q0 22 -20 37t-61 34q-53 25 -82 49t-29 65q0 45 34 77t89 32q38 0 66 -9t42 -20l-16 -75q-12 34 -40 51t-59 17q-27 0 -44.5 -16t-17.5 -36q0 -27 21.5 -43t65.5 -35q52 -22 79.5 -44.5
t27.5 -63.5q0 -29 -16 -54t-46.5 -40.5t-70.5 -15.5q-30 0 -62 10zM160 -209q16 27 16 60h-6q-22 0 -33 11.5t-11 28.5q0 18 11.5 30.5t31.5 12.5q22 0 38 -18t16 -52q0 -42 -26.5 -74t-75.5 -34q23 8 39 35z" />
    <glyph glyph-name="germandbls" unicode="&#xdf;" horiz-adv-x="480" 
d="M258.5 -3q-27.5 4 -49.5 10l11 98q5 -41 36 -58.5t66 -17.5q34 0 53 20t19 53t-24.5 55.5t-71.5 49.5q-48 26 -72.5 49t-24.5 57q0 29 13.5 53.5t43.5 63.5q35 44 53.5 79t18.5 82q0 51 -24.5 79.5t-64.5 28.5q-97 0 -97 -139v-467q0 -40 7.5 -60.5t16.5 -27.5t9 -5h-129
q0 -3 9 4.5t16 28t7 60.5v442q0 66 26 111.5t66.5 68t85.5 22.5q57 0 97.5 -36t40.5 -100q0 -45 -20.5 -80t-59.5 -80q-31 -35 -46 -58.5t-15 -49.5q0 -13 15.5 -25t49.5 -31q41 -22 67.5 -40.5t46 -47t19.5 -67.5q0 -33 -17.5 -63t-50.5 -48t-79 -18q-20 0 -47.5 4z" />
    <glyph glyph-name="longs" unicode="&#x17f;" horiz-adv-x="224" 
d="M153 34.5q9 -22.5 20 -30t11 -4.5h-145q0 -3 11.5 4.5t20.5 30t9 65.5v224h-56v40h56v139q0 70 23.5 123.5t66 83.5t97.5 30q43 0 68 -9v-78q-18 18 -43.5 28.5t-51.5 10.5q-50 0 -73 -35.5t-23 -91.5v-465q0 -43 9 -65.5z" />
    <glyph glyph-name="t" unicode="t" horiz-adv-x="304" 
d="M105 21.5q-25 33.5 -25 80.5v222h-56l120 136v-96h128v-40h-128v-211q0 -38 20 -57.5t46 -19.5q20 0 39 12t31 33q-15 -93 -101 -93q-49 0 -74 33.5z" />
    <glyph glyph-name="tbar" unicode="&#x167;" horiz-adv-x="304" 
d="M105 21.5q-25 33.5 -25 80.5v81h-52v40h52v101h-56l120 136v-96h128v-40h-128v-101h128v-40h-128v-70q0 -38 20 -57.5t46 -19.5q20 0 39 12t31 33q-15 -93 -101 -93q-49 0 -74 33.5z" />
    <glyph glyph-name="tcaron" unicode="&#x165;" horiz-adv-x="304" 
d="M105 21.5q-25 33.5 -25 80.5v222h-56l120 136v-96h128v-40h-128v-211q0 -38 20 -57.5t46 -19.5q20 0 39 12t31 33q-15 -93 -101 -93q-49 0 -74 33.5zM236 700h69l-101 -187z" />
    <glyph glyph-name="uni0163" unicode="&#x163;" horiz-adv-x="304" 
d="M212.5 -155.5q-20.5 -19.5 -57.5 -19.5q-23 0 -43.5 10.5t-31.5 31.5q31 -11 53 -11q21 0 32.5 11.5t11.5 27.5q0 15 -11 26.5t-32 11.5h-9l25 59q-35 9 -52.5 40t-17.5 70v222h-56l120 136v-96h128v-40h-128v-211q0 -38 20 -57.5t46 -19.5q20 0 39 12t31 33
q-15 -89 -95 -93l-16 -36q31 -4 47.5 -21.5t16.5 -40.5q0 -26 -20.5 -45.5z" />
    <glyph glyph-name="uni021B" unicode="&#x21b;" horiz-adv-x="304" 
d="M105 21.5q-25 33.5 -25 80.5v222h-56l120 136v-96h128v-40h-128v-211q0 -38 20 -57.5t46 -19.5q20 0 39 12t31 33q-15 -93 -101 -93q-49 0 -74 33.5zM139 -209q16 27 16 60h-6q-22 0 -33 11.5t-11 28.5q0 18 11.5 30.5t31.5 12.5q22 0 38 -18t16 -52q0 -42 -26.5 -74
t-75.5 -34q23 8 39 35z" />
    <glyph glyph-name="u" unicode="u" 
d="M197 -12q-51 0 -84 33.5t-33 102.5v142q0 41 -12.5 63t-28.5 30t-16 5h121v-225q0 -47 25.5 -72t60.5 -25t62.5 23.5t27.5 61.5v146q0 39 -10 59t-23 27t-13 5h110v-251q0 -42 13.5 -57.5t30.5 -15.5h6l-114 -52v70q-50 -70 -123 -70z" />
    <glyph glyph-name="uacute" unicode="&#xfa;" 
d="M197 -12q-51 0 -84 33.5t-33 102.5v142q0 41 -12.5 63t-28.5 30t-16 5h121v-225q0 -47 25.5 -72t60.5 -25t62.5 23.5t27.5 61.5v146q0 39 -10 59t-23 27t-13 5h110v-251q0 -42 13.5 -57.5t30.5 -15.5h6l-114 -52v70q-50 -70 -123 -70zM266 637h89l-162 -190z" />
    <glyph glyph-name="ubreve" unicode="&#x16d;" 
d="M197 -12q-51 0 -84 33.5t-33 102.5v142q0 41 -12.5 63t-28.5 30t-16 5h121v-225q0 -47 25.5 -72t60.5 -25t62.5 23.5t27.5 61.5v146q0 39 -10 59t-23 27t-13 5h110v-251q0 -42 13.5 -57.5t30.5 -15.5h6l-114 -52v70q-50 -70 -123 -70zM155 594.5q4 16.5 11 25.5
q-4 -12 -4 -22q0 -25 21.5 -42.5t49.5 -17.5t49.5 17.5t21.5 42.5q0 10 -4 22q7 -9 11 -25.5t4 -29.5q0 -32 -23 -58t-59 -26t-59 26t-23 58q0 13 4 29.5z" />
    <glyph glyph-name="ucircumflex" unicode="&#xfb;" 
d="M197 -12q-51 0 -84 33.5t-33 102.5v142q0 41 -12.5 63t-28.5 30t-16 5h121v-225q0 -47 25.5 -72t60.5 -25t62.5 23.5t27.5 61.5v146q0 39 -10 59t-23 27t-13 5h110v-251q0 -42 13.5 -57.5t30.5 -15.5h6l-114 -52v70q-50 -70 -123 -70zM231 647l111 -190l-111 96l-111 -96
z" />
    <glyph glyph-name="udieresis" unicode="&#xfc;" 
d="M197 -12q-51 0 -84 33.5t-33 102.5v142q0 41 -12.5 63t-28.5 30t-16 5h121v-225q0 -47 25.5 -72t60.5 -25t62.5 23.5t27.5 61.5v146q0 39 -10 59t-23 27t-13 5h110v-251q0 -42 13.5 -57.5t30.5 -15.5h6l-114 -52v70q-50 -70 -123 -70zM124.5 500q-10.5 12 -10.5 28
t10.5 28t28.5 12t28.5 -12t10.5 -28t-10.5 -28t-28.5 -12t-28.5 12zM280.5 500q-10.5 12 -10.5 28t10.5 28t28.5 12t28.5 -12t10.5 -28t-10.5 -28t-28.5 -12t-28.5 12z" />
    <glyph glyph-name="ugrave" unicode="&#xf9;" 
d="M197 -12q-51 0 -84 33.5t-33 102.5v142q0 41 -12.5 63t-28.5 30t-16 5h121v-225q0 -47 25.5 -72t60.5 -25t62.5 23.5t27.5 61.5v146q0 39 -10 59t-23 27t-13 5h110v-251q0 -42 13.5 -57.5t30.5 -15.5h6l-114 -52v70q-50 -70 -123 -70zM199 637l73 -190l-162 190h89z" />
    <glyph glyph-name="uhungarumlaut" unicode="&#x171;" 
d="M197 -12q-51 0 -84 33.5t-33 102.5v142q0 41 -12.5 63t-28.5 30t-16 5h121v-225q0 -47 25.5 -72t60.5 -25t62.5 23.5t27.5 61.5v146q0 39 -10 59t-23 27t-13 5h110v-251q0 -42 13.5 -57.5t30.5 -15.5h6l-114 -52v70q-50 -70 -123 -70zM195 607h88l-161 -160zM317 607h89
l-163 -160z" />
    <glyph glyph-name="umacron" unicode="&#x16b;" 
d="M197 -12q-51 0 -84 33.5t-33 102.5v142q0 41 -12.5 63t-28.5 30t-16 5h121v-225q0 -47 25.5 -72t60.5 -25t62.5 23.5t27.5 61.5v146q0 39 -10 59t-23 27t-13 5h110v-251q0 -42 13.5 -57.5t30.5 -15.5h6l-114 -52v70q-50 -70 -123 -70zM110 560h244v-46h-244v46z" />
    <glyph glyph-name="uogonek" unicode="&#x173;" 
d="M331 -54q-17 -24 -17 -46q0 -18 12.5 -29.5t32.5 -11.5q26 0 63 21q-16 -28 -39.5 -42.5t-48.5 -14.5q-30 0 -50.5 19t-20.5 52q0 50 57 95v69q-50 -70 -123 -70q-51 0 -84 33.5t-33 102.5v142q0 53 -19 73.5t-37 24.5h120v-225q0 -47 25.5 -72t60.5 -25t62.5 23.5
t27.5 61.5v146q0 50 -15 68.5t-30 22.5h109v-251q0 -42 13.5 -57.5t30.5 -15.5h6l-49 -40q-37 -30 -54 -54z" />
    <glyph glyph-name="uring" unicode="&#x16f;" 
d="M197 -12q-51 0 -84 33.5t-33 102.5v142q0 41 -12.5 63t-28.5 30t-16 5h121v-225q0 -47 25.5 -72t60.5 -25t62.5 23.5t27.5 61.5v146q0 39 -10 59t-23 27t-13 5h110v-251q0 -42 13.5 -57.5t30.5 -15.5h6l-114 -52v70q-50 -70 -123 -70zM183.5 577q20.5 20 48.5 20
q29 0 49 -20t20 -49t-20.5 -49.5t-48.5 -20.5t-48.5 20.5t-20.5 49.5t20.5 49zM261.5 556q-12.5 12 -29.5 12t-29.5 -12t-12.5 -28t12.5 -28.5t29.5 -12.5t29.5 12.5t12.5 28.5t-12.5 28z" />
    <glyph glyph-name="utilde" unicode="&#x169;" 
d="M197 -12q-51 0 -84 33.5t-33 102.5v142q0 41 -12.5 63t-28.5 30t-16 5h121v-225q0 -47 25.5 -72t60.5 -25t62.5 23.5t27.5 61.5v146q0 39 -10 59t-23 27t-13 5h110v-251q0 -42 13.5 -57.5t30.5 -15.5h6l-114 -52v70q-50 -70 -123 -70zM126.5 560.5q18.5 16.5 47.5 16.5
t71 -18q32 -13 49 -13q34 0 34 44q0 11 -1 17q19 -17 19 -48q0 -29 -18.5 -45.5t-47.5 -16.5t-71 18q-32 13 -49 13q-34 0 -34 -44q0 -11 1 -17q-19 17 -19 48q0 29 18.5 45.5z" />
    <glyph glyph-name="v" unicode="v" horiz-adv-x="400" 
d="M200 -12l-136 307q-13 29 -26.5 44.5t-23.5 20.5t-10 4h151q-2 0 -9 -2.5t-13.5 -10t-6.5 -21.5q0 -17 10 -38l79 -181l74 171q7 18 7 37q0 18 -7.5 30t-24.5 15h133q0 1 -10.5 -4t-24 -21.5t-27.5 -47.5z" />
    <glyph glyph-name="w" unicode="w" horiz-adv-x="632" 
d="M518 281q7 18 7 37q0 18 -7.5 30t-24.5 15h134q-11 -2 -28.5 -17t-34.5 -56l-128 -303l-123 259l-118 -258l-133 307q-17 38 -32.5 52.5t-24.5 16.5h146q-26 -5 -26 -34q0 -16 9 -38l76 -185l119 265l122 -266z" />
    <glyph glyph-name="wacute" unicode="&#x1e83;" horiz-adv-x="632" 
d="M518 281q7 18 7 37q0 18 -7.5 30t-24.5 15h134q-11 -2 -28.5 -17t-34.5 -56l-128 -303l-123 259l-118 -258l-133 307q-17 38 -32.5 52.5t-24.5 16.5h146q-26 -5 -26 -34q0 -16 9 -38l76 -185l119 265l122 -266zM373 637h89l-162 -190z" />
    <glyph glyph-name="wcircumflex" unicode="&#x175;" horiz-adv-x="632" 
d="M518 281q7 18 7 37q0 18 -7.5 30t-24.5 15h134q-11 -2 -28.5 -17t-34.5 -56l-128 -303l-123 259l-118 -258l-133 307q-17 38 -32.5 52.5t-24.5 16.5h146q-26 -5 -26 -34q0 -16 9 -38l76 -185l119 265l122 -266zM318 647l111 -190l-111 96l-111 -96z" />
    <glyph glyph-name="wdieresis" unicode="&#x1e85;" horiz-adv-x="632" 
d="M518 281q7 18 7 37q0 18 -7.5 30t-24.5 15h134q-11 -2 -28.5 -17t-34.5 -56l-128 -303l-123 259l-118 -258l-133 307q-17 38 -32.5 52.5t-24.5 16.5h146q-26 -5 -26 -34q0 -16 9 -38l76 -185l119 265l122 -266zM211.5 500q-10.5 12 -10.5 28t10.5 28t28.5 12t28.5 -12
t10.5 -28t-10.5 -28t-28.5 -12t-28.5 12zM367.5 500q-10.5 12 -10.5 28t10.5 28t28.5 12t28.5 -12t10.5 -28t-10.5 -28t-28.5 -12t-28.5 12z" />
    <glyph glyph-name="wgrave" unicode="&#x1e81;" horiz-adv-x="632" 
d="M518 281q7 18 7 37q0 18 -7.5 30t-24.5 15h134q-11 -2 -28.5 -17t-34.5 -56l-128 -303l-123 259l-118 -258l-133 307q-17 38 -32.5 52.5t-24.5 16.5h146q-26 -5 -26 -34q0 -16 9 -38l76 -185l119 265l122 -266zM276 637l73 -190l-162 190h89z" />
    <glyph glyph-name="x" unicode="x" horiz-adv-x="400" 
d="M246.5 1.5q5.5 1.5 10.5 6.5t5 15q0 20 -16 43l-50 74l-43 -59q-25 -35 -25 -54q0 -11 6 -17t12 -8t8 -2h-131q0 -1 10 5t29.5 25.5t47.5 56.5l64 86l-64 98q-25 39 -44.5 59.5t-31 27.5t-11.5 6h156q-2 0 -7.5 -2.5t-10.5 -9t-5 -17.5q0 -15 13 -35l48 -73l44 60
q24 32 24 51q0 10 -5 16t-10.5 8t-7.5 2h133q0 1 -12 -5t-31.5 -23.5t-45.5 -50.5l-69 -90l77 -116q23 -35 41 -52.5t29 -22.5t11 -4h-156q2 0 7.5 1.5z" />
    <glyph glyph-name="y" unicode="y" horiz-adv-x="400" 
d="M180 30l-117 265q-17 38 -32.5 52.5t-24.5 16.5h146q-9 -2 -18 -9t-9 -25q0 -17 10 -38l81 -187l72 177q7 18 7 37q0 18 -7.5 30t-24.5 15h134q-11 -2 -28.5 -17t-34.5 -56l-136 -316q-27 -63 -40 -99.5t-25 -75.5q-5 -19 -10 -32h-102q27 13 66.5 73t81.5 162z" />
    <glyph glyph-name="yacute" unicode="&#xfd;" horiz-adv-x="400" 
d="M180 30l-117 265q-17 38 -32.5 52.5t-24.5 16.5h146q-9 -2 -18 -9t-9 -25q0 -17 10 -38l81 -187l72 177q7 18 7 37q0 18 -7.5 30t-24.5 15h134q-11 -2 -28.5 -17t-34.5 -56l-136 -316q-27 -63 -40 -99.5t-25 -75.5q-5 -19 -10 -32h-102q27 13 66.5 73t81.5 162zM244 637
h89l-162 -190z" />
    <glyph glyph-name="ycircumflex" unicode="&#x177;" horiz-adv-x="400" 
d="M180 30l-117 265q-17 38 -32.5 52.5t-24.5 16.5h146q-9 -2 -18 -9t-9 -25q0 -17 10 -38l81 -187l72 177q7 18 7 37q0 18 -7.5 30t-24.5 15h134q-11 -2 -28.5 -17t-34.5 -56l-136 -316q-27 -63 -40 -99.5t-25 -75.5q-5 -19 -10 -32h-102q27 13 66.5 73t81.5 162zM207 647
l111 -190l-111 96l-111 -96z" />
    <glyph glyph-name="ydieresis" unicode="&#xff;" horiz-adv-x="400" 
d="M180 30l-117 265q-17 38 -32.5 52.5t-24.5 16.5h146q-9 -2 -18 -9t-9 -25q0 -17 10 -38l81 -187l72 177q7 18 7 37q0 18 -7.5 30t-24.5 15h134q-11 -2 -28.5 -17t-34.5 -56l-136 -316q-27 -63 -40 -99.5t-25 -75.5q-5 -19 -10 -32h-102q27 13 66.5 73t81.5 162zM92.5 500
q-10.5 12 -10.5 28t10.5 28t28.5 12t28.5 -12t10.5 -28t-10.5 -28t-28.5 -12t-28.5 12zM248.5 500q-10.5 12 -10.5 28t10.5 28t28.5 12t28.5 -12t10.5 -28t-10.5 -28t-28.5 -12t-28.5 12z" />
    <glyph glyph-name="z" unicode="z" horiz-adv-x="384" 
d="M264 40q39 0 53.5 21t18.5 42v-103h-298l202 324h-105q-44 0 -61 -22.5t-19 -42.5v105h283l-199 -324h125z" />
    <glyph glyph-name="zacute" unicode="&#x17a;" horiz-adv-x="384" 
d="M264 40q39 0 53.5 21t18.5 42v-103h-298l202 324h-105q-44 0 -61 -22.5t-19 -42.5v105h283l-199 -324h125zM206 637h89l-162 -190z" />
    <glyph glyph-name="zcaron" unicode="&#x17e;" horiz-adv-x="384" 
d="M264 40q39 0 53.5 21t18.5 42v-103h-298l202 324h-105q-44 0 -61 -22.5t-19 -42.5v105h283l-199 -324h125zM304 647l-111 -190l-111 190l111 -96z" />
    <glyph glyph-name="zdotaccent" unicode="&#x17c;" horiz-adv-x="384" 
d="M264 40q39 0 53.5 21t18.5 42v-103h-298l202 324h-105q-44 0 -61 -22.5t-19 -42.5v105h283l-199 -324h125zM155.5 507.5q-12.5 14.5 -12.5 33.5t12.5 33.5t34.5 14.5t34.5 -14.5t12.5 -33.5t-12.5 -33.5t-34.5 -14.5t-34.5 14.5z" />
    <glyph glyph-name="ordfeminine" unicode="&#xaa;" horiz-adv-x="304" 
d="M211 436.5q-16 11.5 -18 26.5q-9 -19 -30.5 -29t-44.5 -10q-32 0 -55 17.5t-23 51.5q0 81 149 81v17q0 35 -17 52.5t-42 17.5q-28 0 -48.5 -17.5t-20.5 -48.5q-9 12 -9 32q0 35 26 54t62 19q38 0 66 -24t28 -68v-101q0 -19 14.5 -33t36.5 -14q6 0 14 4l-46 -40
q-26 1 -42 12.5zM109 537.5q-21 -13.5 -21 -39.5q0 -18 13.5 -30t33.5 -12q22 0 38 16t16 37v42q-59 0 -80 -13.5z" />
    <glyph glyph-name="ordmasculine" unicode="&#xba;" horiz-adv-x="360" 
d="M61 634.5q21 32.5 54.5 49t70.5 16.5q55 0 94.5 -34.5t39.5 -97.5q0 -45 -21 -77.5t-54.5 -49.5t-70.5 -17q-55 0 -94.5 35t-39.5 98q0 45 21 77.5zM254 617.5q-14 28.5 -36 43t-45 14.5q-33 0 -57 -26.5t-24 -73.5q0 -39 14 -68t36 -43.5t45 -14.5q32 0 56.5 27t24.5 74
q0 39 -14 67.5z" />
    <glyph glyph-name="uni0394" unicode="&#x394;" horiz-adv-x="696" 
d="M353 720l297 -720h-610zM275 434l-45 -104l-117 -274h433l-211 519z" />
    <glyph glyph-name="uni03A9" unicode="&#x3a9;" horiz-adv-x="848" 
d="M592.5 56.5q49.5 45.5 80.5 118.5t31 162q0 91 -37.5 164.5t-103 115t-147.5 41.5q-75 0 -133.5 -38t-91.5 -107.5t-33 -161.5q0 -132 54.5 -222t155.5 -129h-320q-4 37 -17 133q18 -36 37 -53t51.5 -23.5t95.5 -6.5q-61 43 -99 117t-38 169q0 106 45.5 189t128 129
t190.5 46q90 0 168.5 -39.5t126 -118.5t47.5 -190q0 -97 -39 -175.5t-109 -126.5h43q51 0 77.5 7.5t41 23.5t32.5 52q-13 -96 -17 -133h-326q56 11 105.5 56.5z" />
    <glyph glyph-name="uni03BC" unicode="&#x3bc;" horiz-adv-x="437" 
d="M304 47q-20 -28 -45 -43t-50 -15q-32 0 -54 22v-243h-63l-1 498q0 41 -12.5 63t-28 30t-15.5 5h121v-235q0 -45 19.5 -68t48.5 -23t52 22t23 58v155q0 39 -10.5 59t-23.5 27t-13 5h111l-1 -256q0 -43 13.5 -58.5t29.5 -15.5q4 0 6 0.5t3 0.5l-108 -54z" />
    <glyph glyph-name="pi" unicode="&#x3c0;" horiz-adv-x="528" 
d="M176 324v-218q0 -57 12 -80.5t25 -25.5h-143q14 1 28 24t14 82v218h-80v40h464v-40h-80v-218q0 -58 13 -81.5t26 -24.5h-139q12 1 24 21t12 70v233h-176z" />
    <glyph glyph-name="uni05D0" unicode="&#x5d0;" horiz-adv-x="471" 
d="M132 194q-12 -64 -12 -128h63l-33 -68h-115l22 104q18 87 38.5 132t53.5 68q-20 24 -35.5 37t-37.5 29l-10.5 8l-10.5 8l35 72q3 -9 10.5 -16.5t23.5 -19.5q50 -39 83 -82l52 -70l33 -46q20 25 34.5 63t15.5 66q-27 16 -42 33l35 72q2 -6 10.5 -13.5t19.5 -15.5
q29 -21 45 -40q6 -7 6 -20q0 -25 -27 -74q-29 -52 -80 -95l46 -66q37 -53 49.5 -69t24.5 -24l-62 -52q-22 41 -79.5 125.5t-109.5 152.5l-8 11q-26 -18 -38 -82z" />
    <glyph glyph-name="uni05D1" unicode="&#x5d1;" horiz-adv-x="390" 
d="M355 64l-32 -66h-298l32 66h223q-30 42 -30 91v118q0 93 -86 93h-121l55 90q3 -12 8.5 -17t16.5 -5h64q122 0 122 -136v-177q0 -18 1 -33.5t5 -23.5h40z" />
    <glyph glyph-name="uni05D2" unicode="&#x5d2;" horiz-adv-x="305" 
d="M207 -13l-33 94q-22 -37 -49 -60t-49 -23h-66l33 68h44q23 0 42.5 12t39.5 42l-17 178q-2 21 -6.5 31t-12.5 15.5t-28 14.5q-9 3 -22 9q-19 12 -23 16l35 72q2 -6 8 -10t19 -10.5t22 -11.5q6 -3 11 -5t8 -4q24 -10 34.5 -23t13.5 -50l16 -209l33 -117z" />
    <glyph glyph-name="uni05D3" unicode="&#x5d3;" horiz-adv-x="391" 
d="M361 434l-32 -68h-17q-28 -3 -36 -36.5t-8 -83.5v-113q1 -40 3.5 -64t6.5 -53l-70 -29v245q0 57 20 90t40 44h-261l55 90q3 -12 8.5 -17t16.5 -5h274z" />
    <glyph glyph-name="uni05D4" unicode="&#x5d4;" horiz-adv-x="430" 
d="M239 434q122 0 122 -136v-164q1 -37 3 -63t6 -55l-68 -29v286q0 93 -86 93h-176l55 90q3 -12 8.5 -17t16.5 -5h119zM115 181q-4 -48 -4 -73q0 -42 7 -92l-70 -29l10 226l60 16z" />
    <glyph glyph-name="uni05D5" unicode="&#x5d5;" horiz-adv-x="255" 
d="M130 414q24 -9 35 -22.5t11 -49.5v-191q1 -47 2.5 -74t6.5 -61l-68 -29v311q0 20 -4 30.5t-12.5 16t-28.5 13.5q-4 1 -24 10q-18 10 -23 16l35 72q2 -7 8.5 -11t20 -10.5t20.5 -10.5t21 -10z" />
    <glyph glyph-name="uni05D6" unicode="&#x5d6;" horiz-adv-x="250" 
d="M122 290q0 -19 8.5 -80.5t29.5 -193.5l-58 -29l-9 69q-10 77 -15 120t-5 67q0 99 48 123h-101l55 90q3 -12 8.5 -17t16.5 -5h120l-32 -68h-30q-36 -9 -36 -76z" />
    <glyph glyph-name="uni05D7" unicode="&#x5d7;" horiz-adv-x="470" 
d="M342 -13v286q0 93 -86 93h-86q-26 -3 -34 -36.5t-8 -83.5v-112q1 -41 3.5 -65t6.5 -53l-70 -29v245q0 57 19.5 90t38.5 44h-76l55 90q3 -12 8.5 -17t16.5 -5h149q122 0 122 -136v-164q1 -37 3 -63t6 -55z" />
    <glyph glyph-name="uni05D8" unicode="&#x5d8;" horiz-adv-x="450" 
d="M377.5 404.5q32.5 -36.5 32.5 -110.5q0 -145 -63 -223.5t-180 -78.5q-16 0 -34.5 5t-29.5 12l-40 289q-4 30 -13 43.5t-27 27.5q-9 6 -18 15l35 72q3 -8 12.5 -15t12.5 -10q23 -16 38 -35t19 -54l31 -274q26 -6 53 -6q32 0 64 6.5t46 16.5q13 15 20.5 71.5t7.5 118.5
q0 45 -15 69t-50 24q-24 0 -44.5 -8.5t-45.5 -30.5l33 84q25 28 69 28q54 0 86.5 -36.5z" />
    <glyph glyph-name="uni05D9" unicode="&#x5d9;" horiz-adv-x="235" 
d="M77 353q-5 2 -25.5 11.5t-31.5 19.5l35 72q3 -8 11.5 -13t52.5 -26q15 -6 25 -12q24 -12 35 -28.5t11 -39.5q0 -33 -21.5 -93.5t-41.5 -90.5l-66 19q16 10 39.5 60t23.5 75q0 27 -24 36z" />
    <glyph glyph-name="uni05DA" unicode="&#x5da;" horiz-adv-x="365" 
d="M174 434q122 0 122 -136v-369q1 -47 2.5 -74t6.5 -61l-68 -29v508q0 93 -86 93h-151l55 90q3 -12 8.5 -17t16.5 -5h94z" />
    <glyph glyph-name="uni05DB" unicode="&#x5db;" horiz-adv-x="371" 
d="M57 64h139q33 0 44.5 12t11.5 45v152q0 47 -18.5 70t-77.5 23h-122l55 90q3 -12 8.5 -17t16.5 -5h64q132 0 132 -136q1 -55 1 -186q0 -64 -37.5 -89t-87.5 -25h-161z" />
    <glyph glyph-name="uni05DC" unicode="&#x5dc;" horiz-adv-x="347" 
d="M307 350q0 -120 -25.5 -193t-80 -112.5t-146.5 -57.5l27 81q6 -1 19 -1q32 0 62 7t39 16q15 12 25.5 65.5t10.5 119.5q0 45 -1.5 60t-10.5 23t-33 8h-176q11 46 11 102q0 80 -18 155l81 46q-9 -55 -10 -107t-1 -60v-24q-1 -21 -8 -44h152q83 0 83 -84z" />
    <glyph glyph-name="uni05DD" unicode="&#x5dd;" horiz-adv-x="465" 
d="M401 223q0 -112 4 -181l-35 -44h-302v234q0 57 19.5 90t38.5 44h-76l55 90q3 -12 8.5 -17t16.5 -5h149q122 0 122 -136v-75zM342 64v209q0 93 -86 93h-94q-22 -9 -28 -40t-6 -80v-112q1 -44 4 -70h210z" />
    <glyph glyph-name="uni05DE" unicode="&#x5de;" horiz-adv-x="473" 
d="M418 42l-35 -44h-186l33 66h123q2 48 2 89q0 101 -20.5 158t-78.5 57q-39 0 -66 -18.5t-37 -50.5v-4q0 -75 -28 -279l-67 -29q14 65 24 147.5t10 127.5t-12 67.5t-26 36l-19 18.5l35 72q4 -10 24 -30q19 -18 31.5 -34.5t19.5 -40.5q13 32 48.5 61t77.5 29q60 0 91.5 -38
t42 -101t10.5 -155q0 -49 3 -105z" />
    <glyph glyph-name="uni05DF" unicode="&#x5df;" horiz-adv-x="255" 
d="M130 414q24 -9 35 -22.5t11 -49.5v-410q1 -47 2.5 -74t6.5 -61l-68 -29v530q0 20 -4 30.5t-12.5 16t-28.5 13.5q-4 1 -24 10q-18 10 -23 16l35 72q2 -7 8.5 -11t20 -10.5t20.5 -10.5t21 -10z" />
    <glyph glyph-name="uni05E0" unicode="&#x5e0;" horiz-adv-x="306" 
d="M234 99q1 -15 1 -31t1 -27l-35 -43h-196l32 66h137v234q0 20 -4 30.5t-12.5 16t-28.5 13.5q-4 1 -24 10q-19 12 -23 16l35 72q2 -7 8.5 -11t20 -10.5t20.5 -10.5q11 -6 21 -9q17 -7 26 -13.5t14.5 -20.5t5.5 -39v-208z" />
    <glyph glyph-name="uni05E1" unicode="&#x5e1;" horiz-adv-x="449" 
d="M388 393.5q21 -40.5 21 -99.5q0 -149 -63 -225.5t-186 -76.5q-47 0 -75 17q-9 86 -13 134t-4 72q0 54 12.5 93.5t36.5 57.5h-77l55 90q2 -8 10.5 -15t14.5 -7h200q47 0 68 -40.5zM336 155.5q7 54.5 7 99.5q0 36 -3 58t-15 37.5t-39 15.5h-134q-26 -11 -26 -78
q0 -47 10 -191l2 -29q20 -6 58 -6q76 0 119 25q14 14 21 68.5z" />
    <glyph glyph-name="uni05E2" unicode="&#x5e2;" horiz-adv-x="419" 
d="M353 394q16 -17 16 -50q0 -78 -21 -166.5t-50 -125.5q-24 -30 -116 -57.5t-182 -41.5l40 77q79 7 161 26q-18 15 -37 45.5t-28 57.5q-3 10 -15 59q-12 50 -22 79q-11 32 -20.5 45.5t-20.5 24l-18 17.5l35 72q3 -8 8.5 -14t16.5 -14q22 -18 35.5 -35t22.5 -50l24 -92
q31 -122 52 -186q26 9 37 16q15 32 23 95.5t8 126.5q0 26 -12 43t-23.5 23t-30.5 15l35 72q5 -12 42 -31q24 -14 40 -31z" />
    <glyph glyph-name="uni05E3" unicode="&#x5e3;" horiz-adv-x="417" 
d="M289 -235v508q0 93 -86 93h-74q-23 -10 -30.5 -57.5t-7.5 -131.5h113l-30 -64h-149q8 87 14.5 131.5t19 75t34.5 46.5h-61l55 90q3 -12 8.5 -17t16.5 -5h114q122 0 122 -136v-369q1 -47 2.5 -74t6.5 -61z" />
    <glyph glyph-name="uni05E4" unicode="&#x5e4;" horiz-adv-x="436" 
d="M376 112q0 -64 -37.5 -89t-87.5 -25h-206l32 66h184q33 0 44.5 12t11.5 45v152q0 47 -18.5 70t-77.5 23h-56q-18 -7 -25.5 -34t-8.5 -81h100l-32 -68h-138q13 83 25.5 122t44.5 61h-77l55 90q3 -12 8.5 -17t16.5 -5h109q132 0 132 -136q1 -55 1 -186z" />
    <glyph glyph-name="uni05E5" unicode="&#x5e5;" horiz-adv-x="394" 
d="M259 -102q16 -74 30 -100l-68 -33q-73 386 -117 532q-8 27 -13.5 37t-14 15.5t-38.5 18.5q-18 10 -23 16l35 72q3 -7 12 -12.5t37 -19.5q4 -2 19.5 -10.5t23.5 -24t16 -47.5q18 -69 43 -180q37 43 56 91.5t19 97.5l-16 12q-20 14 -26 21l35 72q2 -6 10.5 -13.5
t19.5 -15.5q29 -21 45 -40q5 -8 5 -18q0 -37 -21.5 -86t-54.5 -92t-64 -64z" />
    <glyph glyph-name="uni05E6" unicode="&#x5e6;" horiz-adv-x="417" 
d="M258 200q70 -124 94 -155l-36 -47h-301l32 68h230q-44 31 -69 77l-33 63l-42 81q-17 32 -33.5 48t-40.5 30q-18 12 -26 19l35 72q3 -8 12 -16t20 -16q25 -17 45.5 -36.5t38.5 -52.5l39 -72l11 -19l9 -16q19 25 32 60.5t13 62.5q-27 16 -42 33l35 72q2 -6 10.5 -13.5
t19.5 -15.5q29 -21 45 -40q6 -7 6 -20q0 -25 -27 -74t-77 -93z" />
    <glyph glyph-name="uni05E7" unicode="&#x5e7;" horiz-adv-x="424" 
d="M95 456q3 -12 8.5 -17t16.5 -5h175q81 0 81 -84q0 -151 -48.5 -243t-142.5 -120l22 81q29 5 43.5 9.5t24.5 13.5q14 12 24.5 73.5t10.5 122.5q0 35 -2.5 50.5t-12 22t-31.5 6.5h-224zM114 129q-2 -84 -2 -164q0 -126 6 -168l-70 -29l10 475l60 16q-2 -46 -4 -130z" />
    <glyph glyph-name="uni05E8" unicode="&#x5e8;" horiz-adv-x="359" 
d="M168 434q122 0 122 -136v-147q1 -47 2.5 -74t6.5 -61l-68 -29v286q0 93 -86 93h-138l55 90q3 -12 8.5 -17t16.5 -5h81z" />
    <glyph glyph-name="uni05E9" unicode="&#x5e9;" horiz-adv-x="514" 
d="M448 391q16 -20 16 -64q0 -163 -66.5 -249t-198.5 -86q-33 0 -57 4.5t-32 12.5l-16 107q-17 113 -26 182q-4 32 -14 47t-23.5 24t-20.5 15l35 72q3 -7 9 -13t17 -13q24 -16 38.5 -34t17.5 -54q8 -106 20 -177q34 13 60 43.5t26 88.5q0 27 -7.5 43t-18.5 23.5t-35 20.5
l35 72q4 -11 21.5 -20.5t20.5 -11.5q2 -1 15.5 -9t22 -26.5t8.5 -45.5q0 -180 -143 -210q4 -22 14 -66q25 -5 68 -5q96 0 128 27q15 12 25 72.5t10 134.5q0 25 -5.5 38t-17 21.5t-43.5 28.5l35 72q4 -11 23 -21t23 -13q20 -11 36 -31z" />
    <glyph glyph-name="uni05EA" unicode="&#x5ea;" horiz-adv-x="484" 
d="M356 -13v286q0 93 -86 93h-92q-14 -6 -20.5 -25.5t-6.5 -55.5l1 -29l10 -214l-35 -44h-127l32 68h74l-11 144q-1 11 -1 33q0 95 46 123h-76l55 90q3 -12 8.5 -17t16.5 -5h149q122 0 122 -136v-147q1 -47 2.5 -74t6.5 -61z" />
    <glyph glyph-name="uniFB2A" unicode="&#xfb2a;" horiz-adv-x="514" 
d="M448 391q16 -20 16 -64q0 -163 -66.5 -249t-198.5 -86q-33 0 -57 4.5t-32 12.5l-16 107q-17 113 -26 182q-4 32 -14 47t-23.5 24t-20.5 15l35 72q3 -7 9 -13t17 -13q24 -16 38.5 -34t17.5 -54q8 -106 20 -177q34 13 60 43.5t26 88.5q0 27 -7.5 43t-18.5 23.5t-35 20.5
l35 72q4 -11 21.5 -20.5t20.5 -11.5q2 -1 15.5 -9t22 -26.5t8.5 -45.5q0 -180 -143 -210q4 -22 14 -66q25 -5 68 -5q96 0 128 27q15 12 25 72.5t10 134.5q0 25 -5.5 38t-17 21.5t-43.5 28.5l35 72q4 -11 23 -21t23 -13q20 -11 36 -31zM400 485q-11 10 -11 27q0 18 11 27.5
t26 9.5t26 -9.5t11 -27.5q0 -17 -11 -27t-26 -10t-26 10z" />
    <glyph glyph-name="uniFB2B" unicode="&#xfb2b;" horiz-adv-x="514" 
d="M448 391q16 -20 16 -64q0 -163 -66.5 -249t-198.5 -86q-33 0 -57 4.5t-32 12.5l-16 107q-17 113 -26 182q-4 32 -14 47t-23.5 24t-20.5 15l35 72q3 -7 9 -13t17 -13q24 -16 38.5 -34t17.5 -54q8 -106 20 -177q34 13 60 43.5t26 88.5q0 27 -7.5 43t-18.5 23.5t-35 20.5
l35 72q4 -11 21.5 -20.5t20.5 -11.5q2 -1 15.5 -9t22 -26.5t8.5 -45.5q0 -180 -143 -210q4 -22 14 -66q25 -5 68 -5q96 0 128 27q15 12 25 72.5t10 134.5q0 25 -5.5 38t-17 21.5t-43.5 28.5l35 72q4 -11 23 -21t23 -13q20 -11 36 -31zM72 485q-11 10 -11 27q0 18 11 27.5
t26 9.5t26 -9.5t11 -27.5q0 -17 -11 -27t-26 -10t-26 10z" />
    <glyph glyph-name="uniFB2C" unicode="&#xfb2c;" horiz-adv-x="514" 
d="M448 391q16 -20 16 -64q0 -163 -66.5 -249t-198.5 -86q-33 0 -57 4.5t-32 12.5l-16 107q-17 113 -26 182q-4 32 -14 47t-23.5 24t-20.5 15l35 72q3 -7 9 -13t17 -13q24 -16 38.5 -34t17.5 -54q8 -106 20 -177q34 13 60 43.5t26 88.5q0 27 -7.5 43t-18.5 23.5t-35 20.5
l35 72q4 -11 21.5 -20.5t20.5 -11.5q2 -1 15.5 -9t22 -26.5t8.5 -45.5q0 -180 -143 -210q4 -22 14 -66q25 -5 68 -5q96 0 128 27q15 12 25 72.5t10 134.5q0 25 -5.5 38t-17 21.5t-43.5 28.5l35 72q4 -11 23 -21t23 -13q20 -11 36 -31zM400 485q-11 10 -11 27q0 18 11 27.5
t26 9.5t26 -9.5t11 -27.5q0 -17 -11 -27t-26 -10t-26 10zM290 141q-11 10 -11 27q0 18 11 27.5t26 9.5t26 -9.5t11 -27.5q0 -17 -11 -27t-26 -10t-26 10z" />
    <glyph glyph-name="uniFB2D" unicode="&#xfb2d;" horiz-adv-x="514" 
d="M448 391q16 -20 16 -64q0 -163 -66.5 -249t-198.5 -86q-33 0 -57 4.5t-32 12.5l-16 107q-17 113 -26 182q-4 32 -14 47t-23.5 24t-20.5 15l35 72q3 -7 9 -13t17 -13q24 -16 38.5 -34t17.5 -54q8 -106 20 -177q34 13 60 43.5t26 88.5q0 27 -7.5 43t-18.5 23.5t-35 20.5
l35 72q4 -11 21.5 -20.5t20.5 -11.5q2 -1 15.5 -9t22 -26.5t8.5 -45.5q0 -180 -143 -210q4 -22 14 -66q25 -5 68 -5q96 0 128 27q15 12 25 72.5t10 134.5q0 25 -5.5 38t-17 21.5t-43.5 28.5l35 72q4 -11 23 -21t23 -13q20 -11 36 -31zM72 485q-11 10 -11 27q0 18 11 27.5
t26 9.5t26 -9.5t11 -27.5q0 -17 -11 -27t-26 -10t-26 10zM290 141q-11 10 -11 27q0 18 11 27.5t26 9.5t26 -9.5t11 -27.5q0 -17 -11 -27t-26 -10t-26 10z" />
    <glyph glyph-name="uniFB2E" unicode="&#xfb2e;" horiz-adv-x="471" 
d="M132 194q-12 -64 -12 -128h63l-33 -68h-115l22 104q18 87 38.5 132t53.5 68q-20 24 -35.5 37t-37.5 29l-10.5 8l-10.5 8l35 72q3 -9 10.5 -16.5t23.5 -19.5q50 -39 83 -82l52 -70l33 -46q20 25 34.5 63t15.5 66q-27 16 -42 33l35 72q2 -6 10.5 -13.5t19.5 -15.5
q29 -21 45 -40q6 -7 6 -20q0 -25 -27 -74q-29 -52 -80 -95l46 -66q37 -53 49.5 -69t24.5 -24l-62 -52q-22 41 -79.5 125.5t-109.5 152.5l-8 11q-26 -18 -38 -82zM161 -64h176v-54h-176v54z" />
    <glyph glyph-name="uniFB2F" unicode="&#xfb2f;" horiz-adv-x="471" 
d="M132 194q-12 -64 -12 -128h63l-33 -68h-115l22 104q18 87 38.5 132t53.5 68q-20 24 -35.5 37t-37.5 29l-10.5 8l-10.5 8l35 72q3 -9 10.5 -16.5t23.5 -19.5q50 -39 83 -82l52 -70l33 -46q20 25 34.5 63t15.5 66q-27 16 -42 33l35 72q2 -6 10.5 -13.5t19.5 -15.5
q29 -21 45 -40q6 -7 6 -20q0 -25 -27 -74q-29 -52 -80 -95l46 -66q37 -53 49.5 -69t24.5 -24l-62 -52q-22 41 -79.5 125.5t-109.5 152.5l-8 11q-26 -18 -38 -82zM334 -118h-64q8 -40 8 -66h-58q0 16 8 66h-70v54h176v-54z" />
    <glyph glyph-name="uniFB30" unicode="&#xfb30;" horiz-adv-x="471" 
d="M132 194q-12 -64 -12 -128h63l-33 -68h-115l22 104q18 87 38.5 132t53.5 68q-20 24 -35.5 37t-37.5 29l-10.5 8l-10.5 8l35 72q3 -9 10.5 -16.5t23.5 -19.5q50 -39 83 -82l52 -70l33 -46q20 25 34.5 63t15.5 66q-27 16 -42 33l35 72q2 -6 10.5 -13.5t19.5 -15.5
q29 -21 45 -40q6 -7 6 -20q0 -25 -27 -74q-29 -52 -80 -95l46 -66q37 -53 49.5 -69t24.5 -24l-62 -52q-22 41 -79.5 125.5t-109.5 152.5l-8 11q-26 -18 -38 -82zM169 112q-11 10 -11 27q0 18 11 27.5t26 9.5t26 -9.5t11 -27.5q0 -17 -11 -27t-26 -10t-26 10z" />
    <glyph glyph-name="uniFB31" unicode="&#xfb31;" horiz-adv-x="390" 
d="M355 64l-32 -66h-298l32 66h223q-30 42 -30 91v118q0 93 -86 93h-121l55 90q3 -12 8.5 -17t16.5 -5h64q122 0 122 -136v-177q0 -18 1 -33.5t5 -23.5h40zM116 190q-11 10 -11 27q0 18 11 27.5t26 9.5t26 -9.5t11 -27.5q0 -17 -11 -27t-26 -10t-26 10z" />
    <glyph glyph-name="uniFB32" unicode="&#xfb32;" horiz-adv-x="305" 
d="M207 -13l-33 94q-22 -37 -49 -60t-49 -23h-66l33 68h44q23 0 42.5 12t39.5 42l-17 178q-2 21 -6.5 31t-12.5 15.5t-28 14.5q-9 3 -22 9q-19 12 -23 16l35 72q2 -6 8 -10t19 -10.5t22 -11.5q6 -3 11 -5t8 -4q24 -10 34.5 -23t13.5 -50l16 -209l33 -117zM68 190
q-11 10 -11 27q0 18 11 27.5t26 9.5t26 -9.5t11 -27.5q0 -17 -11 -27t-26 -10t-26 10z" />
    <glyph glyph-name="uniFB33" unicode="&#xfb33;" horiz-adv-x="391" 
d="M361 434l-32 -68h-17q-28 -3 -36 -36.5t-8 -83.5v-113q1 -40 3.5 -64t6.5 -53l-70 -29v245q0 57 20 90t40 44h-261l55 90q3 -12 8.5 -17t16.5 -5h274zM84 190q-11 10 -11 27q0 18 11 27.5t26 9.5t26 -9.5t11 -27.5q0 -17 -11 -27t-26 -10t-26 10z" />
    <glyph glyph-name="uniFB34" unicode="&#xfb34;" horiz-adv-x="430" 
d="M239 434q122 0 122 -136v-164q1 -37 3 -63t6 -55l-68 -29v286q0 93 -86 93h-176l55 90q3 -12 8.5 -17t16.5 -5h119zM115 181q-4 -48 -4 -73q0 -42 7 -92l-70 -29l10 226l60 16zM192 190q-11 10 -11 27q0 18 11 27.5t26 9.5t26 -9.5t11 -27.5q0 -17 -11 -27t-26 -10
t-26 10z" />
    <glyph glyph-name="uniFB35" unicode="&#xfb35;" horiz-adv-x="255" 
d="M130 414q24 -9 35 -22.5t11 -49.5v-191q1 -47 2.5 -74t6.5 -61l-68 -29v311q0 20 -4 30.5t-12.5 16t-28.5 13.5q-4 1 -24 10q-18 10 -23 16l35 72q2 -7 8.5 -11t20 -10.5t20.5 -10.5t21 -10zM29 190q-11 10 -11 27q0 18 11 27.5t26 9.5t26 -9.5t11 -27.5q0 -17 -11 -27
t-26 -10t-26 10z" />
    <glyph glyph-name="uniFB36" unicode="&#xfb36;" horiz-adv-x="250" 
d="M122 290q0 -19 8.5 -80.5t29.5 -193.5l-58 -29l-9 69q-10 77 -15 120t-5 67q0 99 48 123h-101l55 90q3 -12 8.5 -17t16.5 -5h120l-32 -68h-30q-36 -9 -36 -76zM156 258q-11 10 -11 27q0 18 11 27.5t26 9.5t26 -9.5t11 -27.5q0 -17 -11 -27t-26 -10t-26 10z" />
    <glyph glyph-name="uniFB38" unicode="&#xfb38;" horiz-adv-x="450" 
d="M377.5 404.5q32.5 -36.5 32.5 -110.5q0 -145 -63 -223.5t-180 -78.5q-16 0 -34.5 5t-29.5 12l-40 289q-4 30 -13 43.5t-27 27.5q-9 6 -18 15l35 72q3 -8 12.5 -15t12.5 -10q23 -16 38 -35t19 -54l31 -274q26 -6 53 -6q32 0 64 6.5t46 16.5q13 15 20.5 71.5t7.5 118.5
q0 45 -15 69t-50 24q-24 0 -44.5 -8.5t-45.5 -30.5l33 84q25 28 69 28q54 0 86.5 -36.5zM207 190q-11 10 -11 27q0 18 11 27.5t26 9.5t26 -9.5t11 -27.5q0 -17 -11 -27t-26 -10t-26 10z" />
    <glyph glyph-name="uniFB39" unicode="&#xfb39;" horiz-adv-x="235" 
d="M77 353q-5 2 -25.5 11.5t-31.5 19.5l35 72q3 -8 11.5 -13t52.5 -26q15 -6 25 -12q24 -12 35 -28.5t11 -39.5q0 -33 -21.5 -93.5t-41.5 -90.5l-66 19q16 10 39.5 60t23.5 75q0 27 -24 36zM24 258q-11 10 -11 27q0 18 11 27.5t26 9.5t26 -9.5t11 -27.5q0 -17 -11 -27
t-26 -10t-26 10z" />
    <glyph glyph-name="uniFB3A" unicode="&#xfb3a;" horiz-adv-x="365" 
d="M174 434q122 0 122 -136v-369q1 -47 2.5 -74t6.5 -61l-68 -29v508q0 93 -86 93h-151l55 90q3 -12 8.5 -17t16.5 -5h94zM93 190q-11 10 -11 27q0 18 11 27.5t26 9.5t26 -9.5t11 -27.5q0 -17 -11 -27t-26 -10t-26 10z" />
    <glyph glyph-name="uniFB3B" unicode="&#xfb3b;" horiz-adv-x="371" 
d="M57 64h139q33 0 44.5 12t11.5 45v152q0 47 -18.5 70t-77.5 23h-122l55 90q3 -12 8.5 -17t16.5 -5h64q132 0 132 -136q1 -55 1 -186q0 -64 -37.5 -89t-87.5 -25h-161zM112 190q-11 10 -11 27q0 18 11 27.5t26 9.5t26 -9.5t11 -27.5q0 -17 -11 -27t-26 -10t-26 10z" />
    <glyph glyph-name="uniFB3C" unicode="&#xfb3c;" horiz-adv-x="347" 
d="M307 350q0 -120 -25.5 -193t-80 -112.5t-146.5 -57.5l27 81q6 -1 19 -1q32 0 62 7t39 16q15 12 25.5 65.5t10.5 119.5q0 45 -1.5 60t-10.5 23t-33 8h-176q11 46 11 102q0 80 -18 155l81 46q-9 -55 -10 -107t-1 -60v-24q-1 -21 -8 -44h152q83 0 83 -84zM102 190
q-11 10 -11 27q0 18 11 27.5t26 9.5t26 -9.5t11 -27.5q0 -17 -11 -27t-26 -10t-26 10z" />
    <glyph glyph-name="uniFB3E" unicode="&#xfb3e;" horiz-adv-x="473" 
d="M418 42l-35 -44h-186l33 66h123q2 48 2 89q0 101 -20.5 158t-78.5 57q-39 0 -66 -18.5t-37 -50.5v-4q0 -75 -28 -279l-67 -29q14 65 24 147.5t10 127.5t-12 67.5t-26 36l-19 18.5l35 72q4 -10 24 -30q19 -18 31.5 -34.5t19.5 -40.5q13 32 48.5 61t77.5 29q60 0 91.5 -38
t42 -101t10.5 -155q0 -49 3 -105zM222 190q-11 10 -11 27q0 18 11 27.5t26 9.5t26 -9.5t11 -27.5q0 -17 -11 -27t-26 -10t-26 10z" />
    <glyph glyph-name="uniFB40" unicode="&#xfb40;" horiz-adv-x="306" 
d="M234 99q1 -15 1 -31t1 -27l-35 -43h-196l32 66h137v234q0 20 -4 30.5t-12.5 16t-28.5 13.5q-4 1 -24 10q-19 12 -23 16l35 72q2 -7 8.5 -11t20 -10.5t20.5 -10.5q11 -6 21 -9q17 -7 26 -13.5t14.5 -20.5t5.5 -39v-208zM73 190q-11 10 -11 27q0 18 11 27.5t26 9.5t26 -9.5
t11 -27.5q0 -17 -11 -27t-26 -10t-26 10z" />
    <glyph glyph-name="uniFB41" unicode="&#xfb41;" horiz-adv-x="449" 
d="M388 393.5q21 -40.5 21 -99.5q0 -149 -63 -225.5t-186 -76.5q-47 0 -75 17q-9 86 -13 134t-4 72q0 54 12.5 93.5t36.5 57.5h-77l55 90q2 -8 10.5 -15t14.5 -7h200q47 0 68 -40.5zM336 155.5q7 54.5 7 99.5q0 36 -3 58t-15 37.5t-39 15.5h-134q-26 -11 -26 -78
q0 -47 10 -191l2 -29q20 -6 58 -6q76 0 119 25q14 14 21 68.5zM209 190q-11 10 -11 27q0 18 11 27.5t26 9.5t26 -9.5t11 -27.5q0 -17 -11 -27t-26 -10t-26 10z" />
    <glyph glyph-name="uniFB43" unicode="&#xfb43;" horiz-adv-x="417" 
d="M289 -235v508q0 93 -86 93h-74q-23 -10 -30.5 -57.5t-7.5 -131.5h113l-30 -64h-149q8 87 14.5 131.5t19 75t34.5 46.5h-61l55 90q3 -12 8.5 -17t16.5 -5h114q122 0 122 -136v-369q1 -47 2.5 -74t6.5 -61zM261 165q9 -8 9 -23q0 -14 -9 -22t-21 -8t-21.5 8t-9.5 22
q0 15 9.5 23t21.5 8t21 -8z" />
    <glyph glyph-name="uniFB44" unicode="&#xfb44;" horiz-adv-x="436" 
d="M376 112q0 -64 -37.5 -89t-87.5 -25h-206l32 66h184q33 0 44.5 12t11.5 45v152q0 47 -18.5 70t-77.5 23h-56q-18 -7 -25.5 -34t-8.5 -81h100l-32 -68h-138q13 83 25.5 122t44.5 61h-77l55 90q3 -12 8.5 -17t16.5 -5h109q132 0 132 -136q1 -55 1 -186zM290 193
q-9 -8 -21 -8t-21.5 8t-9.5 22q0 15 9.5 23t21.5 8t21 -8t9 -23q0 -14 -9 -22z" />
    <glyph glyph-name="uniFB46" unicode="&#xfb46;" horiz-adv-x="417" 
d="M258 200q70 -124 94 -155l-36 -47h-301l32 68h230q-44 31 -69 77l-33 63l-42 81q-17 32 -33.5 48t-40.5 30q-18 12 -26 19l35 72q3 -8 12 -16t20 -16q25 -17 45.5 -36.5t38.5 -52.5l39 -72l11 -19l9 -16q19 25 32 60.5t13 62.5q-27 16 -42 33l35 72q2 -6 10.5 -13.5
t19.5 -15.5q29 -21 45 -40q6 -7 6 -20q0 -25 -27 -74t-77 -93zM93 126q-11 10 -11 27q0 18 11 27.5t26 9.5t26 -9.5t11 -27.5q0 -17 -11 -27t-26 -10t-26 10z" />
    <glyph glyph-name="uniFB47" unicode="&#xfb47;" horiz-adv-x="424" 
d="M95 456q3 -12 8.5 -17t16.5 -5h175q81 0 81 -84q0 -151 -48.5 -243t-142.5 -120l22 81q29 5 43.5 9.5t24.5 13.5q14 12 24.5 73.5t10.5 122.5q0 35 -2.5 50.5t-12 22t-31.5 6.5h-224zM114 129q-2 -84 -2 -164q0 -126 6 -168l-70 -29l10 475l60 16q-2 -46 -4 -130z
M187 190q-11 10 -11 27q0 18 11 27.5t26 9.5t26 -9.5t11 -27.5q0 -17 -11 -27t-26 -10t-26 10z" />
    <glyph glyph-name="uniFB48" unicode="&#xfb48;" horiz-adv-x="359" 
d="M168 434q122 0 122 -136v-147q1 -47 2.5 -74t6.5 -61l-68 -29v286q0 93 -86 93h-138l55 90q3 -12 8.5 -17t16.5 -5h81zM100 190q-11 10 -11 27q0 18 11 27.5t26 9.5t26 -9.5t11 -27.5q0 -17 -11 -27t-26 -10t-26 10z" />
    <glyph glyph-name="uniFB49" unicode="&#xfb49;" horiz-adv-x="514" 
d="M448 391q16 -20 16 -64q0 -163 -66.5 -249t-198.5 -86q-33 0 -57 4.5t-32 12.5l-16 107q-17 113 -26 182q-4 32 -14 47t-23.5 24t-20.5 15l35 72q3 -7 9 -13t17 -13q24 -16 38.5 -34t17.5 -54q8 -106 20 -177q34 13 60 43.5t26 88.5q0 27 -7.5 43t-18.5 23.5t-35 20.5
l35 72q4 -11 21.5 -20.5t20.5 -11.5q2 -1 15.5 -9t22 -26.5t8.5 -45.5q0 -180 -143 -210q4 -22 14 -66q25 -5 68 -5q96 0 128 27q15 12 25 72.5t10 134.5q0 25 -5.5 38t-17 21.5t-43.5 28.5l35 72q4 -11 23 -21t23 -13q20 -11 36 -31zM290 141q-11 10 -11 27q0 18 11 27.5
t26 9.5t26 -9.5t11 -27.5q0 -17 -11 -27t-26 -10t-26 10z" />
    <glyph glyph-name="uniFB4A" unicode="&#xfb4a;" horiz-adv-x="484" 
d="M356 -13v286q0 93 -86 93h-92q-14 -6 -20.5 -25.5t-6.5 -55.5l1 -29l10 -214l-35 -44h-127l32 68h74l-11 144q-1 11 -1 33q0 95 46 123h-76l55 90q3 -12 8.5 -17t16.5 -5h149q122 0 122 -136v-147q1 -47 2.5 -74t6.5 -61zM228 190q-11 10 -11 27q0 18 11 27.5t26 9.5
t26 -9.5t11 -27.5q0 -17 -11 -27t-26 -10t-26 10z" />
    <glyph glyph-name="uniFB4B" unicode="&#xfb4b;" horiz-adv-x="255" 
d="M130 414q24 -9 35 -22.5t11 -49.5v-191q1 -47 2.5 -74t6.5 -61l-68 -29v311q0 20 -4 30.5t-12.5 16t-28.5 13.5q-4 1 -24 10q-18 10 -23 16l35 72q2 -7 8.5 -11t20 -10.5t20.5 -10.5t21 -10zM105 485q-11 10 -11 27q0 18 11 27.5t26 9.5t26 -9.5t11 -27.5q0 -17 -11 -27
t-26 -10t-26 10z" />
    <glyph glyph-name="zero" unicode="0" horiz-adv-x="512" 
d="M75 522.5q27 85.5 74.5 131.5t107.5 46q59 0 106 -40t74 -116t27 -181q0 -112 -27 -197.5t-74.5 -131.5t-107.5 -46q-59 0 -106 40t-74 116t-27 181q0 112 27 197.5zM373 503q-19 79 -52 119.5t-74 41.5q-37 0 -66 -36t-45 -101.5t-16 -152.5q0 -110 19 -189t52 -120
t74 -41q37 0 66 36t45 101.5t16 152.5q0 110 -19 189z" />
    <glyph glyph-name="one" unicode="1" horiz-adv-x="312" 
d="M109.5 26q14.5 21 14.5 79v514l-89 -4v14l153 71v-595q0 -58 15 -79t29 -26h-151q14 5 28.5 26z" />
    <glyph glyph-name="two" unicode="2" horiz-adv-x="480" 
d="M102 93l123.5 149.5t61.5 87.5q26 44 37.5 84.5t11.5 82.5q0 45 -18 77.5t-47.5 49.5t-63.5 17q-63 0 -101.5 -46t-38.5 -116q-18 25 -18 66q0 38 19.5 74t58.5 58.5t94 22.5q51 0 93.5 -24t68 -68t25.5 -102q0 -94 -75 -195q-70 -96 -178 -217l-30 -34h203q52 0 78 15.5
t35 30.5l-19 -106h-398z" />
    <glyph glyph-name="three" unicode="3" horiz-adv-x="480" 
d="M383.5 319.5q40.5 -51.5 40.5 -115.5q0 -57 -26.5 -106.5t-77 -79.5t-118.5 -30q-53 0 -89.5 14t-74.5 38v80q17 -37 62 -65t100 -28q73 0 112.5 44.5t39.5 110.5q0 78 -48 120t-121 42h-19v16q66 23 107 65.5t41 98.5q0 51 -29.5 83.5t-81.5 32.5q-32 0 -60 -16
t-45.5 -46.5t-17.5 -72.5q-18 24 -18 61q0 61 45 97.5t108 36.5q69 0 116 -40t47 -108q0 -44 -29.5 -89t-80.5 -73q77 -19 117.5 -70.5z" />
    <glyph glyph-name="four" unicode="4" horiz-adv-x="504" 
d="M452 236v-48h-84v-95q0 -73 30 -93h-123q8 2 18.5 22.5t10.5 71.5v94h-302l366 522v-474h84zM304 551l-220 -315h220v315z" />
    <glyph glyph-name="five" unicode="5" horiz-adv-x="448" 
d="M109 472q82 -2 137 -19q73 -23 112 -75t39 -119q0 -77 -44 -137.5t-119 -94.5t-164 -34h-11l-18 40h10q129 0 205 53t76 151q0 79 -56.5 126.5t-177.5 47.5h-46l68 277h173q82 0 99 17l-20 -81h-227z" />
    <glyph glyph-name="six" unicode="6" horiz-adv-x="522" 
d="M388 237.5q-14 33.5 -41.5 54.5t-64.5 21q-56 0 -101 -46q0 16 15.5 38.5t45 39t70.5 16.5q52 0 88.5 -23.5t55 -62.5t18.5 -84q0 -52 -23.5 -98.5t-69 -75.5t-107.5 -29q-66 0 -113.5 38t-72 100.5t-24.5 133.5q0 87 43 178t119 162t169 101l39 -18
q-94 -38 -161.5 -110.5t-102 -159.5t-34.5 -168q0 -67 19 -117t51.5 -76.5t70.5 -26.5q61 0 93 40t32 102q0 37 -14 70.5z" />
    <glyph glyph-name="seven" unicode="7" horiz-adv-x="456" 
d="M163.5 115.5q-30.5 -69.5 -43.5 -115.5h-68q28 63 75 153.5l125 237.5q14 25 59 111t62 122h-234q-79 0 -108 -49l30 113h395l-228 -438q-34 -65 -64.5 -134.5z" />
    <glyph glyph-name="eight" unicode="8" horiz-adv-x="504" 
d="M85 270.5q-37 -42.5 -37 -102.5q0 -47 24 -88t70 -66.5t110 -25.5q61 0 107.5 26t71.5 68.5t25 89.5q0 42 -14 73.5t-45.5 60.5t-89.5 64q55 28 88 72.5t33 98.5q0 43 -23 79.5t-63 58t-90 21.5t-90 -22.5t-62.5 -60t-22.5 -82.5q0 -103 125 -180q-80 -42 -117 -84.5z
M253 401q-53 32 -87 68.5t-34 80.5q0 50 35 82t85 32q51 0 84.5 -36t33.5 -88q0 -56 -27.5 -93t-69.5 -58zM256 323q44 -27 70.5 -47t45.5 -49t19 -67q0 -61 -40 -98.5t-99 -37.5q-44 0 -76.5 20.5t-50.5 54.5t-18 73q0 46 18.5 77t44 48.5t65.5 37.5z" />
    <glyph glyph-name="nine" unicode="9" horiz-adv-x="522" 
d="M134 451.5q14 -33.5 41 -54.5t64 -21q56 0 101 46q0 -16 -15.5 -38t-45 -38.5t-69.5 -16.5q-52 0 -88.5 23.5t-55 62t-18.5 83.5q0 51 23.5 97.5t68.5 75.5t107 29q66 0 113 -38t71.5 -100t24.5 -133q0 -86 -43 -176.5t-118 -161.5t-168 -101l-39 18q94 38 161 110.5
t101.5 158.5t34.5 167q0 67 -19 116.5t-51.5 76t-70.5 26.5q-61 0 -92.5 -40t-31.5 -101q0 -37 14 -70.5z" />
    <glyph glyph-name="uni00B9" unicode="&#xb9;" horiz-adv-x="312" 
d="M80 406v249l-27 -1q-9 -1 -25 -1v9l98 47v-303q0 -41 30 -56h-106q30 15 30 56z" />
    <glyph glyph-name="uni00B2" unicode="&#xb2;" horiz-adv-x="304" 
d="M81 403q65 75 89 113q12 22 18 40t6 38q0 33 -17 51t-40 18q-30 0 -48.5 -24t-18.5 -66q-17 19 -17 47q0 32 23 56t68 24q41 0 70 -26.5t29 -70.5q0 -46 -38 -98q-17 -25 -61 -71l-33 -37l-8 -10h95q19 0 33 6t23 13t13 9l-14 -65h-216z" />
    <glyph glyph-name="uni00B3" unicode="&#xb3;" horiz-adv-x="304" 
d="M174 646.5q-16 16.5 -38 16.5q-28 0 -45 -22.5t-17 -57.5q-16 22 -16 46q0 29 24 50t59 21q37 0 64.5 -22t27.5 -57q0 -21 -14 -42.5t-40 -35.5q37 -9 57 -33.5t20 -55.5q0 -48 -33.5 -78.5t-87.5 -30.5q-52 0 -91 26v51q15 -23 39.5 -35.5t50.5 -12.5q34 0 53 19.5
t19 50.5q0 35 -23 53.5t-56 18.5h-13v13q32 8 54 29t22 49q0 23 -16 39.5z" />
    <glyph glyph-name="fraction" unicode="&#x2044;" horiz-adv-x="80" 
d="M-160 0l355 688h45l-353 -688h-47z" />
    <glyph glyph-name="onehalf" unicode="&#xbd;" horiz-adv-x="696" 
d="M81 403q65 75 89 113q12 22 18 40t6 38q0 33 -17 51t-40 18q-30 0 -48.5 -24t-18.5 -66q-17 19 -17 47q0 32 23 56t68 24q41 0 70 -26.5t29 -70.5q0 -46 -38 -98q-17 -25 -61 -71l-33 -37l-8 -10h95q19 0 33 6t23 13t13 9l-14 -65h-216zM384 406v249l-27 -1q-9 -1 -25 -1
v9l98 47v-303q0 -41 30 -56h-106q30 15 30 56zM456 0l355 688h45l-353 -688h-47z" />
    <glyph glyph-name="onequarter" unicode="&#xbc;" horiz-adv-x="672" 
d="M128 406v249l-27 -1q-9 -1 -25 -1v9l98 47v-303q0 -41 30 -56h-106q30 15 30 56zM112 0l355 688h45l-353 -688h-47zM338 103l214 298v-265h53v-33h-53v-47q0 -41 30 -56h-108q30 15 30 56v47h-166zM504 280l-102 -144h102v144z" />
    <glyph glyph-name="threequarters" unicode="&#xbe;" horiz-adv-x="672" 
d="M174 646.5q-16 16.5 -38 16.5q-28 0 -45 -22.5t-17 -57.5q-16 22 -16 46q0 29 24 50t59 21q37 0 64.5 -22t27.5 -57q0 -21 -14 -42.5t-40 -35.5q37 -9 57 -33.5t20 -55.5q0 -48 -33.5 -78.5t-87.5 -30.5q-52 0 -91 26v51q15 -23 39.5 -35.5t50.5 -12.5q34 0 53 19.5
t19 50.5q0 35 -23 53.5t-56 18.5h-13v13q32 8 54 29t22 49q0 23 -16 39.5zM112 0l355 688h45l-353 -688h-47zM345 103l207 296v-263h53v-33h-53v-47q0 -41 30 -56h-108q30 15 30 56v47h-159zM504 278l-102 -142h102v142z" />
    <glyph glyph-name="asterisk" unicode="*" horiz-adv-x="340" 
d="M247 554.5q35 -13.5 55 -13.5l-49 -67l-13 21.5t-25 36.5t-29 32q-3 -9 -5.5 -29.5t-2.5 -40.5q0 -24 6 -41l-80 25q4 4 17 19.5t28 36t22 36.5q-18 -2 -42 -9t-42.5 -14l-23.5 -9v82q5 -2 23.5 -10t43 -15.5t42.5 -8.5q-7 16 -21.5 36.5t-27 36t-16.5 19.5l78 26
q-4 -15 -4 -41q0 -41 7 -74q13 12 28 32.5t25 37.5l13 22l49 -68q-18 0 -54.5 -14t-52.5 -22q16 -9 51 -22.5z" />
    <glyph glyph-name="backslash" unicode="\" 
d="M97 727l315 -756h-48l-312 756h45z" />
    <glyph glyph-name="periodcentered" unicode="&#xb7;" horiz-adv-x="256" 
d="M92.5 173.5q-15.5 13.5 -15.5 37.5t15 37t36 13t36 -13t15 -37t-15.5 -37.5t-35.5 -13.5t-35.5 13.5z" />
    <glyph glyph-name="bullet" unicode="&#x2022;" horiz-adv-x="496" 
d="M314 280.5q24 -27.5 24 -65.5q0 -37 -24 -65t-66 -28t-66 28t-24 65q0 38 24 65.5t66 27.5t66 -27.5z" />
    <glyph glyph-name="colon" unicode=":" horiz-adv-x="256" 
d="M92.5 3.5q-15.5 13.5 -15.5 37.5t15 37t36 13t36 -13t15 -37t-15.5 -37.5t-35.5 -13.5t-35.5 13.5zM92.5 280.5q-15.5 13.5 -15.5 37.5t15 37t36 13t36 -13t15 -37t-15.5 -37.5t-35.5 -13.5t-35.5 13.5z" />
    <glyph glyph-name="comma" unicode="," horiz-adv-x="256" 
d="M116.5 -87.5q18.5 35.5 18.5 70.5q0 9 -1 13h-7q-25 0 -38 13.5t-13 32.5q0 20 13.5 34.5t36.5 14.5q25 0 43.5 -20.5t18.5 -59.5q0 -31 -13 -63.5t-40 -55.5t-64 -25q27 10 45.5 45.5z" />
    <glyph glyph-name="ellipsis" unicode="&#x2026;" horiz-adv-x="768" 
d="M92.5 3.5q-15.5 13.5 -15.5 37.5t15 37t36 13t36 -13t15 -37t-15.5 -37.5t-35.5 -13.5t-35.5 13.5zM348.5 3.5q-15.5 13.5 -15.5 37.5t15 37t36 13t36 -13t15 -37t-15.5 -37.5t-35.5 -13.5t-35.5 13.5zM604.5 3.5q-15.5 13.5 -15.5 37.5t15 37t36 13t36 -13t15 -37
t-15.5 -37.5t-35.5 -13.5t-35.5 13.5z" />
    <glyph glyph-name="exclam" unicode="!" horiz-adv-x="319" 
d="M128 592q0 43 -4 64t-9.5 28t-5.5 4h99q-5 0 -10.5 -18t-5.5 -78v-238q0 -66 -7 -105q-6 -31 -14 -59.5t-11 -36.5q-3 8 -10.5 36.5t-13.5 58.5q-8 37 -8 107v237zM197 75q13 -15 13 -35q0 -21 -13 -36t-36 -15t-35.5 15t-12.5 36t12.5 35.5t35.5 14.5t36 -15z" />
    <glyph glyph-name="exclamdown" unicode="&#xa1;" horiz-adv-x="304" 
d="M123 379q-13 15 -13 35q0 21 13 36t36 15t35.5 -15t12.5 -36t-12.5 -35.5t-35.5 -14.5t-36 15zM196 -200q4 -21 9.5 -28t5.5 -4h-100q5 0 11 18.5t6 77.5v238q0 67 7 105q6 31 14 59.5t11 36.5q3 -8 10.5 -36.5t13.5 -58.5q8 -37 8 -107v-237q0 -43 4 -64z" />
    <glyph glyph-name="numbersign" unicode="#" horiz-adv-x="484" 
d="M351 194h79v-40h-87l-31 -154h-46l31 154h-131l-31 -154h-46l31 154h-74v40h82l26 130h-80v40h88l28 142h46l-28 -142h131l29 142h45l-28 -142h71v-40h-79zM174 194h131l26 130h-131z" />
    <glyph glyph-name="period" unicode="." horiz-adv-x="256" 
d="M92.5 3.5q-15.5 13.5 -15.5 37.5t15 37t36 13t36 -13t15 -37t-15.5 -37.5t-35.5 -13.5t-35.5 13.5z" />
    <glyph glyph-name="question" unicode="?" horiz-adv-x="444" 
d="M193 155q-26 21 -39 46t-13 50q0 41 20.5 73t60.5 73q42 44 62.5 76t20.5 76q0 53 -32.5 81.5t-78.5 28.5q-39 0 -76 -22t-60 -56v85q66 32 144 32q85 0 133.5 -41t48.5 -108q0 -52 -26.5 -90.5t-78.5 -87.5q-33 -33 -51 -53t-31 -46t-13 -56q0 -18 9 -61zM145.5 3.5
q-15.5 13.5 -15.5 37.5t15 37t36 13t36 -13t15 -37t-15.5 -37.5t-35.5 -13.5t-35.5 13.5z" />
    <glyph glyph-name="questiondown" unicode="&#xbf;" horiz-adv-x="400" 
d="M266.5 450q12.5 -15 12.5 -36t-12.5 -35.5t-35.5 -14.5t-36 15t-13 35q0 21 13 36t36 15t35.5 -15zM218 300q26 -21 39.5 -46t13.5 -50q0 -42 -20.5 -73.5t-61.5 -73.5q-42 -44 -62.5 -76t-20.5 -76q0 -53 32.5 -81.5t78.5 -28.5q40 0 77 22t60 56v-85q-66 -32 -145 -32
q-85 0 -133.5 41t-48.5 108q0 36 14.5 67t35 55t55.5 57q48 46 71.5 79t23.5 76q0 18 -9 61z" />
    <glyph glyph-name="quotedbl" unicode="&#x22;" horiz-adv-x="448" 
d="M121.5 407.5q-7.5 24.5 -14.5 64t-7 82.5v134h64v-134q0 -43 -7 -82.5t-14.5 -64t-10.5 -30.5q-3 6 -10.5 30.5zM304.5 408.5q-7.5 24.5 -14.5 63.5t-7 82v134h65v-134q0 -43 -7.5 -82t-15 -63.5t-10.5 -30.5q-3 6 -10.5 30.5z" />
    <glyph glyph-name="quotesingle" unicode="'" horiz-adv-x="224" 
d="M115 688h64l-71 -218h-64z" />
    <glyph glyph-name="semicolon" unicode=";" horiz-adv-x="256" 
d="M116.5 -87.5q18.5 35.5 18.5 70.5q0 9 -1 13h-7q-25 0 -38 13.5t-13 32.5q0 20 13.5 34.5t36.5 14.5q25 0 43.5 -20.5t18.5 -59.5q0 -31 -13 -63.5t-40 -55.5t-64 -25q27 10 45.5 45.5zM92.5 280.5q-15.5 13.5 -15.5 37.5t15 37t36 13t36 -13t15 -37t-15.5 -37.5
t-35.5 -13.5t-35.5 13.5z" />
    <glyph glyph-name="slash" unicode="/" horiz-adv-x="412" 
d="M52 -29l315 756h45l-312 -756h-48z" />
    <glyph glyph-name="underscore" unicode="_" 
d="M0 -64h464v-40h-464v40z" />
    <glyph glyph-name="braceleft" unicode="{" horiz-adv-x="368" 
d="M200 124v-244q0 -35 12.5 -57.5t40.5 -22.5h71v-32h-37q-72 0 -115.5 22.5t-43.5 88.5v273q0 47 -14.5 63.5t-50.5 16.5h-46v32h46q36 0 50.5 16.5t14.5 63.5v272q0 66 43.5 88.5t115.5 22.5h37v-32h-71q-29 0 -41 -18.5t-12 -51.5v-253q0 -103 -99 -124q99 -21 99 -124z
" />
    <glyph glyph-name="braceright" unicode="}" horiz-adv-x="368" 
d="M156 676.5q-12 18.5 -41 18.5h-71v32h37q72 0 115.5 -22.5t43.5 -88.5v-272q0 -47 14.5 -63.5t51.5 -16.5h46v-32h-46q-37 0 -51.5 -16.5t-14.5 -63.5v-273q0 -66 -43.5 -88.5t-115.5 -22.5h-37v32h71q28 0 40.5 22.5t12.5 57.5v244q0 46 23.5 79.5t76.5 44.5
q-100 21 -100 124v253q0 33 -12 51.5z" />
    <glyph glyph-name="bracketleft" unicode="[" horiz-adv-x="368" 
d="M80 727h244v-40h-180v-879h180v-40h-244v959z" />
    <glyph glyph-name="bracketright" unicode="]" horiz-adv-x="368" 
d="M44 -192h180v879h-180v40h244v-959h-244v40z" />
    <glyph glyph-name="parenleft" unicode="(" horiz-adv-x="368" 
d="M341 731q-98 -89 -149 -216t-51 -267t51 -267t149 -216l-15 -8q-129 84 -197 216t-68 275t68 275t197 216z" />
    <glyph glyph-name="parenright" unicode=")" horiz-adv-x="368" 
d="M27 -235q98 89 149 216t51 267t-51 267t-149 216l15 8q129 -84 197 -216t68 -275t-68 -275t-197 -216z" />
    <glyph glyph-name="emdash" unicode="&#x2014;" horiz-adv-x="1000" 
d="M72 242h856v-54h-856v54z" />
    <glyph glyph-name="endash" unicode="&#x2013;" horiz-adv-x="560" 
d="M72 242h416v-54h-416v54z" />
    <glyph glyph-name="hyphen" unicode="-" horiz-adv-x="304" 
d="M64 242h176v-58h-176v58z" />
    <glyph glyph-name="uni00AD" unicode="&#xad;" horiz-adv-x="304" 
d="M64 238h176v-58h-176v58z" />
    <glyph glyph-name="guillemotleft" unicode="&#xab;" horiz-adv-x="448" 
d="M75 204l94 148h52l-88 -148l88 -152h-52zM227 204l94 148h52l-88 -148l88 -152h-52z" />
    <glyph glyph-name="guillemotright" unicode="&#xbb;" horiz-adv-x="448" 
d="M75 52l86 150l-86 150h51l95 -150l-95 -150h-51zM227 52l86 150l-86 150h51l95 -150l-95 -150h-51z" />
    <glyph glyph-name="guilsinglleft" unicode="&#x2039;" horiz-adv-x="304" 
d="M79 204l94 148h52l-88 -148l88 -152h-52z" />
    <glyph glyph-name="guilsinglright" unicode="&#x203a;" horiz-adv-x="304" 
d="M79 52l86 150l-86 150h51l95 -150l-95 -150h-51z" />
    <glyph glyph-name="quotedblbase" unicode="&#x201e;" horiz-adv-x="448" 
d="M121.5 -87.5q18.5 35.5 18.5 70.5q0 9 -1 13h-7q-25 0 -38 13.5t-13 32.5q0 20 13.5 34.5t36.5 14.5q25 0 43.5 -20.5t18.5 -59.5q0 -31 -13 -63.5t-40 -55.5t-64 -25q27 10 45.5 45.5zM293.5 -87.5q18.5 35.5 18.5 70.5q0 9 -1 13h-7q-25 0 -38 13.5t-13 32.5
q0 20 13.5 34.5t36.5 14.5q25 0 43.5 -20.5t18.5 -59.5q0 -31 -13 -63.5t-40 -55.5t-64 -25q27 10 45.5 45.5z" />
    <glyph glyph-name="quotedblleft" unicode="&#x201c;" horiz-adv-x="448" 
d="M138 584h7q25 0 38 -13t13 -32q0 -20 -13.5 -34.5t-36.5 -14.5q-25 0 -43.5 20.5t-18.5 59.5q0 31 13 63.5t40 55.5t64 25q-27 -10 -45.5 -46t-18.5 -71q0 -9 1 -13zM310 584h7q25 0 38 -13t13 -32q0 -20 -13.5 -34.5t-36.5 -14.5q-25 0 -43.5 20.5t-18.5 59.5
q0 31 13 63.5t40 55.5t64 25q-27 -10 -45.5 -46t-18.5 -71q0 -9 1 -13z" />
    <glyph glyph-name="quotedblright" unicode="&#x201d;" horiz-adv-x="448" 
d="M121.5 522q18.5 36 18.5 71q0 9 -1 13h-7q-25 0 -38 13t-13 32q0 20 13.5 34.5t36.5 14.5q25 0 43.5 -20.5t18.5 -59.5q0 -31 -13 -63.5t-40 -55.5t-64 -25q27 10 45.5 46zM292.5 522q18.5 36 18.5 71q0 9 -1 13h-7q-25 0 -38 13t-13 32q0 20 13.5 34.5t36.5 14.5
q25 0 43.5 -20.5t18.5 -59.5q0 -31 -13 -63.5t-40 -55.5t-64 -25q27 10 45.5 46z" />
    <glyph glyph-name="quoteleft" unicode="&#x2018;" horiz-adv-x="224" 
d="M116 584h7q25 0 38 -13t13 -32q0 -20 -13.5 -34.5t-36.5 -14.5q-25 0 -43.5 20.5t-18.5 59.5q0 31 13 63.5t40 55.5t64 25q-27 -10 -45.5 -46t-18.5 -71q0 -9 1 -13z" />
    <glyph glyph-name="quoteright" unicode="&#x2019;" horiz-adv-x="224" 
d="M89.5 522q18.5 36 18.5 71q0 9 -1 13h-7q-25 0 -38 13t-13 32q0 20 13.5 34.5t36.5 14.5q25 0 43.5 -20.5t18.5 -59.5q0 -31 -13 -63.5t-40 -55.5t-64 -25q27 10 45.5 46z" />
    <glyph glyph-name="quotesinglbase" unicode="&#x201a;" horiz-adv-x="224" 
d="M106.5 -87.5q18.5 35.5 18.5 70.5q0 9 -1 13h-7q-25 0 -38 13.5t-13 32.5q0 20 13.5 34.5t36.5 14.5q25 0 43.5 -20.5t18.5 -59.5q0 -31 -13 -63.5t-40 -55.5t-64 -25q27 10 45.5 45.5z" />
    <glyph glyph-name="uni05F3" unicode="&#x5f3;" horiz-adv-x="165" 
d="M46 425q0 28 -3 55h92q-29 -125 -67 -170l-38 1q16 55 16 114z" />
    <glyph glyph-name="uni05BE" unicode="&#x5be;" horiz-adv-x="231" 
d="M20 402h176v-64h-176v64z" />
    <glyph glyph-name="uni00A0" unicode="&#xa0;" horiz-adv-x="256" 
 />
    <glyph glyph-name="cent" unicode="&#xa2;" horiz-adv-x="400" 
d="M246 76h-40v147q-59 8 -101.5 53.5t-42.5 117.5q0 81 42 133.5t102 67.5v132h40v-129q38 -1 61.5 -9t45.5 -27l-32 -61q-28 43 -75 52v-286q35 3 67.5 24t52.5 56q-8 -54 -41 -86t-79 -38v-147zM144.5 510.5q-22.5 -37.5 -22.5 -85.5q0 -65 23 -102.5t61 -49.5v281
q-39 -6 -61.5 -43.5z" />
    <glyph glyph-name="currency" unicode="&#xa4;" horiz-adv-x="455" 
d="M325 68q-39 -29 -89 -29q-53 0 -89 29l-44 -41l-29 30l42 42q-30 39 -30 89t30 90l-40 41l30 31l41 -42q21 16 42 23.5t47 7.5q48 0 89 -31l43 42l28 -31l-40 -41q15 -20 21.5 -41t6.5 -48q0 -51 -29 -90l41 -43l-30 -30zM159.5 267q-31.5 -31 -31.5 -78q0 -46 31 -77.5
t77 -31.5q45 0 76.5 31t31.5 78t-31.5 78t-76.5 31t-76.5 -31z" />
    <glyph glyph-name="dollar" unicode="$" horiz-adv-x="504" 
d="M265.5 -63q1.5 -31 2.5 -43h-46q0 12 1.5 42.5t1.5 57.5q-93 5 -156 55v131q23 -67 65 -103t91 -42v292q-50 25 -81 46t-51.5 55.5t-20.5 85.5q0 77 43.5 124t109.5 54q0 26 -1.5 56.5t-1.5 42.5h46q-1 -12 -2.5 -43t-1.5 -55q38 -2 72.5 -13t60.5 -31v-118
q-23 56 -58 85.5t-75 35.5v-269q55 -28 89 -51t58 -61t24 -94q0 -79 -49.5 -126.5t-121.5 -54.5q0 -28 1.5 -59zM225 652q-44 -5 -73 -38t-29 -84q0 -44 26 -73t76 -55v250zM264 35q47 7 79.5 40.5t32.5 82.5q0 55 -29 88t-83 62v-273z" />
    <glyph glyph-name="Euro" unicode="&#x20ac;" horiz-adv-x="560" 
d="M206 625q69 75 174 75q39 0 81 -12t71 -31l-32 -76q-26 36 -62 58.5t-77 22.5q-68 0 -114.5 -64.5t-64.5 -162.5h254l-17 -40h-242q-3 -28 -3 -57t1 -43h202l-16 -40h-181q16 -105 70 -158.5t125 -53.5q42 0 83 19t74 55q-2 -33 -27 -63t-64 -48t-82 -18
q-104 0 -168.5 75.5t-81.5 191.5h-88l16 40h68q-1 12 -1 36q0 36 4 64h-87l16 40h77q23 115 92 190z" />
    <glyph glyph-name="florin" unicode="&#x192;" horiz-adv-x="345" 
d="M306 648q-8 5 -19 9.5t-21 4.5q-16 0 -26 -11t-17.5 -43t-13.5 -93l-22 -220h54l-9 -34h-47l-16 -192q-7 -81 -39 -145.5t-101 -64.5q-35 0 -67 17l28 42q2 -2 9.5 -7t18.5 -9.5t21 -4.5q26 0 41 32.5t23 117.5l20 214h-51l9 34h43l20 197q8 84 40 146t103 62
q34 0 62 -14l-33 -45q-2 2 -10 7z" />
    <glyph glyph-name="franc" unicode="&#x20a3;" horiz-adv-x="480" 
d="M192 648v-284h153v-40h-153v-231q0 -50 15 -70.5t28 -22.5h-149q12 2 27 21.5t15 71.5v231h-89v40h89v226q0 55 -15 75t-28 23h338v-102q-5 24 -28 43t-65 19h-138z" />
    <glyph glyph-name="lira" unicode="&#x20a4;" horiz-adv-x="480" 
d="M167 531q12 73 59.5 121t119.5 48q22 0 41.5 -6t26.5 -20l-37 -61q-3 21 -21.5 36t-40.5 15q-37 0 -60 -30t-28 -76q-5 -57 -7 -131h124l-13 -40h-111q0 -19 -2 -55l-1 -27h127l-13 -40h-117q-4 -40 -7 -60q-7 -44 -17.5 -69t-28.5 -41.5t-52 -35.5q31 -2 83 -8
q72 -8 101 -8q57 0 95 18t52 45l10 -73q-13 -19 -44 -31.5t-74 -12.5q-41 0 -109 19q-38 9 -61.5 13.5t-48.5 4.5q-22 0 -50.5 -10.5t-45.5 -22.5v58q70 3 97 45.5t31 111.5l3 57h-95l13 40h83q2 54 4 82h-100l13 40h89q5 55 12 104z" />
    <glyph glyph-name="peseta" unicode="&#x20a7;" horiz-adv-x="1196" 
d="M441.5 357q-56.5 -56 -159.5 -56q-42 0 -90 9v-218q0 -39 10 -59.5t22 -27.5t12 -5h-151q0 -2 12 5t21.5 27t9.5 60v501q0 40 -9.5 61t-21.5 28.5t-12 5.5h178q51 0 84 -6.5t58 -19.5q45 -23 69 -66.5t24 -93.5q0 -89 -56.5 -145zM387 604q-44 44 -117 44h-78v-299
q43 -8 90 -8q70 0 109.5 40.5t39.5 107.5q0 71 -44 115zM645 21.5q-25 33.5 -25 80.5v222h-56l120 136v-96h128v-40h-128v-211q0 -38 20 -57.5t46 -19.5q20 0 39 12t31 33q-15 -93 -101 -93q-49 0 -74 33.5zM953 -2q-32 10 -53 26v88q19 -47 51.5 -67.5t70.5 -20.5
q31 0 50.5 16t19.5 35q0 22 -20 37.5t-61 34.5q-53 26 -82 50.5t-29 65.5q0 45 34 77t89 32q38 0 66 -9t42 -20l-16 -75q-12 34 -41 51t-60 17q-27 0 -42.5 -14.5t-15.5 -34.5q0 -25 20 -40t62 -35q35 -16 57 -29.5t37.5 -35t15.5 -52.5q0 -44 -36 -75.5t-97 -31.5
q-30 0 -62 10z" />
    <glyph glyph-name="uni20AA" unicode="&#x20aa;" horiz-adv-x="634" 
d="M256 366h-86q-26 -3 -34 -36.5t-8 -83.5v-112q1 -41 3.5 -65t6.5 -53l-70 -29v245q0 57 19.5 90t38.5 44h-76l55 90q3 -12 8.5 -17t16.5 -5h149q122 0 122 -136v-142h-59v117q0 93 -86 93zM568 391q16 -20 16 -64q0 -163 -66.5 -249t-198.5 -86q-33 0 -57 4.5t-32 12.5
q-4 28 -12 120q-9 95 -16 151h60q4 -27 9 -73q10 -88 18 -141q27 -4 65 -4q96 0 128 27q15 12 25 72.5t10 134.5q0 25 -5.5 38t-17 21.5t-43.5 28.5l35 72q4 -11 23 -21t23 -13q20 -11 36 -31z" />
    <glyph glyph-name="sterling" unicode="&#xa3;" horiz-adv-x="480" 
d="M223 8q-38 9 -61.5 13.5t-48.5 4.5q-22 0 -50.5 -10.5t-45.5 -22.5v58q69 3 95.5 45t32.5 113l6 115h-81v40h84q1 21 4.5 82t8.5 85q15 74 61.5 121.5t117.5 47.5q22 0 41.5 -6t26.5 -20l-37 -61q-3 21 -21.5 36t-40.5 15q-37 0 -60 -30t-28 -76q-4 -38 -4 -136
q0 -46 -1 -58h106v-40h-106q-5 -87 -9 -113q-10 -63 -32 -93.5t-72 -58.5q31 -2 83 -8q72 -8 101 -8q57 0 95 18t52 45l10 -73q-13 -19 -44 -31.5t-74 -12.5q-41 0 -109 19z" />
    <glyph glyph-name="yen" unicode="&#xa5;" horiz-adv-x="560" 
d="M492.5 666q-23.5 -20 -54.5 -74l-111 -195h131v-40h-146v-100h146v-40h-146v-126q0 -39 14.5 -63.5t31.5 -27.5h-155q17 4 31 26.5t14 64.5v126h-146v40h146v100h-146v40h131l-118 196q-31 51 -51.5 71t-30.5 24h154q-9 -2 -18.5 -9t-9.5 -24q0 -21 20 -56l111 -192
l104 187q19 34 19 58q0 19 -10.5 27t-20.5 9h145q-11 -2 -34.5 -22z" />
    <glyph glyph-name="uni2219" unicode="&#x2219;" horiz-adv-x="256" 
d="M92.5 173.5q-15.5 13.5 -15.5 37.5t15 37t36 13t36 -13t15 -37t-15.5 -37.5t-35.5 -13.5t-35.5 13.5z" />
    <glyph glyph-name="uni2215" unicode="&#x2215;" horiz-adv-x="80" 
d="M-160 0l355 688h45l-353 -688h-47z" />
    <glyph glyph-name="plus" unicode="+" horiz-adv-x="560" 
d="M72 188v54h180v188h56v-188h180v-54h-180v-188h-56v188h-180z" />
    <glyph glyph-name="minus" unicode="&#x2212;" horiz-adv-x="560" 
d="M72 242h416v-54h-416v54z" />
    <glyph glyph-name="multiply" unicode="&#xd7;" horiz-adv-x="560" 
d="M280 176l-173 -174l-38 39l173 173l-173 175l37 37l174 -175l173 175l38 -38l-173 -175l173 -173l-38 -38z" />
    <glyph glyph-name="divide" unicode="&#xf7;" horiz-adv-x="560" 
d="M245.5 334.5q-12.5 14.5 -12.5 33.5t12.5 33.5t34.5 14.5t34.5 -14.5t12.5 -33.5t-12.5 -33.5t-34.5 -14.5t-34.5 14.5zM72 242h416v-54h-416v54zM245.5 28.5q-12.5 14.5 -12.5 33.5t12.5 33.5t34.5 14.5t34.5 -14.5t12.5 -33.5t-12.5 -33.5t-34.5 -14.5t-34.5 14.5z" />
    <glyph glyph-name="equal" unicode="=" horiz-adv-x="560" 
d="M72 334h416v-54h-416v54zM72 155h416v-54h-416v54z" />
    <glyph glyph-name="notequal" unicode="&#x2260;" horiz-adv-x="560" 
d="M161 0h-61l70 101h-98v54h135l87 125h-222v54h259l70 101h59l-70 -101h98v-54h-135l-86 -125h221v-54h-258z" />
    <glyph glyph-name="greater" unicode="&#x3e;" horiz-adv-x="560" 
d="M97 55l299 160v3l-299 158v62l366 -201v-45l-366 -200v63z" />
    <glyph glyph-name="less" unicode="&#x3c;" horiz-adv-x="560" 
d="M97 238l366 201v-62l-298 -161v-4l298 -156v-63l-366 200v45z" />
    <glyph glyph-name="greaterequal" unicode="&#x2265;" horiz-adv-x="560" 
d="M97 176l298 156v4l-298 161v62l366 -201v-45l-366 -200v63zM97 54h366v-54h-366v54z" />
    <glyph glyph-name="lessequal" unicode="&#x2264;" horiz-adv-x="560" 
d="M97 358l366 201v-62l-298 -161v-4l298 -156v-63l-366 200v45zM97 54h366v-54h-366v54z" />
    <glyph glyph-name="plusminus" unicode="&#xb1;" horiz-adv-x="560" 
d="M308 107h-56v152h-175v54h175v150h56v-150h175v-54h-175v-152zM77 54h406v-54h-406v54z" />
    <glyph glyph-name="approxequal" unicode="&#x2248;" horiz-adv-x="560" 
d="M447.5 275q-31.5 -12 -64.5 -12q-31 0 -57 5.5t-61 15.5q-54 18 -90 18q-26 0 -51.5 -10t-44.5 -31l-20 44q20 26 50.5 38t63.5 12q28 0 50 -5t55 -15q34 -10 55 -14.5t48 -4.5t54 9.5t43 29.5l21 -41q-20 -27 -51.5 -39zM447.5 97q-31.5 -12 -64.5 -12q-30 0 -54.5 5
t-60.5 16q-33 9 -52 13.5t-41 4.5q-26 0 -51.5 -10t-44.5 -31l-20 45q20 26 50.5 38t63.5 12q28 0 50 -5t55 -15q34 -10 55 -14.5t48 -4.5t54 9.5t43 29.5l21 -42q-20 -27 -51.5 -39z" />
    <glyph glyph-name="asciitilde" unicode="~" horiz-adv-x="560" 
d="M327.5 172.5q-26.5 10.5 -66.5 32.5q-31 17 -48.5 25t-34.5 8q-42 0 -43 -70h-57q0 65 30.5 97t75.5 32q28 0 53.5 -10.5t63.5 -31.5q29 -17 47 -25t35 -8q39 0 41 70h56q0 -64 -24.5 -97t-71.5 -33q-30 0 -56.5 10.5z" />
    <glyph glyph-name="logicalnot" unicode="&#xac;" horiz-adv-x="560" 
d="M440 257h-362v54h416v-205h-54v151z" />
    <glyph glyph-name="infinity" unicode="&#x221e;" horiz-adv-x="832" 
d="M332.5 94.5q-42.5 -35.5 -102.5 -35.5q-54 0 -91 26.5t-55 69.5t-18 93t18 94t55 71t90 27q67 0 110.5 -36.5t82.5 -103.5q42 67 84.5 104t99.5 37q78 0 118.5 -55t40.5 -133q0 -50 -18 -94.5t-54.5 -72t-89.5 -27.5q-64 0 -107.5 35.5t-81.5 99.5q-39 -64 -81.5 -99.5z
M337 321.5q-21 29.5 -50 49t-67 19.5q-53 0 -82 -42t-29 -97q0 -58 31.5 -102t89.5 -44q45 0 79.5 35t76.5 103q-28 49 -49 78.5zM495.5 173.5q20.5 -29.5 49.5 -49t67 -19.5q53 0 82 42.5t29 98.5q0 57 -29 100.5t-82 43.5q-51 0 -87 -35.5t-76 -103.5q26 -48 46.5 -77.5z
" />
    <glyph glyph-name="integral" unicode="&#x222b;" horiz-adv-x="364" 
d="M172.5 706.5q30.5 33.5 85.5 33.5q36 0 72 -9v-78q-9 13 -27 23.5t-35 10.5q-26 0 -41.5 -19t-15.5 -52v-724q0 -63 -30.5 -97t-84.5 -34q-23 0 -38 2.5t-35 7.5v78q35 -35 62 -35q26 0 41.5 19t15.5 53v724q0 63 30.5 96.5z" />
    <glyph glyph-name="uni2126" unicode="&#x2126;" horiz-adv-x="848" 
d="M592.5 56.5q49.5 45.5 80.5 118.5t31 162q0 91 -37.5 164.5t-103 115t-147.5 41.5q-75 0 -133.5 -38t-91.5 -107.5t-33 -161.5q0 -132 54.5 -222t155.5 -129h-320q-4 37 -17 133q18 -36 37 -53t51.5 -23.5t95.5 -6.5q-61 43 -99 117t-38 169q0 106 45.5 189t128 129
t190.5 46q90 0 168.5 -39.5t126 -118.5t47.5 -190q0 -97 -39 -175.5t-109 -126.5h43q51 0 77.5 7.5t41 23.5t32.5 52q-13 -96 -17 -133h-326q56 11 105.5 56.5z" />
    <glyph glyph-name="uni2206" unicode="&#x2206;" horiz-adv-x="696" 
d="M353 720l297 -720h-610zM275 434l-45 -104l-117 -274h433l-211 519z" />
    <glyph glyph-name="product" unicode="&#x220f;" horiz-adv-x="800" 
d="M687.5 -136.5q15.5 -19.5 30.5 -22.5h-165q14 2 30.5 21t16.5 72v714h-400v-714q0 -52 15 -71t31 -22h-164q14 2 30 21t16 72v662q0 51 -15.5 70t-30.5 22h636q-14 -2 -30 -20.5t-16 -71.5v-662q0 -51 15.5 -70.5z" />
    <glyph glyph-name="summation" unicode="&#x2211;" horiz-adv-x="704" 
d="M629 688v-112q-1 3 -8 22.5t-33.5 34.5t-70.5 15h-353l262 -376l-275 -391h378q51 0 80.5 22.5t46.5 61.5l-5 -43q-9 -70 -10 -81h-603l306 431l-296 416h581z" />
    <glyph glyph-name="radical" unicode="&#x221a;" horiz-adv-x="548" 
d="M32 188l123 63l38 -84l122 -271l32 186l110 633h57l-77 -457l-78 -458h-67l-170 375l-69 -35z" />
    <glyph glyph-name="partialdiff" unicode="&#x2202;" horiz-adv-x="531" 
d="M59 663q19 14 54 24.5t75 10.5q90 0 158 -59t105 -154t37 -197q0 -90 -30 -158t-84 -105t-125 -37q-63 0 -110 31t-71.5 83t-24.5 114q0 64 25 116t70 82t102 30q33 0 74.5 -13t84.5 -45q-30 127 -84.5 190t-130.5 63q-23 0 -50 -7t-50 -20q-25 48 -25 51zM133 131
q18 -41 50 -64t73 -23q45 0 80.5 26.5t55.5 74t20 108.5q0 37 -7 85q-75 51 -153 51q-61 0 -99 -45.5t-38 -119.5q0 -52 18 -93z" />
    <glyph glyph-name="uni00B5" unicode="&#xb5;" horiz-adv-x="437" 
d="M304 47q-20 -28 -45 -43t-50 -15q-32 0 -54 22v-243h-63l-1 498q0 41 -12.5 63t-28 30t-15.5 5h121v-235q0 -45 19.5 -68t48.5 -23t52 22t23 58v155q0 39 -10.5 59t-23.5 27t-13 5h111l-1 -256q0 -43 13.5 -58.5t29.5 -15.5q4 0 6 0.5t3 0.5l-108 -54z" />
    <glyph glyph-name="percent" unicode="%" horiz-adv-x="520" 
d="M74.5 505.5q-30.5 29.5 -30.5 82.5q0 32 16 57.5t41.5 39.5t53.5 14q44 0 75 -29t31 -82q0 -28 -15.5 -54t-41.5 -42t-55 -16q-44 0 -74.5 29.5zM59 0l356 688h45l-354 -688h-47zM104.5 644q-18.5 -20 -18.5 -56t19.5 -56.5t46.5 -20.5q32 0 49 21.5t17 55.5
q0 36 -19.5 56t-46.5 20q-29 0 -47.5 -20zM291 18q-31 29 -31 82q0 28 15.5 54t41 42t54.5 16q44 0 74.5 -29.5t30.5 -82.5q0 -27 -15 -53t-40.5 -42t-55.5 -16q-43 0 -74 29zM320 154q-18 -23 -18 -54q0 -36 19.5 -56t46.5 -20q29 0 48 22t19 54q0 36 -20 56.5t-47 20.5
q-30 0 -48 -23z" />
    <glyph glyph-name="perthousand" unicode="&#x2030;" horiz-adv-x="784" 
d="M74.5 505.5q-30.5 29.5 -30.5 82.5q0 32 16 57.5t41.5 39.5t53.5 14q44 0 75 -29t31 -82q0 -28 -15.5 -54t-41.5 -42t-55 -16q-44 0 -74.5 29.5zM59 0l356 688h45l-354 -688h-47zM104.5 644q-18.5 -20 -18.5 -56t19.5 -56.5t46.5 -20.5q32 0 49 21.5t17 55.5
q0 36 -19.5 56t-46.5 20q-29 0 -47.5 -20zM291 18q-31 29 -31 82q0 28 15.5 54t41 42t54.5 16q44 0 74.5 -29.5t30.5 -82.5q0 -27 -15 -53t-40.5 -42t-55.5 -16q-43 0 -74 29zM555 18q-31 29 -31 82q0 28 15.5 54t41 42t54.5 16q44 0 74.5 -29.5t30.5 -82.5q0 -27 -15 -53
t-40.5 -42t-55.5 -16q-43 0 -74 29zM320 154q-18 -23 -18 -54q0 -36 19.5 -56t46.5 -20q29 0 48 22t19 54q0 36 -20 56.5t-47 20.5q-30 0 -48 -23zM584 154q-18 -23 -18 -54q0 -36 19.5 -56t46.5 -20q29 0 48 22t19 54q0 36 -20 56.5t-47 20.5q-30 0 -48 -23z" />
    <glyph glyph-name="lozenge" unicode="&#x25ca;" horiz-adv-x="500" 
d="M250 704l170 -363l-170 -361l-170 363zM250 98l114 244l-114 243l-115 -243z" />
    <glyph glyph-name="uniF8FF" unicode="&#xf8ff;" horiz-adv-x="860" 
d="M58 301q-8 3 -8 15v181q0 9 2.5 14.5t10.5 11.5l349 200q7 5 19 5q6 0 18 -5l346 -199q15 -8 15 -33v-158q0 -8 -7 -8l-7 2l-341 197q-11 7 -24 7q-9 0 -25 -8l-146 -83q-18 -10 -18 -30q0 -8 5 -16.5t13 -12.5l322 -186q9 -4 9 -12t-9 -12l-140 -79q-7 -4 -11 -4
q-7 0 -12 4zM65 70q-15 8 -15 33v158q0 8 7 8l7 -2l341 -197q11 -7 24 -7q9 0 25 8l146 83q18 11 18 30q0 8 -5 16.5t-13 12.5l-322 186q-9 4 -9 12t9 12l140 79q7 4 11 4q7 0 12 -4l361 -209q8 -3 8 -15v-181q0 -9 -2.5 -14.5t-10.5 -11.5l-349 -200q-8 -5 -19 -5
q-5 0 -18 5z" />
    <glyph glyph-name="at" unicode="@" horiz-adv-x="945" 
d="M539 82q-46 -92 -138 -92q-49 0 -77 37.5t-28 105.5q0 61 24.5 123.5t70 103.5t105.5 41q22 0 51 -8q7 -2 23.5 -7.5t27.5 -5.5q21 0 48 14l-50 -292q-2 -8 -2 -22q0 -24 16 -40t40 -16q42 0 78.5 29t58 81.5t21.5 119.5q0 73 -36 137.5t-104.5 104t-159.5 39.5
q-106 0 -186 -47.5t-123.5 -129.5t-43.5 -182q0 -94 40.5 -171.5t121 -123.5t195.5 -46q86 0 163.5 37t129.5 95l24 -18q-59 -66 -140 -105t-179 -39q-126 0 -215 48t-134 131t-45 187q0 107 46 197t136 143t216 53q93 0 169 -40.5t119.5 -111.5t43.5 -158
q0 -76 -28.5 -136.5t-75 -94t-99.5 -33.5q-101 0 -104 92zM424.5 335.5q-29.5 -39.5 -46.5 -98t-17 -108.5q0 -52 17 -78.5t44 -26.5q28 0 53 20.5t42 53.5t31 103.5t14 104.5q0 33 -16.5 51t-57.5 18q-34 0 -63.5 -39.5z" />
    <glyph glyph-name="ampersand" unicode="&#x26;" horiz-adv-x="723" 
d="M623 -12q-29 0 -71.5 26t-103.5 77q-101 -103 -198 -103q-92 0 -143 49t-51 128q0 63 36.5 106t108.5 89q-81 102 -81 180q0 52 23.5 88t61.5 54t81 18q40 0 75.5 -16t57 -46t21.5 -71q0 -58 -41 -102.5t-117 -94.5q92 -115 181 -197q40 63 63 111t23 86q0 37 -24 60h130
q-23 -23 -68 -124q-31 -71 -94 -158q6 -4 18 -14q50 -40 87.5 -63t71.5 -23q10 0 34 15q-6 -17 -16 -32q-26 -43 -65 -43zM205 639q-24 -30 -24 -71q0 -37 24.5 -83.5t56.5 -88.5q62 38 88.5 75t26.5 86q0 55 -29 83.5t-69 28.5q-50 0 -74 -30zM145.5 266
q-25.5 -34 -25.5 -79q0 -39 20.5 -74t55.5 -56t75 -21q43 0 74 19.5t74 61.5q-51 47 -103.5 104.5t-93.5 110.5q-51 -32 -76.5 -66z" />
    <glyph glyph-name="paragraph" unicode="&#xb6;" horiz-adv-x="560" 
d="M509.5 682.5q-13.5 -8.5 -24 -32t-10.5 -67.5v-815h-51v876h-96v-876h-48v408q-69 0 -128 34.5t-93.5 93.5t-34.5 128t34.5 128t93.5 93.5t128 34.5h243q0 3 -13.5 -5.5z" />
    <glyph glyph-name="section" unicode="&#xa7;" horiz-adv-x="476" 
d="M372.5 15.5q25.5 -34.5 25.5 -90.5q0 -73 -48 -119.5t-129 -46.5q-41 0 -78.5 15.5t-58.5 39.5l28 72q21 -39 62 -62t83 -23q39 0 67 26.5t28 73.5q0 41 -30 73t-87 68q-90 58 -126.5 100t-36.5 96q0 50 27 93t74 64q-46 31 -71 64.5t-25 86.5q0 66 45.5 110t122.5 44
q74 0 125 -46l-27 -68q-19 36 -55.5 55t-77.5 19q-37 0 -63 -23.5t-26 -67.5q0 -38 29.5 -67.5t89.5 -67.5q62 -40 95 -67.5t50.5 -58t17.5 -70.5q0 -50 -27.5 -93t-74.5 -64q46 -31 71.5 -65.5zM140.5 331q-21.5 -31 -21.5 -63q0 -37 29 -70.5t110 -87.5l22 -15
q32 17 54 49t22 64q0 34 -29.5 69.5t-109.5 88.5l-22 14q-33 -18 -54.5 -49z" />
    <glyph glyph-name="copyright" unicode="&#xa9;" horiz-adv-x="800" 
d="M579 652q82 -48 130 -129.5t48 -178.5t-48 -178.5t-130 -129.5t-179 -48t-179 48t-130 129.5t-48 178.5t48 178.5t130 129.5t179 48t179 -48zM562.5 60q74.5 44 118.5 119.5t44 164.5t-44 164.5t-118.5 119.5t-162.5 44t-162.5 -44t-118.5 -119.5t-44 -164.5t44 -164.5
t118.5 -119.5t162.5 -44t162.5 44zM491 124.5q-41 -14.5 -82 -14.5q-62 0 -115.5 28t-86 81.5t-32.5 125.5q0 67 30 120.5t84.5 83.5t127.5 30q78 0 142 -35v-89q-25 43 -64.5 68t-82.5 25q-53 0 -92.5 -26t-61 -70.5t-21.5 -100.5q0 -63 24 -110t64.5 -71.5t90.5 -24.5
q83 0 143 54v-39q-27 -21 -68 -35.5z" />
    <glyph glyph-name="registered" unicode="&#xae;" horiz-adv-x="800" 
d="M579 652q82 -48 130 -129.5t48 -178.5t-48 -178.5t-130 -129.5t-179 -48t-179 48t-130 129.5t-48 178.5t48 178.5t130 129.5t179 48t179 -48zM562.5 60q74.5 44 118.5 119.5t44 164.5t-44 164.5t-118.5 119.5t-162.5 44t-162.5 -44t-118.5 -119.5t-44 -164.5t44 -164.5
t118.5 -119.5t162.5 -44t162.5 44zM457 377.5q24 28.5 24 65.5q0 38 -23.5 66.5t-66.5 28.5h-60v-356q0 -25 5 -37.5t11.5 -17t6.5 -2.5h-101q0 -2 6.5 2.5t11.5 17.5t5 37v326q0 25 -5 38.5t-11.5 18t-6.5 2.5h136q76 0 112 -34t36 -83q0 -45 -29.5 -77.5t-75.5 -42.5
l124 -141q21 -24 36.5 -38.5t22.5 -19.5t9 -6h-84l-195 224h46q42 0 66 28.5z" />
    <glyph glyph-name="trademark" unicode="&#x2122;" horiz-adv-x="640" 
d="M261 622q-3 12 -18 24.5t-36 12.5h-38v-182q0 -23 6.5 -32.5t12.5 -11.5h-85q5 0 12.5 10t7.5 34v182h-39q-20 0 -34.5 -11t-19.5 -26l9 66h213zM521 433q5 0 12 10t7 34v174l-90 -224l-91 223v-171q0 -24 7.5 -34.5t14.5 -11.5h-77q6 0 14.5 10.5t8.5 37.5v165
q0 31 -22 42h89l66 -159l64 159h83q-21 -9 -21 -44v-168q0 -22 7.5 -31.5t13.5 -11.5h-86z" />
    <glyph glyph-name="degree" unicode="&#xb0;" horiz-adv-x="360" 
d="M253 670.5q30 -30.5 30 -73.5t-30 -73.5t-73 -30.5t-73 30.5t-30 73.5t30 73.5t73 30.5t73 -30.5zM224 552.5q18 18.5 18 44.5t-18 44.5t-44 18.5t-44 -18.5t-18 -44.5t18 -44.5t44 -18.5t44 18.5z" />
    <glyph glyph-name="bar" unicode="|" horiz-adv-x="208" 
d="M80 727h48v-959h-48v959z" />
    <glyph glyph-name="brokenbar" unicode="&#xa6;" horiz-adv-x="208" 
d="M80 727h48v-346h-48v346zM80 114h48v-346h-48v346z" />
    <glyph glyph-name="dagger" unicode="&#x2020;" horiz-adv-x="496" 
d="M300.5 683q-7.5 -7 -13.5 -26.5t-6 -57.5v-144h122q31 0 42 11t11 17v-105q0 7 -11 18t-43 11h-121v-450q0 -44 -7.5 -87t-15 -70.5t-10.5 -34.5q-3 7 -10.5 34.5t-15 70.5t-7.5 87v450h-121q-33 0 -43.5 -11t-10.5 -18v105q0 -6 11 -17t42 -11h122v144q0 38 -6 57.5
t-13.5 26.5t-7.5 5h120q0 2 -7.5 -5z" />
    <glyph glyph-name="uni2113" unicode="&#x2113;" horiz-adv-x="480" 
d="M171 165q0 -56 16.5 -98.5t56.5 -42.5t65.5 46.5t46.5 117.5l38 -10q-19 -80 -56.5 -134.5t-98.5 -54.5q-57 0 -91 47.5t-42 143.5q-41 -19 -53 -22v45l31 12q18 8 20 8q5 124 45.5 234.5t94.5 177t97 66.5q33 0 53 -29t20 -77q0 -97 -66.5 -198.5t-172.5 -181.5
q-4 -22 -4 -50zM316 423q55 92 55 172q0 26 -7.5 47t-22.5 21q-20 0 -48 -38.5t-59 -128t-56 -232.5q83 67 138 159z" />
    <glyph glyph-name="daggerdbl" unicode="&#x2021;" horiz-adv-x="496" 
d="M94 408q-33 0 -43.5 -11t-10.5 -18v105q0 -6 11 -17t42 -11h123v143q0 38 -6 57.5t-13.5 26.5t-7.5 5h118q0 2 -7.5 -5t-13.5 -26.5t-6 -57.5v-143h123q31 0 42 11t11 17v-105q0 7 -11 18t-43 11h-122v-360h122q33 0 43.5 11t10.5 18v-105q0 6 -11 17t-42 11h-123v-143
q0 -38 6 -57.5t13.5 -26.5t7.5 -5h-118q0 -2 7.5 5t13.5 26.5t6 57.5v143h-123q-31 0 -42 -11t-11 -17v105q0 -7 11 -18t43 -11h122v360h-122z" />
    <glyph glyph-name="estimated" unicode="&#x212e;" horiz-adv-x="833" 
d="M96 509q44 84 128 137.5t197 53.5q109 0 191 -53t125 -133t43 -159v-7h-622v-12q0 -194 90.5 -252t176.5 -58q103 0 172.5 37t103.5 91.5t37 109.5h43q0 -54 -37 -118.5t-117 -111t-202 -46.5q-104 0 -189.5 44t-134.5 123.5t-49 180.5q0 89 44 173zM673 386
q-4 170 -87.5 224t-164.5 54q-86 0 -173 -54t-93 -224h518z" />
    <glyph glyph-name="asciicircum" unicode="^" horiz-adv-x="560" 
d="M280 618h-4l-124 -324h-61l161 398h56l161 -398h-63z" />
    <glyph glyph-name="uni0326" unicode="&#x326;" horiz-adv-x="0" 
d="M-187 -209q16 27 16 60h-6q-22 0 -33 11.5t-11 28.5q0 18 11.5 30.5t31.5 12.5q22 0 38 -18t16 -52q0 -42 -26.5 -74t-75.5 -34q23 8 39 35z" />
    <glyph glyph-name="uni0326.salt" horiz-adv-x="0" 
d="M-164.5 600.5q-13.5 -23.5 -13.5 -51.5h5q19 0 28.5 -10.5t9.5 -24.5q0 -15 -10 -26.5t-27 -11.5q-19 0 -33 16t-14 45q0 37 22.5 65t65.5 30q-20 -8 -33.5 -31.5z" />
    <glyph glyph-name="uni02C9" unicode="&#x2c9;" horiz-adv-x="304" 
d="M30 560h244v-46h-244v46z" />
    <glyph glyph-name="acute" unicode="&#xb4;" horiz-adv-x="304" 
d="M194 637h89l-162 -190z" />
    <glyph glyph-name="breve" unicode="&#x2d8;" horiz-adv-x="304" 
d="M74 594.5q4 16.5 11 25.5q-4 -12 -4 -22q0 -25 21.5 -42.5t49.5 -17.5t49.5 17.5t21.5 42.5q0 10 -4 22q7 -9 11 -25.5t4 -29.5q0 -32 -23 -58t-59 -26t-59 26t-23 58q0 13 4 29.5z" />
    <glyph glyph-name="caron" unicode="&#x2c7;" horiz-adv-x="304" 
d="M263 647l-111 -190l-111 190l111 -96z" />
    <glyph glyph-name="cedilla" unicode="&#xb8;" horiz-adv-x="304" 
d="M265.5 -163.5q-20.5 -19.5 -57.5 -19.5q-23 0 -43.5 10.5t-31.5 31.5q31 -11 53 -11q21 0 32.5 11.5t11.5 27.5q0 15 -11 26.5t-32 11.5h-9l29 67h37l-22 -48q31 -4 47.5 -21.5t16.5 -40.5q0 -26 -20.5 -45.5z" />
    <glyph glyph-name="circumflex" unicode="&#x2c6;" horiz-adv-x="304" 
d="M152 647l111 -190l-111 96l-111 -96z" />
    <glyph glyph-name="dieresis" unicode="&#xa8;" horiz-adv-x="304" 
d="M45.5 500q-10.5 12 -10.5 28t10.5 28t28.5 12t28.5 -12t10.5 -28t-10.5 -28t-28.5 -12t-28.5 12zM201.5 500q-10.5 12 -10.5 28t10.5 28t28.5 12t28.5 -12t10.5 -28t-10.5 -28t-28.5 -12t-28.5 12z" />
    <glyph glyph-name="dotaccent" unicode="&#x2d9;" horiz-adv-x="304" 
d="M117.5 507.5q-12.5 14.5 -12.5 33.5t12.5 33.5t34.5 14.5t34.5 -14.5t12.5 -33.5t-12.5 -33.5t-34.5 -14.5t-34.5 14.5z" />
    <glyph glyph-name="grave" unicode="`" horiz-adv-x="304" 
d="M125 637l73 -190l-162 190h89z" />
    <glyph glyph-name="hungarumlaut" unicode="&#x2dd;" horiz-adv-x="304" 
d="M109 607h88l-161 -160zM231 607h89l-163 -160z" />
    <glyph glyph-name="macron" unicode="&#xaf;" horiz-adv-x="304" 
d="M30 560h244v-46h-244v46z" />
    <glyph glyph-name="ogonek" unicode="&#x2db;" horiz-adv-x="304" 
d="M152 -54.5q-17 -23.5 -17 -45.5q0 -18 12.5 -29.5t32.5 -11.5q26 0 63 21q-16 -28 -39.5 -42.5t-48.5 -14.5q-30 0 -50.5 19t-20.5 52q0 56 73 106h48q-36 -31 -53 -54.5z" />
    <glyph glyph-name="ring" unicode="&#x2da;" horiz-adv-x="304" 
d="M103.5 577q20.5 20 48.5 20q29 0 49 -20t20 -49t-20.5 -49.5t-48.5 -20.5t-48.5 20.5t-20.5 49.5t20.5 49zM181.5 556q-12.5 12 -29.5 12t-29.5 -12t-12.5 -28t12.5 -28.5t29.5 -12.5t29.5 12.5t12.5 28.5t-12.5 28z" />
    <glyph glyph-name="tilde" unicode="&#x2dc;" horiz-adv-x="304" 
d="M51.5 560.5q18.5 16.5 47.5 16.5t71 -18q32 -13 49 -13q34 0 34 44q0 11 -1 17q19 -17 19 -48q0 -29 -18.5 -45.5t-47.5 -16.5t-71 18q-32 13 -49 13q-34 0 -34 -44q0 -11 1 -17q-19 17 -19 48q0 29 18.5 45.5z" />
    <glyph glyph-name="acute.case" horiz-adv-x="528" 
d="M285 858h118l-221 -126z" />
    <glyph glyph-name="breve.case" horiz-adv-x="528" 
d="M206 764.5q-24 24.5 -24 57.5q0 24 15 46q-3 -10 -3 -20q0 -24 20 -37.5t50 -13.5t50 13.5t20 37.5q0 10 -3 20q15 -22 15 -46q0 -33 -24 -57.5t-58 -24.5t-58 24.5z" />
    <glyph glyph-name="caron.case" horiz-adv-x="528" 
d="M395 868l-131 -136l-131 136l131 -59z" />
    <glyph glyph-name="circumflex.case" horiz-adv-x="528" 
d="M264 868l131 -136l-131 59l-131 -59z" />
    <glyph glyph-name="dieresis.case" horiz-adv-x="528" 
d="M121.5 753q-10.5 12 -10.5 28t10.5 28t28.5 12t28.5 -12t10.5 -28t-10.5 -28t-28.5 -12t-28.5 12zM349.5 753q-10.5 12 -10.5 28t10.5 28t28.5 12t28.5 -12t10.5 -28t-10.5 -28t-28.5 -12t-28.5 12z" />
    <glyph glyph-name="dotaccent.case" horiz-adv-x="528" 
d="M229.5 767.5q-12.5 14.5 -12.5 33.5t12.5 33.5t34.5 14.5t34.5 -14.5t12.5 -33.5t-12.5 -33.5t-34.5 -14.5t-34.5 14.5z" />
    <glyph glyph-name="grave.case" horiz-adv-x="528" 
d="M220 858l103 -126l-221 126h118z" />
    <glyph glyph-name="hungarumlaut.case" horiz-adv-x="528" 
d="M232 858h118l-221 -126zM383 858h118l-221 -126z" />
    <glyph glyph-name="macron.case" horiz-adv-x="528" 
d="M142 815h244v-46h-244v46z" />
    <glyph glyph-name="ring.case" horiz-adv-x="528" 
d="M215.5 848q20.5 20 48.5 20q29 0 49 -20t20 -49t-20.5 -49.5t-48.5 -20.5t-48.5 20.5t-20.5 49.5t20.5 49zM293.5 827q-12.5 12 -29.5 12t-29.5 -12t-12.5 -28t12.5 -28.5t29.5 -12.5t29.5 12.5t12.5 28.5t-12.5 28z" />
    <glyph glyph-name="tilde.case" horiz-adv-x="528" 
d="M163.5 821.5q18.5 16.5 47.5 16.5t71 -18q32 -13 49 -13q34 0 34 44q0 11 -1 17q19 -17 19 -48q0 -29 -18.5 -45.5t-47.5 -16.5t-71 18q-32 13 -49 13q-34 0 -34 -44q0 -11 1 -17q-19 17 -19 48q0 29 18.5 45.5z" />
    <glyph glyph-name="caron.salt" horiz-adv-x="304" 
d="M145 700h69l-101 -187z" />
    <glyph glyph-name="uni05B0" unicode="&#x5b0;" horiz-adv-x="0" 
d="M31 -107q-11 10 -11 27q0 18 11 27.5t26 9.5t26 -9.5t11 -27.5q0 -17 -11 -27t-26 -10t-26 10zM31 -207q-11 10 -11 27q0 18 11 27.5t26 9.5t26 -9.5t11 -27.5q0 -17 -11 -27t-26 -10t-26 10z" />
    <glyph glyph-name="uni05B1" unicode="&#x5b1;" horiz-adv-x="0" 
d="M31 -107q-11 10 -11 27q0 18 11 27.5t26 9.5t26 -9.5t11 -27.5q0 -17 -11 -27t-26 -10t-26 10zM122 -107q-11 10 -11 27q0 18 11 27.5t26 9.5t26 -9.5t11 -27.5q0 -17 -11 -27t-26 -10t-26 10zM212 -107q-11 10 -11 27q0 18 11 27.5t26 9.5t26 -9.5t11 -27.5
q0 -17 -11 -27t-26 -10t-26 10zM76 -207q-11 10 -11 27q0 18 11 27.5t26 9.5t26 -9.5t11 -27.5q0 -17 -11 -27t-26 -10t-26 10zM212 -207q-11 10 -11 27q0 18 11 27.5t26 9.5t26 -9.5t11 -27.5q0 -17 -11 -27t-26 -10t-26 10z" />
    <glyph glyph-name="uni05B2" unicode="&#x5b2;" horiz-adv-x="0" 
d="M202 -107q-11 10 -11 27q0 18 11 27.5t26 9.5t26 -9.5t11 -27.5q0 -17 -11 -27t-26 -10t-26 10zM20 -54h156v-54h-156v54zM202 -207q-11 10 -11 27q0 18 11 27.5t26 9.5t26 -9.5t11 -27.5q0 -17 -11 -27t-26 -10t-26 10z" />
    <glyph glyph-name="uni05B3" unicode="&#x5b3;" horiz-adv-x="0" 
d="M202 -107q-11 10 -11 27q0 18 11 27.5t26 9.5t26 -9.5t11 -27.5q0 -17 -11 -27t-26 -10t-26 10zM20 -54h156v-54h-54q8 -40 8 -66h-58q0 16 8 66h-60v54zM254 -152.5q11 -9.5 11 -27.5q0 -17 -11 -27t-26 -10t-26 10t-11 27q0 18 11 27.5t26 9.5t26 -9.5z" />
    <glyph glyph-name="uni05B4" unicode="&#x5b4;" horiz-adv-x="0" 
d="M37 -107q-11 10 -11 27q0 18 11 27.5t26 9.5t26 -9.5t11 -27.5q0 -17 -11 -27t-26 -10t-26 10z" />
    <glyph glyph-name="uni05B5" unicode="&#x5b5;" horiz-adv-x="0" 
d="M31 -107q-11 10 -11 27q0 18 11 27.5t26 9.5t26 -9.5t11 -27.5q0 -17 -11 -27t-26 -10t-26 10zM131 -107q-11 10 -11 27q0 18 11 27.5t26 9.5t26 -9.5t11 -27.5q0 -17 -11 -27t-26 -10t-26 10z" />
    <glyph glyph-name="uni05B6" unicode="&#x5b6;" horiz-adv-x="0" 
d="M31 -107q-11 10 -11 27q0 18 11 27.5t26 9.5t26 -9.5t11 -27.5q0 -17 -11 -27t-26 -10t-26 10zM131 -107q-11 10 -11 27q0 18 11 27.5t26 9.5t26 -9.5t11 -27.5q0 -17 -11 -27t-26 -10t-26 10zM81 -207q-11 10 -11 27q0 18 11 27.5t26 9.5t26 -9.5t11 -27.5
q0 -17 -11 -27t-26 -10t-26 10z" />
    <glyph glyph-name="uni05B7" unicode="&#x5b7;" horiz-adv-x="0" 
d="M75 -54h176v-54h-176v54z" />
    <glyph glyph-name="uni05B8" unicode="&#x5b8;" horiz-adv-x="0" 
d="M196 -108h-64q8 -40 8 -66h-58q0 16 8 66h-70v54h176v-54z" />
    <glyph glyph-name="uni05B9" unicode="&#x5b9;" horiz-adv-x="0" 
d="M31 457q-11 10 -11 27q0 18 11 27.5t26 9.5t26 -9.5t11 -27.5q0 -17 -11 -27t-26 -10t-26 10z" />
    <glyph glyph-name="uni05BA" unicode="&#x5ba;" horiz-adv-x="0" 
d="M31 457q-11 10 -11 27q0 18 11 27.5t26 9.5t26 -9.5t11 -27.5q0 -17 -11 -27t-26 -10t-26 10z" />
    <glyph glyph-name="uni05BB" unicode="&#x5bb;" horiz-adv-x="0" 
d="M31 -107q-11 10 -11 27q0 18 11 27.5t26 9.5t26 -9.5t11 -27.5q0 -17 -11 -27t-26 -10t-26 10zM82 -187q-11 10 -11 27q0 18 11 27.5t26 9.5t26 -9.5t11 -27.5q0 -17 -11 -27t-26 -10t-26 10zM133 -267q-11 10 -11 27q0 18 11 27.5t26 9.5t26 -9.5t11 -27.5
q0 -17 -11 -27t-26 -10t-26 10z" />
    <glyph glyph-name="uni05BC" unicode="&#x5bc;" horiz-adv-x="0" 
d="M37 257q-11 10 -11 27q0 18 11 27.5t26 9.5t26 -9.5t11 -27.5q0 -17 -11 -27t-26 -10t-26 10z" />
    <glyph glyph-name="uni05C1" unicode="&#x5c1;" horiz-adv-x="0" 
d="M31 567q-11 10 -11 27q0 18 11 27.5t26 9.5t26 -9.5t11 -27.5q0 -17 -11 -27t-26 -10t-26 10z" />
    <glyph glyph-name="uni05C2" unicode="&#x5c2;" horiz-adv-x="0" 
d="M31 567q-11 10 -11 27q0 18 11 27.5t26 9.5t26 -9.5t11 -27.5q0 -17 -11 -27t-26 -10t-26 10z" />
    <glyph glyph-name="uni05C7" unicode="&#x5c7;" horiz-adv-x="0" 
d="M196 -108h-64q8 -40 8 -66h-58q0 16 8 66h-70v54h176v-54z" />
    <glyph glyph-name="uni05BC.small" horiz-adv-x="0" 
d="M34.5 271.5q-9.5 8.5 -9.5 22.5q0 15 9.5 23t21.5 8t21.5 -8t9.5 -23q0 -14 -9.5 -22.5t-21.5 -8.5t-21.5 8.5z" />
    </font>
</defs>
</svg>
